<?xml version="1.0" standalone="no"?>
<!DOCTYPE svg PUBLIC "-//W3C//DTD SVG 1.1//EN" "http://www.w3.org/Graphics/SVG/1.1/DTD/svg11.dtd" >
<svg xmlns="http://www.w3.org/2000/svg">
<metadata>
<json>
<![CDATA[
{
	"fontFamily": "betterwork-icons",
	"majorVersion": 1,
	"minorVersion": 0,
	"version": "Version 1.0",
	"fontId": "betterwork-icons",
	"psName": "betterwork-icons",
	"subFamily": "Regular",
	"fullName": "betterwork-icons",
	"description": "Font generated by IcoMoon."
}
]]>
</json>
</metadata>
<defs>
<font id="betterwork-icons" horiz-adv-x="1024">
<font-face units-per-em="1024" ascent="960" descent="-64" />
<missing-glyph horiz-adv-x="1024" />
<glyph unicode="&#x20;" horiz-adv-x="512" d="" />
<glyph unicode="&#xe900;" glyph-name="eye" data-tags="eye" d="M165.765 451.533c14.372 21.676 30.926 43.294 46.774 62.813 41.374 50.961 90.499 100.478 145.402 136.748 32.638 21.562 68.846 39.328 107.233 47.716 15.39 3.363 31.066 5.19 46.825 5.19 55.646 0 108.337-22.699 154.083-52.926 54.93-36.296 104.081-85.851 145.471-136.848 15.814-19.483 32.337-41.061 46.683-62.697-13.89-21.527-29.856-43.012-45.171-62.505-40.050-50.976-87.406-100.63-140.496-138.067-35.397-24.96-75.458-45.817-118.161-54.558-13.961-2.858-28.155-4.398-42.41-4.398-58.492 0-113.635 25.858-160.59 58.974-53.205 37.524-100.66 87.323-140.773 138.431-15.221 19.394-31.063 40.732-44.872 62.127zM640.001 447.648c0 35.47-14.439 67.554-37.759 90.72l-90.239-90.241v127.456c-70.667-0.001-127.996-57.266-127.996-127.935 0-70.698 57.33-127.997 127.997-127.997 70.699 0 127.997 57.299 127.997 127.997zM512 736c-212.049 0-384.001-284.242-384.001-284.242s171.952-291.758 384.001-291.758c212.049 0 384.001 291.758 384.001 291.758s-171.952 284.242-384.001 284.242z" />
<glyph unicode="&#xe901;" glyph-name="eye-blind" data-tags="eye-blind" d="M640.001 448.031c0 29.221-9.802 56.142-26.291 77.673l94.533 94.533c38.12-31.278 72.823-68.061 103.312-105.629 15.814-19.483 32.337-41.061 46.683-62.697-13.89-21.527-29.856-43.012-45.171-62.505-40.050-50.976-87.406-100.63-140.496-138.067-35.397-24.96-75.458-45.817-118.161-54.558-13.961-2.858-28.155-4.398-42.41-4.398-58.492 0-113.635 25.858-160.59 58.974-2.348 1.656-4.684 3.335-7.009 5.038l89.916 89.916c21.545-16.483 48.474-26.278 77.687-26.278 70.699 0 127.997 57.299 127.997 127.997zM512.003 471.999l-343.999-344.001h48.001l105.531 105.531c56.135-41.968 121.154-73.147 190.464-73.147 212.049 0 384.001 291.758 384.001 291.758s-65.313 107.946-165.064 190.791l125.068 125.068-48.001 0.001-296.002-296.002zM165.765 451.916c13.809-21.395 29.651-42.734 44.872-62.127 24.517-31.237 51.778-61.985 81.415-89.739l-22.591-22.591c-86.321 81.15-141.462 174.683-141.462 174.683s171.952 284.242 384.001 284.242c58.46 0 113.86-21.626 163.462-52.922l-23.226-23.227c-42.406 25.739-90.122 44.15-140.236 44.15-15.759 0-31.436-1.827-46.825-5.19-38.388-8.389-74.595-26.154-107.233-47.716-54.903-36.27-104.028-85.787-145.402-136.748-15.848-19.519-32.402-41.137-46.774-62.813zM512.003 520.002v55.965c-70.667-0.001-127.996-57.266-127.996-127.935 0-16.627 3.172-32.51 8.942-47.084l119.054 119.054z" />
<glyph unicode="&#xe902;" glyph-name="lightbulb" data-tags="lightbulb" d="M608 319.998v-160.081c-0.045-17.545-14.445-31.918-31.999-31.918h-128.001c-17.582 0-32 14.399-32 32v22.713h-0.002v137.286c0 11.081-159.998 99.013-159.998 256.002 0 141.384 114.616 256 256 256 141.387 0 256-114.616 256-256 0-157.047-160-244.859-160-256.002zM560 447.998c8.836 0 16-7.164 16-16v-48h-0.002c0-8.836-7.164-16-16-16s-16 7.164-16 16l0.002 0.165v47.835c0 8.836 7.164 16 16 16zM512 447.998c8.836 0 16-7.164 16-16v-48h-0.002c0-8.836-7.164-16-16-16s-16 7.164-16 16l0.002 0.165v47.835c0 8.836 7.164 16 16 16zM464 447.998c8.836 0 16-7.164 16-16v-48h-0.002c0-8.836-7.164-16-16-16s-16 7.164-16 16l0.002 0.165v47.835c0 8.836 7.164 16 16 16zM447.998 287.998h128.002v32c0 21.609 21.783 35.167 36.755 47.399 18.273 14.928 35.723 30.394 51.821 47.69 41.703 44.807 71.424 98.244 71.424 160.913 0 123.722-100.278 224-224 224s-224-100.279-224-224c0-62.662 29.738-116.112 71.427-160.92 16.095-17.299 33.543-32.773 51.817-47.703 14.967-12.228 36.753-25.776 36.753-47.379v-32zM576 255.998h-128.001v-32h128.001v32zM576 191.998h-128v-31.934c0.018-0.023 0.042-0.046 0.065-0.065l127.891-0.011c0.017 0.008 0.032 0.024 0.044 0.041v31.969zM448 95.999c15.724-19.638 38.568-32 64-32s48.278 12.362 64 32h-128z" />
<glyph unicode="&#xe903;" glyph-name="bell" data-tags="bell" d="M602.527 127.999c-13.191-37.274-48.776-64-90.548-64-41.771 0-77.328 26.726-90.508 64h35.094c11.067-19.126 31.748-32.002 55.422-32.002s44.368 12.876 55.444 32.002h35.097zM511.993 832.001c17.576 0 31.866-14.192 32.005-31.749h0.001v-0.094l0.002-0.165-0.002-0.165v-34.138c90.981-16.256 159.001-99.832 159.978-204.162h0.024v-270.006c11.74-104.23 128-64.105 128-124.289 0-2.482-0.251-4.903-0.721-7.234h-638.559c-0.47 2.331-0.721 4.751-0.721 7.234 0 60.184 116.261 20.15 128.001 124.38v270.006h0.025c0.978 104.329 68.995 187.826 159.975 204.073v34.218l-0.001 0.083 0.001 0.083v0.176h0.002c0.139 17.558 14.415 31.749 31.99 31.749zM352.043 558.847v-267.234c0-1.21-0.015-2.415-0.044-3.614h320.002c-0.028 1.195-0.045 2.397-0.045 3.614v267.343l-0.023 2.363c-0.609 64.578-32.737 134.119-94.017 162.389-17.882 8.25-41.676 12.346-65.919 12.292-23.907-0.054-48.272-4.151-65.909-12.287-61.283-28.269-93.413-97.816-94.023-162.394l-0.024-2.472zM348.143 255.999c-5.94-20.476-17.704-38.269-36.661-52.005-6.476-4.692-13.387-8.615-20.572-11.995h442.301c-29.373 13.981-49.038 34.685-57.453 64h-327.615z" />
<glyph unicode="&#xe904;" glyph-name="alarm" data-tags="alarm" d="M512 768c-176.731 0-319.999-143.27-319.999-320.001s143.268-320 319.999-320c176.731 0 320 143.269 320 320s-143.269 320.001-320 320.001zM512 800c194.404 0 352-157.597 352-352.001s-157.596-352-352-352c-194.404 0-351.999 157.596-351.999 352s157.595 352.001 351.999 352.001zM496.001 463.997l15.998 191.676 16-223.674-143.998 16.001 112 15.997zM795.315 155.314c6.247-6.247 6.247-16.379 0-22.627-6.249-6.248-16.38-6.248-22.628 0l-17.851 17.851c8.281 6.769 16.269 13.878 23.953 21.302l16.526-16.526zM228.686 155.314c-6.247-6.247-6.247-16.379 0-22.627 6.249-6.248 16.38-6.248 22.628 0l17.851 17.851c-8.281 6.769-16.268 13.877-23.953 21.302l-16.526-16.526zM736.002 832c88.364 0 160-71.635 160-159.999 0-31.87-9.32-61.562-25.381-86.503-4.87 12.696-10.374 25.078-16.513 37.082 6.37 15.206 9.894 31.902 9.894 49.42 0 70.693-57.308 128-128.002 128-17.519 0-34.213-3.524-49.418-9.893-12.004 6.138-24.387 11.642-37.081 16.513 24.942 16.059 54.632 25.38 86.501 25.38zM288.002 832c31.868 0 61.558-9.32 86.499-25.379-12.696-4.871-25.079-10.375-37.083-16.514-15.205 6.369-31.9 9.893-49.418 9.893-70.693 0-128.001-57.307-128.001-128 0-17.519 3.524-34.214 9.894-49.42-6.138-12.004-11.641-24.388-16.512-37.081-16.059 24.941-25.38 54.632-25.38 86.502 0 88.364 71.635 159.999 160.001 159.999z" />
<glyph unicode="&#xe905;" glyph-name="watch" data-tags="watch" d="M496.001 463.997l15.998 207.676 16-239.674-239.998 16.001 208 15.997zM384 831.999h256.001c17.601 0 32-14.426 32-32v-112.512c68.818-46.069 116.677-121.005 126.239-207.488h1.762v-0.004c17.671 0 31.998-14.327 31.998-31.998s-14.327-31.998-31.998-31.998l-0.33 0.004h-1.433c-9.561-86.485-57.42-161.422-126.239-207.492v-112.512c0-17.574-14.426-32-32-32h-256.001c-17.574 0-32 14.399-32 32v112.512c-77.179 51.665-127.999 139.638-127.999 239.488s50.818 187.826 127.999 239.489v112.511c0 17.601 14.399 32 32 32zM672.001 647.826c-1.246 0.999-2.503 1.988-3.768 2.964l-0.038 0.030-1.098 0.842c-1.179 0.899-2.364 1.787-3.557 2.666-0.628 0.463-1.26 0.922-1.892 1.379-0.916 0.663-1.838 1.319-2.764 1.969-0.856 0.601-1.716 1.198-2.58 1.789-0.737 0.504-1.478 1.007-2.221 1.503-1.068 0.715-2.143 1.421-3.223 2.121l-1.702 1.093c-1.228 0.781-2.462 1.551-3.704 2.312l-1.358 0.826c-38.563 23.282-83.765 36.678-132.096 36.678-48.347 0-93.56-13.403-132.132-36.699l-1.328-0.809c-1.236-0.756-2.465-1.524-3.685-2.301l-1.691-1.084c-1.097-0.71-2.187-1.428-3.273-2.154-0.724-0.484-1.444-0.972-2.163-1.463-0.908-0.621-1.812-1.247-2.712-1.88-0.894-0.628-1.783-1.262-2.668-1.902-0.639-0.462-1.277-0.926-1.911-1.394-1.15-0.847-2.293-1.703-3.428-2.568l-1.204-0.923-0.101-0.079c-1.221-0.942-2.432-1.894-3.634-2.859-58.558-46.915-96.069-119.013-96.069-199.885 0-80.87 37.509-152.971 96.069-199.884 1.202-0.964 2.414-1.917 3.634-2.859l0.101-0.079 0.48-0.369 0.724-0.554c1.137-0.864 2.279-1.721 3.428-2.568 0.635-0.468 1.272-0.932 1.911-1.394 0.885-0.64 1.774-1.273 2.668-1.902 0.9-0.632 1.803-1.258 2.712-1.88 0.719-0.492 1.44-0.979 2.163-1.463 1.085-0.726 2.176-1.444 3.273-2.154l1.691-1.084c1.222-0.776 2.45-1.544 3.685-2.301l1.328-0.809c38.573-23.291 83.786-36.699 132.132-36.699 48.331 0 93.532 13.396 132.096 36.678l1.358 0.826c1.242 0.761 2.477 1.531 3.704 2.312 0.568 0.361 1.137 0.726 1.702 1.093 1.080 0.698 2.154 1.405 3.223 2.121 0.743 0.497 1.484 0.998 2.221 1.503 0.864 0.591 1.724 1.188 2.58 1.789 0.926 0.65 1.847 1.307 2.764 1.969 0.633 0.457 1.265 0.916 1.892 1.379 1.194 0.879 2.38 1.767 3.557 2.666l0.137 0.104 0.998 0.767c1.266 0.976 2.522 1.965 3.768 2.964 58.519 46.917 95.998 118.989 95.998 199.826 0 80.839-37.479 152.911-95.998 199.827zM639.999 706.040v93.96h-255.998v-93.96c38.562 19.165 82.016 29.96 127.999 29.96s89.44-10.792 127.999-29.96zM639.999 189.959c-38.559-19.168-82.016-29.96-127.999-29.96s-89.439 10.792-127.999 29.96v-93.959h255.998v93.959z" />
<glyph unicode="&#xe906;" glyph-name="clock" data-tags="clock" d="M496.001 463.997l-176-15.997 207.998-16.001-16 287.674-15.998-255.676zM512 800.001c-194.404 0-352-157.598-352-352.002s157.596-352.001 352-352.001c194.404 0 352.001 157.597 352.001 352.001s-157.597 352.002-352.001 352.002zM512 832c212.078 0 384-171.923 384-384.001s-171.922-384-384-384c-212.078 0-383.999 171.922-383.999 384s171.921 384.001 383.999 384.001z" />
<glyph unicode="&#xe907;" glyph-name="clock2" data-tags="clock2" d="M512 832c-212.078 0-383.999-171.923-383.999-384.001s171.921-384 383.999-384c212.078 0 384 171.922 384 384s-171.922 384.001-384 384.001zM512 800.001c194.404 0 352.001-157.598 352.001-352.002s-157.597-352.001-352.001-352.001c-194.404 0-352 157.597-352 352.001s157.596 352.002 352 352.002zM496.188 447.869l15.811 272.132 16-258.745 150.158-179.413-150.158 134.216-31.811 31.811z" />
<glyph unicode="&#xe908;" glyph-name="sandglas" data-tags="sandglas" d="M735.14 96v0.001h32.002c0.101-1.965 0.228-3.885 0.311-5.883-2.783-14.811-15.867-26.118-31.451-26.118h-448.004c-15.584 0-28.668 11.307-31.451 26.118 0.083 1.998 0.21 3.918 0.311 5.883l478.282-0.001zM512.002 256.002c75.237 0 145.409-21.651 204.65-59.049-11.976 32.888-30.855 62.726-60.136 87.54-19.769 16.754-41.704 29.537-63.556 43.238-22.759 14.273-45.165 29.625-60.74 52.011-14.086 20.249-20.219 42.894-20.219 67.441 0 24.398 6.060 46.928 19.884 67.162 7.788 11.398 17.323 21.035 27.775 29.655h-95.322c10.452-8.62 19.987-18.257 27.775-29.655 13.824-20.234 19.884-42.764 19.884-67.162 0-24.546-6.133-47.192-20.219-67.441-15.575-22.386-37.98-37.738-60.74-52.011-21.851-13.701-43.786-26.485-63.556-43.238-29.283-24.816-48.162-54.655-60.138-87.546 59.242 37.4 129.416 59.055 204.657 59.055zM714.415 160c-57.256 40.316-127.065 64.003-202.413 64.003s-145.156-23.687-202.413-64.003h404.826zM417.775 576h188.451c17.26 10.942 34.294 21.929 49.973 35.356 39.882 34.148 60.605 77.15 70.834 124.645h-430.066c10.229-47.495 30.952-90.497 70.834-124.645 15.679-13.427 32.714-24.413 49.973-35.356zM738.27 128.001v-0.001l-478.814 0.001c28.167 244.785 220.542 197.164 220.542 319.182 0 121.927-192.207 77.469-220.507 320.819h505.018c-28.3-243.351-220.507-198.893-220.507-320.819 0-122.018 192.375-74.397 220.542-319.182h-26.274zM256.867 800.002c-0.103 1.972-0.232 3.899-0.316 5.905 2.793 14.798 15.865 26.093 31.447 26.093h448.004c15.582 0 28.654-11.295 31.447-26.093-0.084-2.006-0.213-3.933-0.316-5.905h-510.265z" />
<glyph unicode="&#xe909;" glyph-name="briefcase" data-tags="briefcase" d="M128 160.001v447.998c0 17.601 14.404 32 32 32 234.671 0 469.332 0 704 0 17.596 0 32-14.421 32-32v-447.998c0-17.58-14.404-32-32-32-150.516 0-537.727 0-704 0-17.596 0-32 14.399-32 32zM607.999 672.001l0.001 63.996h-192.001v-63.995h-31.999v63.997c0 17.601 14.404 32 32 32h192c17.596 0 32-14.432 32-32l-0.001-63.998h-32zM800.001 607.997v-447.994h63.999v447.994h-63.999zM768 160.003v447.994h-511.999v-447.994h511.999zM224 160.003v447.994h-64.001v-447.994h64.001z" />
<glyph unicode="&#xe90a;" glyph-name="bookmark" data-tags="bookmark" d="M736 799.91v-665.389l-224 196.001-224-196.001v665.421c0.016 0.020 0.038 0.042 0.058 0.058h447.854c0.031-0.026 0.063-0.059 0.088-0.090zM768 800c0 17.525-14.403 32-32 32h-448c-17.597 0-32-14.399-32-32v-736l256 224.001 256-224.001v736z" />
<glyph unicode="&#xe90b;" glyph-name="cap-academic" data-tags="cap-academic" d="M125.97 575.999l386.031 160.001 386.030-160.001-386.031-224.001-386.030 224.001zM317.975 427.588v-133.191c0-2.992 0.268-5.974 0.798-8.919 5.055-28.11 32.749-49.917 56.333-62.702 40.146-21.763 89.558-30.777 134.865-30.777s94.721 9.015 134.867 30.777c23.585 12.786 51.279 34.593 56.334 62.703 0.529 2.945 0.798 5.927 0.798 8.918l0.002 130.839 32.001 18.569v-149.408h-0.006c0-74.227-100.286-134.398-223.996-134.398s-223.996 60.171-223.996 134.398v151.76l32-18.569zM197.985 571.208l314.015-182.213 314.016 182.213-314.015 130.152-314.016-130.152zM829.972 287.998l-16.001 15.998-16-15.998v192.943l32.001 18.569v-211.512z" />
<glyph unicode="&#xe90c;" glyph-name="support" data-tags="support" d="M307.557 573.452c9.886 15.985 21.362 30.883 34.729 44.251 13.363 13.36 28.253 24.84 44.237 34.724l-76.815 102.451c-42.761-27.082-75.887-63.076-104.097-104.967l101.946-76.459zM716.434 322.546c-9.886-15.985-21.362-30.883-34.729-44.251-13.363-13.36-28.253-24.84-44.237-34.724l76.815-102.451c42.761 27.082 75.887 63.076 104.097 104.967l-101.946 76.459zM848.756 263.307l2.486-1.866c0.272-0.201 0.441-0.341 0.69-0.562 0.211-0.189 0.422-0.383 0.627-0.589 4.431-4.427 5.263-11.091 2.5-16.359-0.386-0.734-0.891-1.544-1.339-2.247-35.647-56.325-78.538-103.497-137.287-136.547-5.324-2.998-12.194-2.23-16.725 2.301-0.162 0.16-0.318 0.325-0.467 0.492-0.325 0.354-0.525 0.61-0.816 0.997l-1.734 2.314c-114.678-62.954-254.693-62.951-369.375 0.012l-1.875-2.501c-0.203-0.271-0.344-0.442-0.564-0.689-0.188-0.212-0.385-0.423-0.589-0.628-4.429-4.428-11.091-5.262-16.359-2.5-0.734 0.385-1.544 0.893-2.25 1.34-56.321 35.645-103.492 78.538-136.545 137.289-2.997 5.323-2.229 12.193 2.302 16.724 0.161 0.161 0.326 0.316 0.493 0.467 0.352 0.319 0.61 0.523 0.996 0.812l2.327 1.744c-62.964 114.681-62.959 254.689-0.002 369.369l-2.499 1.875c-0.272 0.201-0.441 0.341-0.69 0.562-0.211 0.189-0.422 0.383-0.627 0.589-4.431 4.427-5.263 11.091-2.5 16.359 0.386 0.734 0.891 1.544 1.339 2.247 35.647 56.325 78.538 103.497 137.287 136.547 5.324 2.998 12.194 2.23 16.725-2.301 0.162-0.16 0.318-0.325 0.467-0.492 0.325-0.354 0.525-0.61 0.816-0.997l1.738-2.319c114.681 62.958 254.695 62.964 369.378 0.001l1.87 2.492c0.201 0.272 0.341 0.441 0.562 0.69 0.189 0.211 0.383 0.422 0.589 0.627 4.427 4.431 11.091 5.263 16.359 2.5 0.734-0.386 1.544-0.891 2.247-1.339 56.325-35.647 103.497-78.538 136.547-137.287 2.998-5.324 2.23-12.194-2.301-16.725-0.16-0.162-0.325-0.318-0.492-0.467-0.354-0.325-0.61-0.525-0.997-0.816l-2.319-1.738c62.964-114.682 62.963-254.702 0.007-369.382zM599.315 241.669c-3.236 6.909-1.142 15.346 5.32 19.874 0.467 0.322 0.938 0.618 1.42 0.887 19.115 9.687 37.043 22.516 53.023 38.492 15.975 15.977 28.802 33.911 38.494 53.025 0.264 0.48 0.56 0.952 0.882 1.412 4.526 6.463 12.968 8.556 19.876 5.322 23.538 55.684 23.536 118.952-0.007 174.636-6.907-3.234-15.341-1.146-19.871 5.322-0.322 0.467-0.618 0.938-0.887 1.42-9.687 19.115-22.516 37.043-38.492 53.023-15.977 15.975-33.911 28.802-53.025 38.494-0.48 0.264-0.952 0.56-1.412 0.882-6.461 4.525-8.556 12.962-5.325 19.87-55.685 23.542-118.954 23.544-174.637 0.007 3.238-6.91 1.144-15.35-5.318-19.879-0.467-0.322-0.938-0.618-1.42-0.887-19.115-9.687-37.043-22.516-53.023-38.492-15.975-15.977-28.802-33.911-38.494-53.025-0.264-0.48-0.56-0.952-0.882-1.412-4.527-6.465-12.967-8.557-19.876-5.322-23.541-55.685-23.545-118.953-0.001-174.639 6.91 3.237 15.352 1.142 19.878-5.321 0.323-0.462 0.62-0.935 0.887-1.417 9.689-19.113 22.516-37.045 38.493-53.022s33.911-28.806 53.028-38.496c0.479-0.266 0.95-0.561 1.409-0.882 6.463-4.526 8.557-12.968 5.323-19.877 55.685-23.542 118.952-23.537 174.637 0.005zM637.449 652.438c15.985-9.886 30.883-21.362 44.251-34.729 13.36-13.363 24.84-28.253 34.724-44.237l102.451 76.815c-27.082 42.761-63.076 75.887-104.967 104.097l-76.459-101.946zM386.545 243.56c-15.987 9.886-30.885 21.362-44.253 34.731-13.362 13.362-24.84 28.252-34.724 44.233l-102.451-76.814c27.085-42.761 63.076-75.887 104.97-104.096l76.458 101.946zM201.125 613.276c-54.819-103.022-54.822-227.539 0.003-330.561l78.109 58.564c-30.967 67.571-30.969 145.85-0.009 213.421l-78.103 58.576zM405.277 680.756c67.569 30.966 145.847 30.969 213.419 0.009l58.575 78.103c-103.022 54.818-227.537 54.823-330.557-0.002l58.564-78.11zM744.753 554.719c30.966-67.568 30.969-145.846 0.009-213.42zM744.963 341.15l77.905-58.428c54.822 103.022 54.815 227.538-0.006 330.559l-78.109-58.562zM618.718 215.24c-67.569-30.967-145.849-30.971-213.422-0.009l-58.577-78.106c103.023-54.823 227.54-54.816 330.562 0.005l-58.563 78.11z" />
<glyph unicode="&#xe90d;" glyph-name="camera" data-tags="camera" d="M768.001 623.998c-17.673 0-32-14.327-32-32s14.327-32 32-32c17.673 0 32 14.327 32 32s-14.327 32-32 32zM128 159.999v512.001c0 17.601 14.408 32 32 32h150.4l9.6 32c5.058 16.858 14.408 32 32 32h320c17.592 0 26.956-15.187 32-32l9.6-32h150.4c17.592 0 32-14.417 32-32v-512.001c0-17.582-14.41-32-32-32h-704c-17.59 0-32 14.399-32 32zM160 160.058c0.017-0.020 0.039-0.042 0.059-0.059h703.876c0.022 0.018 0.046 0.043 0.065 0.066v511.869c-0.018 0.023-0.043 0.047-0.067 0.067h-174.142l-16.441 54.804c-0.616 2.053-2.186 6.621-3.794 9.196h-315.118c-1.605-2.576-3.172-7.143-3.788-9.196l-16.441-54.804h-174.149c-0.020-0.017-0.043-0.039-0.060-0.060v-511.881zM512 672c-123.713 0-224.001-100.289-224.001-224s100.289-224 224.001-224c123.713 0 224.001 100.289 224.001 224s-100.289 224-224.001 224zM512 640.001c106.041 0 192.002-85.961 192.002-191.999 0-106.040-85.961-192.001-192.002-192.001-106.039 0-192 85.961-192 192.001 0 106.038 85.961 191.999 192 191.999z" />
<glyph unicode="&#xe90e;" glyph-name="camera-front" data-tags="camera-front" d="M694.627 85.489l-22.628 22.628 51.881 51.881h-563.88c-17.59 0-32 14.399-32 32v512.001c0 17.601 14.408 32 32 32h50.742l-32-32h-18.682c-0.020-0.017-0.043-0.039-0.060-0.060v-511.881c0.017-0.020 0.039-0.042 0.059-0.059h563.827l-51.886 51.886 22.627 22.627 90.511-90.511-90.511-90.511zM784.001 639.997c-8.836 0-16-7.164-16-16s7.164-16 16-16c8.837 0 16 7.163 16 16s-7.163 16-16 16zM512 640c-106.039 0-192-85.961-192-191.999 0-106.040 85.961-192.001 192-192.001 106.041 0 192.002 85.961 192.002 192.001 0 106.038-85.961 191.999-192.002 191.999zM512 608c88.367 0 160.002-71.635 160.002-160.001s-71.635-160.001-160.002-160.001c-88.367 0-160.002 71.635-160.002 160.001s71.635 160.001 160.002 160.001zM330.51 629.489l-90.511 90.511 90.511 90.511 22.627-22.627-51.885-51.885h562.747c17.592 0 32-14.418 32-32v-512.001c0-17.582-14.41-32-32-32h-18.742l-32 32h50.678c0.022 0.018 0.046 0.043 0.065 0.066v511.869c-0.018 0.023-0.043 0.047-0.067 0.067h-562.677l51.882-51.882-22.628-22.628z" />
<glyph unicode="&#xe90f;" glyph-name="camera-selfi" data-tags="camera-selfi" d="M672.002 447.998h32c-0.002-106.039-85.962-191.998-192.002-191.998-106.038 0-191.998 85.959-192 191.998h31.998c0.001-88.366 71.635-160 160.002-160s160.001 71.634 160.002 160zM694.627 85.489l-22.628 22.628 51.881 51.881h-563.88c-17.59 0-32 14.399-32 32v512.001c0 17.601 14.408 32 32 32h50.742l-32-32h-18.682c-0.020-0.017-0.043-0.039-0.060-0.060v-511.881c0.017-0.020 0.039-0.042 0.059-0.059h563.827l-51.886 51.886 22.627 22.627 90.511-90.511-90.511-90.511zM330.51 629.489l22.628 22.628-51.882 51.882h562.677c0.024-0.019 0.048-0.044 0.067-0.067v-511.869c-0.018-0.023-0.043-0.047-0.065-0.066h-50.678l32-32h18.742c17.59 0 32 14.418 32 32v512.001c0 17.582-14.408 32-32 32h-562.747l51.885 51.885-22.627 22.627-90.511-90.511 90.511-90.511zM432.001 543.997c-8.836 0-16-7.164-16-16s7.164-16 16-16c8.837 0 16 7.163 16 16s-7.163 16-16 16zM432.001 576c26.513 0 48.003-21.493 48.003-48.003 0-26.513-21.49-48.003-48.003-48.003-26.51 0-48.003 21.49-48.003 48.003 0 26.51 21.493 48.003 48.003 48.003zM592.001 543.997c-8.836 0-16-7.164-16-16s7.164-16 16-16c8.837 0 16 7.163 16 16s-7.163 16-16 16zM592.001 576c26.513 0 48.003-21.493 48.003-48.003 0-26.513-21.49-48.003-48.003-48.003-26.51 0-48.003 21.49-48.003 48.003 0 26.51 21.493 48.003 48.003 48.003z" />
<glyph unicode="&#xe910;" glyph-name="camera-plus" data-tags="camera-plus" d="M465.499 478.999c-77.047 0-139.506-62.459-139.506-139.505 0-77.048 62.459-139.507 139.506-139.507 77.049 0 139.508 62.459 139.508 139.507 0 77.046-62.459 139.505-139.508 139.505zM465.484 509.966c94.16 0 170.491-76.331 170.491-170.49s-76.331-170.49-170.491-170.49c-94.16 0-170.491 76.331-170.491 170.49s76.331 170.49 170.491 170.49zM170.994 107.043c0.017-0.019 0.038-0.040 0.057-0.057h588.86c0.020 0.018 0.044 0.042 0.062 0.063v402.853c-0.018 0.022-0.042 0.046-0.065 0.065h-168.701l-15.927 53.092c-0.597 1.989-2.118 6.413-3.675 8.908h-212.251c-1.554-2.495-3.073-6.92-3.669-8.908l-15.927-53.092h-168.707c-0.019-0.016-0.041-0.038-0.058-0.058v-402.865zM139.994 106.985v402.981c0 17.051 13.957 31 31 31h145.7l9.3 31.001c4.899 16.331 13.958 31 31.001 31h216.979c17.042 0 26.116-14.718 31.001-31l9.3-31.001h145.7c17.042 0 31-13.972 31-31v-402.981c0-17.026-13.965-31-31-31h-588.98c-17.034 0-31 13.949-31 31zM713.495 447.98c-8.562 0-15.501 6.94-15.501 15.5 0 8.562 6.94 15.501 15.501 15.501s15.5-6.94 15.5-15.501c0-8.561-6.94-15.5-15.5-15.5zM791.006 820.013h31.002v-61.999h61.999v-31.002h-61.999v-62h-31.002v62h-62v31.002h62v61.999z" />
<glyph unicode="&#xe911;" glyph-name="analytics-bars" data-tags="analytics-bars" d="M160 736.001v-576h704.001v576c-234.666 0.002-469.333 0-704.001 0zM160 768c234.666 0 469.334 0 704.001 0 17.598 0 32-14.421 32-32v-576c0-17.58-14.42-32-32-32h-704.001c-17.58 0-32 14.399-32 32v576c0 17.601 14.399 32 32 32zM736.001 640.001h32v-384.002h-32v384.002zM575.999 480.001h34.999v-224h-34.999v224zM416.001 543.999h35v-287.998h-35v287.998zM255.999 383.999h35v-127.998h-35v127.998z" />
<glyph unicode="&#xe912;" glyph-name="analytics-bars2" data-tags="analytics-bars2" d="M255.999 447.999h35v-319.998h-35v319.998zM416.001 607.999h35v-479.998h-35v479.998zM575.999 544.001h34.999v-416h-34.999v416zM736.001 768.001h32v-640.002h-32v640.002z" />
<glyph unicode="&#xe913;" glyph-name="analytics-pie" data-tags="analytics-pie" d="M512 832c212.078 0 384-171.923 384-384.001s-171.922-384-384-384c-212.078 0-383.999 171.922-383.999 384s171.921 384.001 383.999 384.001zM512.001 447.999v352.002h-0.001c-194.404 0-352-157.598-352-352.002s157.596-352.001 352-352.001c97.202 0 185.205 39.397 248.903 103.098l-248.902 248.903zM557.25 448.001l225.243-225.242c50.884 61.041 81.508 139.56 81.508 225.24v0.002h-306.751zM544.001 479.999h318.537c-15.221 168.863-149.678 303.316-318.537 318.539v-318.539z" />
<glyph unicode="&#xe914;" glyph-name="analytics" data-tags="analytics" d="M160 768c234.666 0 469.334 0 704.001 0 17.598 0 32-14.421 32-32v-576c0-17.58-14.42-32-32-32h-704.001c-17.58 0-32 14.399-32 32v576c0 17.601 14.399 32 32 32zM752 544c-8.837 0-16.001-7.164-16.001-16.001s7.164-16.001 16.001-16.001c8.837 0 16.001 7.164 16.001 16.001s-7.164 16.001-16.001 16.001zM400 448c-8.837 0-16.001-7.164-16.001-16.001s7.164-16.001 16.001-16.001c8.837 0 16.001 7.164 16.001 16.001s-7.164 16.001-16.001 16.001zM528 320c-8.837 0-16.001-7.164-16.001-16.001s7.164-16.001 16.001-16.001c8.837 0 16.001 7.164 16.001 16.001s-7.164 16.001-16.001 16.001zM752 575.999c26.509 0 48-21.49 48-48s-21.491-48.001-48-48.001c-7.418 0-14.442 1.682-20.711 4.687l0.017-0.008-159.994-159.963c3.005-6.27 4.688-13.297 4.688-20.714 0-26.51-21.491-48.001-48-48.001s-47.999 21.491-47.999 48.001c0 7.41 1.679 14.427 4.678 20.693l-63.985 63.985c-6.266-2.998-13.283-4.679-20.693-4.679-7.418 0-14.442 1.682-20.712 4.687l0.017-0.008-132.677-132.678h-45.255l155.312 155.288c-3.005 6.27-4.687 13.295-4.687 20.712 0 26.51 21.491 48 48.001 48 26.508 0 47.999-21.49 47.999-48 0-7.411-1.68-14.428-4.68-20.695l63.985-63.985c6.266 2.999 13.284 4.68 20.695 4.68s14.427-1.681 20.695-4.68l159.985 159.986c-2.998 6.267-4.679 13.283-4.679 20.694 0 26.51 21.49 48 47.999 48zM160 736.001v-576h704.001v576c-234.666 0.002-469.333 0-704.001 0z" />
<glyph unicode="&#xe915;" glyph-name="app-icon-badge" data-tags="app-icon-badge" d="M224 736.001l447.999 0.001c0 11.049 1.399 21.77 4.031 31.998h-452.030c-17.601 0-32-14.399-32-32v-576c0-17.601 14.432-32 32-32h576.001c17.568 0 32 14.432 32 32v452.033c-10.228-2.633-20.95-4.033-32-4.033v-447.999h-576.001v576zM800.001 832c-53.020 0-96-42.98-96-95.999s42.98-95.999 96-95.999c53.020 0 96 42.98 96 95.999s-42.98 95.999-96 95.999zM800.001 800.001c35.346 0 64.001-28.654 64.001-64s-28.655-64-64.001-64c-35.346 0-64.001 28.654-64.001 64s28.655 64 64.001 64z" />
<glyph unicode="&#xe916;" glyph-name="arrow1-up" data-tags="arrow1-up" d="M495.999 613.019v-388.446c10.653-0.758 21.347-0.757 32 0v388.445l165.020-165.014 22.628 22.625-203.647 203.646-203.647-203.646 22.626-22.629 165.020 165.019z" />
<glyph unicode="&#xe917;" glyph-name="arrow1-down" data-tags="arrow1-down" d="M495.999 282.981v388.446c10.653 0.758 21.347 0.757 32 0v-388.445l165.020 165.014 22.628-22.625-203.647-203.646-203.647 203.646 22.626 22.629 165.020-165.019z" />
<glyph unicode="&#xe918;" glyph-name="arrow1-right" data-tags="arrow1-right" d="M677.019 464.001h-388.446c-0.758-10.653-0.757-21.347 0-32h388.445l-165.014-165.020 22.625-22.628 203.646 203.647-203.646 203.647-22.629-22.626 165.019-165.020z" />
<glyph unicode="&#xe919;" glyph-name="arrow1-left" data-tags="arrow1-left" d="M346.981 464.001h388.446c0.758-10.653 0.757-21.347 0-32h-388.445l165.014-165.020-22.625-22.628-203.646 203.647 203.646 203.647 22.629-22.626-165.019-165.020z" />
<glyph unicode="&#xe91a;" glyph-name="arrow1-up-right" data-tags="arrow1-up-right" d="M617.371 576l-274.673-274.673c6.996-8.068 14.559-15.63 22.627-22.627l274.672 274.672 0.004-233.369 31.999-0.002v288h-288l-0.002-32 233.373-0.001z" />
<glyph unicode="&#xe91b;" glyph-name="arrow1-down-right" data-tags="arrow1-down-right" d="M617.371 320l-274.673 274.673c6.996 8.068 14.559 15.63 22.627 22.627l274.672-274.672 0.004 233.369 31.999 0.002v-288h-288l-0.002 32 233.373 0.001z" />
<glyph unicode="&#xe91c;" glyph-name="arrow1-down-left" data-tags="arrow1-down-left" d="M406.629 320l274.673 274.673c-6.996 8.068-14.559 15.63-22.627 22.627l-274.672-274.672-0.004 233.369-31.999 0.002v-288h288l0.002 32-233.373 0.001z" />
<glyph unicode="&#xe91d;" glyph-name="arrow1-up-left" data-tags="arrow1-up-left" d="M406.629 576l274.673-274.673c-6.996-8.068-14.559-15.63-22.627-22.627l-274.672 274.672-0.004-233.369-31.999-0.002v288h288l0.002-32-233.373-0.001z" />
<glyph unicode="&#xe91e;" glyph-name="arrow2-up" data-tags="arrow2-up" d="M512 538.51l-181.019-181.021-22.627 22.625 203.646 203.647 203.647-203.647-22.626-22.628z" />
<glyph unicode="&#xe91f;" glyph-name="arrow2-down" data-tags="arrow2-down" d="M512 357.49l-181.019 181.021-22.627-22.625 203.646-203.647 203.647 203.647-22.626 22.628z" />
<glyph unicode="&#xe920;" glyph-name="arrow2-right" data-tags="arrow2-right" d="M602.51 448l-181.021-181.019 22.625-22.627 203.647 203.646-203.647 203.647-22.628-22.626z" />
<glyph unicode="&#xe921;" glyph-name="arrow2-left" data-tags="arrow2-left" d="M421.49 448l181.021-181.019-22.625-22.627-203.647 203.646 203.647 203.647 22.628-22.626z" />
<glyph unicode="&#xe922;" glyph-name="arrow2-up-right" data-tags="arrow2-up-right" d="M576.036 512.003l-256-0.002-0.002 31.999h288v-288l-32-0.002z" />
<glyph unicode="&#xe923;" glyph-name="arrow2-down-right" data-tags="arrow2-down-right" d="M576.036 383.997l-256 0.002-0.002-31.999h288v288l-32 0.002z" />
<glyph unicode="&#xe924;" glyph-name="arrow2-down-left" data-tags="arrow2-down-left" d="M447.964 383.997l256 0.002 0.002-31.999h-288v288l32 0.002z" />
<glyph unicode="&#xe925;" glyph-name="arrow2-up-left" data-tags="arrow2-up-left" d="M447.964 512.003l256-0.002 0.002 31.999h-288v-288l32-0.002z" />
<glyph unicode="&#xe926;" glyph-name="arrow3-up" data-tags="arrow3-up" d="M512 506.511l90.509-90.51h45.252l-135.762 135.761-135.761-135.761h45.253z" />
<glyph unicode="&#xe927;" glyph-name="arrow3-down" data-tags="arrow3-down" d="M512 389.489l90.509 90.51h45.252l-135.762-135.761-135.761 135.761h45.253z" />
<glyph unicode="&#xe928;" glyph-name="arrow3-right" data-tags="arrow3-right" d="M570.511 448l-90.51 90.509v45.252l135.761-135.762-135.761-135.761v45.253z" />
<glyph unicode="&#xe929;" glyph-name="arrow3-left" data-tags="arrow3-left" d="M453.489 448l90.51 90.509v45.252l-135.761-135.762 135.761-135.761v45.253z" />
<glyph unicode="&#xe92a;" glyph-name="plus" data-tags="plus" d="M288.58 431.999l207.42 0.001v-207.42c5.286-0.374 10.619-0.575 16-0.575s10.715 0.202 16.001 0.575l-0.001 207.42 207.42 0.001c0.374 5.286 0.575 10.619 0.575 15.999s-0.202 10.714-0.575 16h-207.42l-0.001 207.42c-5.286 0.374-10.619 0.575-15.999 0.575s-10.714-0.202-16-0.575v-207.42h-207.42c-0.374-5.286-0.575-10.619-0.575-16s0.202-10.715 0.575-16.001z" />
<glyph unicode="&#xe92b;" glyph-name="minus" data-tags="minus" d="M288.58 431.999l446.841 0.002c0.374 5.286 0.575 10.619 0.575 15.999s-0.202 10.714-0.575 16h-446.841c-0.374-5.286-0.575-10.619-0.575-16s0.202-10.715 0.575-16.001z" />
<glyph unicode="&#xe92c;" glyph-name="close" data-tags="close" d="M365.334 278.703l146.668 146.67 146.669-146.669c4.002 3.473 7.916 7.101 11.721 10.907 3.804 3.804 7.432 7.718 10.906 11.72l-146.668 146.67 146.668 146.67c-3.473 4.002-7.101 7.916-10.906 11.72s-7.719 7.433-11.721 10.907l-146.669-146.669-146.668 146.67c-4.002-3.473-7.917-7.102-11.722-10.908s-7.433-7.719-10.907-11.721l146.669-146.669-146.669-146.669c3.473-4.002 7.101-7.916 10.907-11.721s7.72-7.434 11.722-10.908z" />
<glyph unicode="&#xe92d;" glyph-name="checked" data-tags="checked" d="M495.999 322.743l262.232 262.23-22.23 23.026-240.002-240-127.998 128.002c-4.003-3.473-7.917-7.101-11.721-10.907-3.805-3.804-7.433-7.718-10.907-11.72 50.209-50.211 100.415-100.424 150.625-150.631z" />
<glyph unicode="&#xe92e;" glyph-name="information" data-tags="information" d="M512 671.999c17.673 0 32-14.327 32-31.999 0-17.674-14.327-32-32-32s-31.999 14.326-31.999 32c0 17.672 14.327 31.999 31.999 31.999zM496.002 576.001h32v-351.303c-5.285-0.461-10.621-0.697-16.002-0.697-5.38 0-10.714 0.237-15.998 0.697v351.303z" />
<glyph unicode="&#xe92f;" glyph-name="exclamation" data-tags="exclamation" d="M512 224.001c17.673 0 32 14.327 32 31.999 0 17.674-14.327 32-32 32s-31.999-14.326-31.999-32c0-17.672 14.327-31.999 31.999-31.999zM496.002 319.999h32v351.303c-5.285 0.461-10.621 0.697-16.002 0.697-5.38 0-10.714-0.237-15.998-0.697v-351.303z" />
<glyph unicode="&#xe930;" glyph-name="question" data-tags="question" d="M523.521 223.999c17.673 0 32 14.327 32 31.999 0 17.674-14.327 32-32 32s-31.999-14.326-31.999-32c0-17.672 14.327-31.999 31.999-31.999zM376.29 617.414l24.116-24.116c12.283 10.179 25.705 18.855 40.199 25.767 26.058 12.426 55.252 19.009 84.118 19.009 32.999 0 77.867-15.739 87.497-50.971 1.033-3.775 1.563-7.668 1.563-11.582 0-12.863-2.757-25.092-11.945-34.655-17.326-18.026-56.007-23.836-80.114-28.165-33.206-5.966-74.154-12.637-98.576-38.049-15.393-16.017-21.411-36.281-21.411-58.166 0-6.935 0.936-13.843 2.765-20.532 13.93-50.952 71.281-75.949 120.222-75.949 25.865 0 53.649 6.912 76.315 20.684l-24.956 24.956c-15.882-7.669-34.848-11.711-51.359-11.711-32.999 0-77.867 15.739-87.497 50.971-1.032 3.775-1.562 7.668-1.562 11.582 0 12.863 2.756 25.092 11.945 34.655 17.326 18.026 56.007 23.836 80.114 28.165 33.206 5.966 74.153 12.637 98.575 38.049 15.393 16.017 21.411 36.281 21.411 58.166 0 6.934-0.935 13.842-2.764 20.53-13.93 50.953-71.283 75.951-120.223 75.951-33.913 0-68.107-7.716-98.719-22.313-17.972-8.57-34.638-19.411-49.714-32.274z" />
<glyph unicode="&#xe931;" glyph-name="arrow1-up-half" data-tags="arrow1-up-half" d="M240.47 176.47c149.962-149.962 393.099-149.96 543.060 0.001s149.961 393.096-0.001 543.058c-149.96 149.961-393.096 149.961-543.056 0-149.962-149.962-149.963-393.098-0.003-543.059zM263.098 199.095c-137.464 137.466-137.464 360.34 0.001 497.806 137.465 137.463 360.339 137.463 497.805 0 137.463-137.466 137.463-360.339-0.001-497.804-137.466-137.465-360.339-137.465-497.805-0.002zM496 613.018v-388.446c10.653-0.758 21.347-0.757 32 0v388.445l165.020-165.014 22.628 22.625-203.647 203.646-203.647-203.646 22.626-22.629 165.020 165.019z" />
<glyph unicode="&#xe932;" glyph-name="arrow1-down-half" data-tags="arrow1-down-half" d="M240.47 719.53c149.962 149.962 393.099 149.96 543.060-0.001s149.961-393.096-0.001-543.058c-149.96-149.961-393.096-149.961-543.056 0-149.962 149.962-149.963 393.098-0.003 543.059zM263.098 696.905c-137.464-137.466-137.464-360.34 0.001-497.806 137.465-137.463 360.339-137.463 497.805 0 137.463 137.466 137.463 360.339-0.001 497.804-137.466 137.465-360.339 137.465-497.805 0.002zM496 282.982v388.446c10.653 0.758 21.347 0.757 32 0v-388.445l165.020 165.014 22.628-22.625-203.647-203.646-203.647 203.646 22.626 22.629 165.020-165.019z" />
<glyph unicode="&#xe933;" glyph-name="arrow1-right-half" data-tags="arrow1-right-half" d="M240.471 176.471c-149.962 149.962-149.96 393.099 0.001 543.060s393.096 149.961 543.058-0.001c149.961-149.96 149.961-393.096 0-543.056-149.962-149.962-393.098-149.963-543.059-0.003zM263.096 199.099c137.466-137.464 360.34-137.464 497.806 0.001 137.463 137.465 137.463 360.339 0 497.805-137.466 137.463-360.339 137.463-497.804-0.001-137.465-137.466-137.465-360.339-0.002-497.805zM677.019 432.001h-388.446c-0.758 10.653-0.757 21.347 0 32h388.445l-165.014 165.020 22.625 22.628 203.646-203.647-203.646-203.647-22.629 22.626 165.019 165.020z" />
<glyph unicode="&#xe934;" glyph-name="arrow1-left-half" data-tags="arrow1-left-half" d="M783.529 176.471c149.962 149.962 149.96 393.099-0.001 543.060s-393.096 149.961-543.058-0.001c-149.961-149.96-149.961-393.096 0-543.056 149.962-149.962 393.098-149.963 543.059-0.003zM760.904 199.099c-137.466-137.464-360.34-137.464-497.806 0.001-137.463 137.465-137.463 360.339 0 497.805 137.466 137.463 360.339 137.463 497.804-0.001 137.465-137.466 137.465-360.339 0.002-497.805zM346.981 432.001h388.446c0.758 10.653 0.757 21.347 0 32h-388.445l165.014 165.020-22.625 22.628-203.646-203.647 203.646-203.647 22.629 22.626-165.019 165.020z" />
<glyph unicode="&#xe935;" glyph-name="arrow1-up-right-half" data-tags="arrow1-up-right-half" d="M512 64c-212.079 0-384.001 171.926-384.001 384.002s171.922 383.999 384.001 383.999c212.076 0.001 383.999-171.922 383.998-383.998 0-212.079-171.922-384.002-383.998-384.003zM511.998 95.999c194.404 0.002 352 157.598 352.001 352.003-0.001 194.403-157.598 351.999-352.001 352.001-194.404-0.002-352-157.597-352-352.001 0-194.405 157.596-352.001 352-352.003zM639.999 553.373l-274.674-274.673c-8.068 6.996-15.629 14.559-22.627 22.627l274.673 274.672-233.369 0.005-0.003 31.999 288-0.001 0.001-288-32.001-0.002v233.373z" />
<glyph unicode="&#xe936;" glyph-name="arrow1-down-right-half" data-tags="arrow1-down-right-half" d="M512 832.002c-212.079 0-384.001-171.926-384.001-384.002s171.922-383.999 384.001-383.999c212.076-0.001 383.999 171.922 383.998 383.998 0 212.079-171.922 384.002-383.998 384.003zM511.998 800.003c194.404-0.002 352-157.598 352.001-352.003-0.001-194.403-157.598-351.999-352.001-352.001-194.404 0.002-352 157.597-352 352.001s157.596 352.001 352 352.003zM639.999 342.629l-274.674 274.673c-8.068-6.996-15.629-14.559-22.627-22.627l274.673-274.672-233.369-0.005-0.003-31.999 288 0.001 0.001 288-32.001 0.002v-233.373z" />
<glyph unicode="&#xe937;" glyph-name="arrow1-down-left-half" data-tags="arrow1-down-left-half" d="M511.998 832.002c212.079 0 384.001-171.926 384.001-384.002s-171.922-383.999-384.001-383.999c-212.076-0.001-383.999 171.922-383.998 383.998 0 212.079 171.922 384.002 383.998 384.003zM512 800.003c-194.404-0.002-352-157.598-352.001-352.003 0.001-194.403 157.598-351.999 352.001-352.001 194.404 0.002 352 157.597 352 352.001s-157.596 352.001-352 352.003zM383.999 342.629l274.674 274.673c8.068-6.996 15.629-14.559 22.627-22.627l-274.673-274.672 233.369-0.005 0.003-31.999-288 0.001-0.001 288 32.001 0.002v-233.373z" />
<glyph unicode="&#xe938;" glyph-name="arrow1-up-left-half" data-tags="arrow1-up-left-half" d="M511.998 64c212.079 0 384.001 171.926 384.001 384.002s-171.922 383.999-384.001 383.999c-212.076 0.001-383.999-171.922-383.998-383.998 0-212.079 171.922-384.002 383.998-384.003zM512 95.999c-194.404 0.002-352 157.598-352.001 352.003 0.001 194.403 157.598 351.999 352.001 352.001 194.404-0.002 352-157.597 352-352.001 0-194.405-157.596-352.001-352-352.003zM383.999 553.373l274.674-274.673c8.068 6.996 15.629 14.559 22.627 22.627l-274.673 274.672 233.369 0.005 0.003 31.999-288-0.001-0.001-288 32.001-0.002v233.373z" />
<glyph unicode="&#xe939;" glyph-name="arrow2-up-half" data-tags="arrow2-up-half" d="M240.47 176.47c149.962-149.962 393.099-149.96 543.060 0.001s149.961 393.096-0.001 543.058c-149.96 149.961-393.096 149.961-543.056 0-149.962-149.962-149.963-393.098-0.003-543.059zM263.098 199.095c-137.464 137.466-137.464 360.34 0.001 497.806 137.465 137.463 360.339 137.463 497.805 0 137.463-137.466 137.463-360.339-0.001-497.804-137.466-137.465-360.339-137.465-497.805-0.002zM512 538.509l-181.019-181.021-22.627 22.625 203.646 203.647 203.647-203.647-22.626-22.628-181.021 181.024z" />
<glyph unicode="&#xe93a;" glyph-name="arrow2-down-half" data-tags="arrow2-down-half" d="M240.47 719.53c149.962 149.962 393.099 149.96 543.060-0.001s149.961-393.096-0.001-543.058c-149.96-149.961-393.096-149.961-543.056 0-149.962 149.962-149.963 393.098-0.003 543.059zM263.098 696.905c-137.464-137.466-137.464-360.34 0.001-497.806 137.465-137.463 360.339-137.463 497.805 0 137.463 137.466 137.463 360.339-0.001 497.804-137.466 137.465-360.339 137.465-497.805 0.002zM512 357.491l-181.019 181.021-22.627-22.625 203.646-203.647 203.647 203.647-22.626 22.628-181.021-181.024z" />
<glyph unicode="&#xe93b;" glyph-name="arrow2-right-half" data-tags="arrow2-right-half" d="M240.471 176.471c-149.962 149.962-149.96 393.099 0.001 543.060s393.096 149.961 543.058-0.001c149.961-149.96 149.961-393.096 0-543.056-149.962-149.962-393.098-149.963-543.059-0.003zM263.096 199.099c137.466-137.464 360.34-137.464 497.806 0.001 137.463 137.465 137.463 360.339 0 497.805-137.466 137.463-360.339 137.463-497.804-0.001-137.465-137.466-137.465-360.339-0.002-497.805zM602.51 448.001l-181.021-181.019 22.625-22.627 203.647 203.646-203.647 203.647-22.628-22.626 181.024-181.021z" />
<glyph unicode="&#xe93c;" glyph-name="arrow2-left-half" data-tags="arrow2-left-half" d="M783.529 176.471c149.962 149.962 149.96 393.099-0.001 543.060s-393.096 149.961-543.058-0.001c-149.961-149.96-149.961-393.096 0-543.056 149.962-149.962 393.098-149.963 543.059-0.003zM760.904 199.099c-137.466-137.464-360.34-137.464-497.806 0.001-137.463 137.465-137.463 360.339 0 497.805 137.466 137.463 360.339 137.463 497.804-0.001 137.465-137.466 137.465-360.339 0.002-497.805zM421.49 448.001l181.021-181.019-22.625-22.627-203.647 203.646 203.647 203.647 22.628-22.626-181.024-181.021z" />
<glyph unicode="&#xe93d;" glyph-name="arrow2-up-right-half" data-tags="arrow2-up-right-half" d="M512 64c-212.079 0-384.001 171.926-384.001 384.002s171.922 383.999 384.001 383.999c212.076 0.001 383.999-171.922 383.998-383.998 0-212.079-171.922-384.002-383.998-384.003zM511.998 95.999c194.404 0.002 352 157.598 352.001 352.003-0.001 194.403-157.598 351.999-352.001 352.001-194.404-0.002-352-157.597-352-352.001 0-194.405 157.596-352.001 352-352.003zM575.999 512.001l-0.001-256 31.999-0.002v288h-288l-0.002-32 256.004 0.002z" />
<glyph unicode="&#xe93e;" glyph-name="arrow2-down-right-half" data-tags="arrow2-down-right-half" d="M512 832.002c-212.079 0-384.001-171.926-384.001-384.002s171.922-383.999 384.001-383.999c212.076-0.001 383.999 171.922 383.998 383.998 0 212.079-171.922 384.002-383.998 384.003zM511.998 800.003c194.404-0.002 352-157.598 352.001-352.003-0.001-194.403-157.598-351.999-352.001-352.001-194.404 0.002-352 157.597-352 352.001s157.596 352.001 352 352.003zM575.999 384.001l-0.001 256 31.999 0.002v-288h-288l-0.002 32 256.004-0.002z" />
<glyph unicode="&#xe93f;" glyph-name="arrow2-down-left-half" data-tags="arrow2-down-left-half" d="M511.998 832.002c212.079 0 384.001-171.926 384.001-384.002s-171.922-383.999-384.001-383.999c-212.076-0.001-383.999 171.922-383.998 383.998 0 212.079 171.922 384.002 383.998 384.003zM512 800.003c-194.404-0.002-352-157.598-352.001-352.003 0.001-194.403 157.598-351.999 352.001-352.001 194.404 0.002 352 157.597 352 352.001s-157.596 352.001-352 352.003zM447.999 384.001l0.001 256-31.999 0.002v-288h288l0.002 32-256.004-0.002z" />
<glyph unicode="&#xe940;" glyph-name="arrow2-up-left-half" data-tags="arrow2-up-left-half" d="M511.998 64c212.079 0 384.001 171.926 384.001 384.002s-171.922 383.999-384.001 383.999c-212.076 0.001-383.999-171.922-383.998-383.998 0-212.079 171.922-384.002 383.998-384.003zM512 95.999c-194.404 0.002-352 157.598-352.001 352.003 0.001 194.403 157.598 351.999 352.001 352.001 194.404-0.002 352-157.597 352-352.001 0-194.405-157.596-352.001-352-352.003zM447.999 512.001l0.001-256-31.999-0.002v288h288l0.002-32-256.004 0.002z" />
<glyph unicode="&#xe941;" glyph-name="arrow3-up-half" data-tags="arrow3-up-half" d="M511.998 506.51l-90.509-90.51h-45.253l135.761 135.761 135.762-135.761h-45.252l-90.509 90.51zM240.469 176.469c-149.962 149.962-149.96 393.099 0.001 543.060s393.096 149.961 543.058-0.001c149.961-149.96 149.961-393.096 0-543.056-149.962-149.962-393.098-149.963-543.059-0.003zM263.094 199.097c137.466-137.464 360.34-137.464 497.806 0.001 137.463 137.465 137.463 360.339 0 497.805-137.466 137.463-360.339 137.463-497.804-0.001-137.465-137.466-137.465-360.339-0.002-497.805z" />
<glyph unicode="&#xe942;" glyph-name="arrow3-down-half" data-tags="arrow3-down-half" d="M511.998 389.49l-90.509 90.51h-45.253l135.761-135.761 135.762 135.761h-45.252l-90.509-90.51zM240.469 719.531c-149.962-149.962-149.96-393.099 0.001-543.060s393.096-149.961 543.058 0.001c149.961 149.96 149.961 393.096 0 543.056-149.962 149.962-393.098 149.963-543.059 0.003zM263.094 696.903c137.466 137.464 360.34 137.464 497.806-0.001 137.463-137.465 137.463-360.339 0-497.805-137.466-137.463-360.339-137.463-497.804 0.001-137.465 137.466-137.465 360.339-0.002 497.805z" />
<glyph unicode="&#xe943;" glyph-name="arrow3-right-half" data-tags="arrow3-right-half" d="M570.511 447.999l-90.51-90.509v-45.253l135.761 135.761-135.761 135.762v-45.252l90.51-90.509zM240.47 176.47c149.962-149.962 393.099-149.96 543.060 0.001s149.961 393.096-0.001 543.058c-149.96 149.961-393.096 149.961-543.056 0-149.962-149.962-149.963-393.098-0.003-543.059zM263.098 199.095c-137.464 137.466-137.464 360.34 0.001 497.806 137.465 137.463 360.339 137.463 497.805 0 137.463-137.466 137.463-360.339-0.001-497.804-137.466-137.465-360.339-137.465-497.805-0.002z" />
<glyph unicode="&#xe944;" glyph-name="arrow3-left-half" data-tags="arrow3-left-half" d="M453.489 447.999l90.51-90.509v-45.253l-135.761 135.761 135.761 135.762v-45.252l-90.51-90.509zM783.53 176.47c-149.962-149.962-393.099-149.96-543.060 0.001s-149.961 393.096 0.001 543.058c149.96 149.961 393.096 149.961 543.056 0 149.962-149.962 149.963-393.098 0.003-543.059zM760.902 199.095c137.464 137.466 137.464 360.34-0.001 497.806-137.465 137.463-360.339 137.463-497.805 0-137.463-137.466-137.463-360.339 0.001-497.804 137.466-137.465 360.339-137.465 497.805-0.002z" />
<glyph unicode="&#xe945;" glyph-name="plus-half" data-tags="plus-half" d="M288.579 431.998c-0.374 5.286-0.575 10.62-0.575 16.001s0.202 10.714 0.575 16h207.42v207.42c5.286 0.374 10.619 0.575 16 0.575s10.713-0.202 15.999-0.575l0.001-207.42h207.42c0.374-5.286 0.575-10.619 0.575-16s-0.202-10.713-0.575-15.999l-207.42-0.001 0.001-207.42c-5.286-0.374-10.62-0.575-16.001-0.575s-10.714 0.202-16 0.575v207.42l-207.42-0.001zM240.47 176.47c149.962-149.962 393.099-149.96 543.060 0.001s149.961 393.096-0.001 543.058c-149.96 149.961-393.096 149.961-543.056 0-149.962-149.962-149.963-393.098-0.003-543.059zM263.098 199.095c-137.464 137.466-137.464 360.34 0.001 497.806 137.465 137.463 360.339 137.463 497.805 0 137.463-137.466 137.463-360.339-0.001-497.804-137.466-137.465-360.339-137.465-497.805-0.002z" />
<glyph unicode="&#xe946;" glyph-name="minus-half" data-tags="minus-half" d="M240.47 176.47c149.962-149.962 393.099-149.96 543.060 0.001s149.961 393.096-0.001 543.058c-149.96 149.961-393.096 149.961-543.056 0-149.962-149.962-149.963-393.098-0.003-543.059zM263.098 199.095c-137.464 137.466-137.464 360.34 0.001 497.806 137.465 137.463 360.339 137.463 497.805 0 137.463-137.466 137.463-360.339-0.001-497.804-137.466-137.465-360.339-137.465-497.805-0.002zM288.579 431.998l446.841 0.002c0.374 5.286 0.575 10.619 0.575 15.999s-0.202 10.714-0.575 16h-446.841c-0.374-5.286-0.575-10.619-0.575-16s0.202-10.715 0.575-16.001z" />
<glyph unicode="&#xe947;" glyph-name="checked-half" data-tags="checked-half" d="M240.47 176.47c149.962-149.962 393.099-149.96 543.060 0.001s149.961 393.096-0.001 543.058c-149.96 149.961-393.096 149.961-543.056 0-149.962-149.962-149.963-393.098-0.003-543.059zM263.098 199.095c-137.464 137.466-137.464 360.34 0.001 497.806 137.465 137.463 360.339 137.463 497.805 0 137.463-137.466 137.463-360.339-0.001-497.804-137.466-137.465-360.339-137.465-497.805-0.002zM495.999 322.742l262.232 262.23-22.23 23.026-240.002-240-127.998 128.002c-4.003-3.473-7.917-7.101-11.721-10.907-3.805-3.804-7.433-7.718-10.907-11.72 50.209-50.211 100.415-100.424 150.625-150.631z" />
<glyph unicode="&#xe948;" glyph-name="close-half" data-tags="close-half" d="M240.47 176.47c149.962-149.962 393.099-149.96 543.060 0.001s149.961 393.096-0.001 543.058c-149.96 149.961-393.096 149.961-543.056 0-149.962-149.962-149.963-393.098-0.003-543.059zM263.098 199.095c-137.464 137.466-137.464 360.34 0.001 497.806 137.465 137.463 360.339 137.463 497.805 0 137.463-137.466 137.463-360.339-0.001-497.804-137.466-137.465-360.339-137.465-497.805-0.002zM365.331 278.702l146.668 146.67 146.669-146.669c4.002 3.473 7.916 7.101 11.721 10.907 3.804 3.804 7.432 7.718 10.906 11.72l-146.668 146.67 146.668 146.67c-3.473 4.002-7.101 7.916-10.906 11.72s-7.719 7.433-11.721 10.907l-146.669-146.669-146.668 146.67c-4.002-3.473-7.917-7.102-11.722-10.908s-7.433-7.719-10.907-11.721l146.669-146.669-146.669-146.669c3.473-4.002 7.101-7.916 10.907-11.721s7.72-7.434 11.722-10.908z" />
<glyph unicode="&#xe949;" glyph-name="information-half" data-tags="information-half" d="M511.998 671.998c-17.672 0-31.999-14.327-31.999-31.999 0-17.674 14.327-32 31.999-32s32 14.326 32 32c0 17.672-14.327 31.999-32 31.999zM496 576v-351.303c5.284-0.461 10.618-0.697 15.998-0.697 5.381 0 10.717 0.237 16.002 0.697v351.303h-32zM263.098 199.095c137.466-137.463 360.339-137.463 497.805 0.002 137.464 137.465 137.464 360.338 0.001 497.804-137.466 137.463-360.34 137.463-497.805 0-137.465-137.466-137.465-360.34-0.001-497.806zM240.47 176.47c-149.96 149.961-149.959 393.097 0.003 543.059 149.96 149.961 393.096 149.961 543.056 0 149.962-149.962 149.962-393.097 0.001-543.058s-393.098-149.963-543.060-0.001z" />
<glyph unicode="&#xe94a;" glyph-name="exclamation-half" data-tags="exclamation-half" d="M263.098 199.095c137.466-137.463 360.339-137.463 497.805 0.002 137.464 137.465 137.464 360.338 0.001 497.804-137.466 137.463-360.34 137.463-497.805 0-137.465-137.466-137.465-360.34-0.001-497.806zM240.47 176.47c-149.96 149.961-149.959 393.097 0.003 543.059 149.96 149.961 393.096 149.961 543.056 0 149.962-149.962 149.962-393.097 0.001-543.058s-393.098-149.963-543.060-0.001zM511.998 224.001c17.673 0 32 14.327 32 31.999 0 17.674-14.327 32-32 32s-31.999-14.326-31.999-32c0-17.672 14.327-31.999 31.999-31.999zM496 319.999h32v351.303c-5.285 0.461-10.621 0.697-16.002 0.697-5.38 0-10.714-0.237-15.998-0.697v-351.303z" />
<glyph unicode="&#xe94b;" glyph-name="question-half" data-tags="question-half" d="M512 224.001c-17.672 0-31.999 14.327-31.999 31.999 0 17.674 14.327 32 31.999 32s32-14.326 32-32c0-17.672-14.327-31.999-32-31.999zM364.769 617.416c15.076 12.863 31.742 23.705 49.714 32.274 30.611 14.597 64.806 22.313 98.719 22.313 48.94 0 106.292-24.998 120.223-75.951 1.829-6.688 2.764-13.597 2.764-20.53 0-21.885-6.018-42.149-21.411-58.166-24.422-25.412-65.369-32.083-98.575-38.049-24.107-4.329-62.788-10.139-80.114-28.165-9.189-9.563-11.945-21.792-11.945-34.655 0-3.915 0.529-7.807 1.562-11.582 9.63-35.232 54.497-50.971 87.497-50.971 16.511 0 35.476 4.043 51.359 11.711l24.956-24.956c-22.665-13.772-50.449-20.684-76.315-20.684-48.941 0-106.291 24.997-120.222 75.949-1.829 6.689-2.765 13.598-2.765 20.532 0 21.885 6.018 42.149 21.411 58.166 24.422 25.412 65.37 32.083 98.576 38.049 24.107 4.329 62.788 10.139 80.114 28.165 9.188 9.563 11.945 21.792 11.945 34.655 0 3.915-0.529 7.807-1.563 11.582-9.63 35.232-54.497 50.971-87.497 50.971-28.866 0-58.060-6.582-84.118-19.009-14.494-6.912-27.916-15.588-40.199-25.767l-24.116 24.116zM263.098 199.095c137.466-137.463 360.339-137.463 497.805 0.002 137.464 137.465 137.464 360.338 0.001 497.804-137.466 137.463-360.34 137.463-497.805 0-137.465-137.466-137.465-360.34-0.001-497.806zM240.47 176.47c-149.96 149.961-149.959 393.097 0.003 543.059 149.96 149.961 393.096 149.961 543.056 0 149.962-149.962 149.962-393.097 0.001-543.058s-393.098-149.963-543.060-0.001z" />
<glyph unicode="&#xe94c;" glyph-name="arrow1-up-circle" data-tags="arrow1-up-circle" d="M495.999 613.018v-388.446c10.653-0.758 21.347-0.757 32 0v388.445l165.020-165.014 22.628 22.625-203.647 203.646-203.647-203.646 22.626-22.629 165.020 165.019zM240.47 176.47c-149.96 149.961-149.959 393.097 0.003 543.059 149.96 149.961 393.096 149.961 543.056 0 149.962-149.962 149.962-393.097 0.001-543.058s-393.098-149.963-543.060-0.001z" />
<glyph unicode="&#xe94d;" glyph-name="arrow1-down-circle" data-tags="arrow1-down-circle" d="M495.999 282.982v388.446c10.653 0.758 21.347 0.757 32 0v-388.445l165.020 165.014 22.628-22.625-203.647-203.646-203.647 203.646 22.626 22.629 165.020-165.019zM240.47 719.53c-149.96-149.961-149.959-393.097 0.003-543.059 149.96-149.961 393.096-149.961 543.056 0 149.962 149.962 149.962 393.097 0.001 543.058s-393.098 149.963-543.060 0.001z" />
<glyph unicode="&#xe94e;" glyph-name="arrow1-right-circle" data-tags="arrow1-right-circle" d="M677.019 432h-388.446c-0.758 10.653-0.757 21.347 0 32h388.445l-165.014 165.020 22.625 22.628 203.646-203.647-203.646-203.647-22.629 22.626 165.019 165.020zM240.471 176.471c149.961-149.96 393.097-149.959 543.059 0.003 149.961 149.96 149.961 393.096 0 543.056-149.962 149.962-393.097 149.962-543.058 0.001s-149.963-393.098-0.001-543.060z" />
<glyph unicode="&#xe94f;" glyph-name="arrow1-left-circle" data-tags="arrow1-left-circle" d="M346.981 432h388.446c0.758 10.653 0.757 21.347 0 32h-388.445l165.014 165.020-22.625 22.628-203.646-203.647 203.646-203.647 22.629 22.626-165.019 165.020zM783.529 176.471c-149.961-149.96-393.097-149.959-543.059 0.003-149.961 149.96-149.961 393.096 0 543.056 149.962 149.962 393.097 149.962 543.058 0.001s149.963-393.098 0.001-543.060z" />
<glyph unicode="&#xe950;" glyph-name="arrow1-up-right-circle" data-tags="arrow1-up-right-circle" d="M639.999 553.372l-274.673-274.673c-8.068 6.997-15.63 14.56-22.627 22.627l274.672 274.673-233.369 0.004-0.002 31.999 288-0.001 0.001-287.999-32.001-0.002-0.001 233.372zM512 64c212.076 0.001 383.998 171.924 383.998 384.003 0.001 212.076-171.922 383.999-383.998 383.998-212.079 0-384.001-171.922-384.001-383.999s171.922-384.002 384.001-384.002z" />
<glyph unicode="&#xe951;" glyph-name="arrow1-down-right-circle" data-tags="arrow1-down-right-circle" d="M639.999 342.63l-274.673 274.673c-8.068-6.997-15.63-14.56-22.627-22.627l274.672-274.673-233.369-0.004-0.002-31.999 288 0.001 0.001 287.999-32.001 0.002-0.001-233.372zM512 832.002c212.076-0.001 383.998-171.924 383.998-384.003 0.001-212.076-171.922-383.999-383.998-383.998-212.079 0-384.001 171.922-384.001 383.999s171.922 384.002 384.001 384.002z" />
<glyph unicode="&#xe952;" glyph-name="arrow1-down-left-circle" data-tags="arrow1-down-left-circle" d="M383.999 342.63l274.673 274.673c8.068-6.997 15.63-14.56 22.627-22.627l-274.672-274.673 233.369-0.004 0.002-31.999-288 0.001-0.001 287.999 32.001 0.002 0.001-233.372zM511.998 832.002c-212.076-0.001-383.998-171.924-383.998-384.003-0.001-212.076 171.922-383.999 383.998-383.998 212.079 0 384.001 171.922 384.001 383.999s-171.922 384.002-384.001 384.002z" />
<glyph unicode="&#xe953;" glyph-name="arrow1-up-left-circle" data-tags="arrow1-up-left-circle" d="M383.999 553.372l274.673-274.673c8.068 6.997 15.63 14.56 22.627 22.627l-274.672 274.673 233.369 0.004 0.002 31.999-288-0.001-0.001-287.999 32.001-0.002 0.001 233.372zM511.998 64c-212.076 0.001-383.998 171.924-383.998 384.003-0.001 212.076 171.922 383.999 383.998 383.998 212.079 0 384.001-171.922 384.001-383.999s-171.922-384.002-384.001-384.002z" />
<glyph unicode="&#xe954;" glyph-name="arrow2-up-circle" data-tags="arrow2-up-circle" d="M240.47 176.47c149.962-149.962 393.099-149.96 543.060 0.001s149.961 393.096-0.001 543.058c-149.96 149.961-393.096 149.961-543.056 0-149.962-149.962-149.963-393.098-0.003-543.059zM512 538.509l-181.019-181.021-22.627 22.625 203.646 203.647 203.647-203.647-22.626-22.628-181.021 181.024z" />
<glyph unicode="&#xe955;" glyph-name="arrow2-down-circle" data-tags="arrow2-down-circle" d="M240.47 719.53c149.962 149.962 393.099 149.96 543.060-0.001s149.961-393.096-0.001-543.058c-149.96-149.961-393.096-149.961-543.056 0-149.962 149.962-149.963 393.098-0.003 543.059zM512 357.491l-181.019 181.021-22.627-22.625 203.646-203.647 203.647 203.647-22.626 22.628-181.021-181.024z" />
<glyph unicode="&#xe956;" glyph-name="arrow2-right-circle" data-tags="arrow2-right-circle" d="M240.471 176.471c-149.962 149.962-149.96 393.099 0.001 543.060s393.096 149.961 543.058-0.001c149.961-149.96 149.961-393.096 0-543.056-149.962-149.962-393.098-149.963-543.059-0.003zM602.51 448.001l-181.021-181.019 22.625-22.627 203.647 203.646-203.647 203.647-22.628-22.626 181.024-181.021z" />
<glyph unicode="&#xe957;" glyph-name="arrow2-left-circle" data-tags="arrow2-left-circle" d="M783.529 176.471c149.962 149.962 149.96 393.099-0.001 543.060s-393.096 149.961-543.058-0.001c-149.961-149.96-149.961-393.096 0-543.056 149.962-149.962 393.098-149.963 543.059-0.003zM421.49 448.001l181.021-181.019-22.625-22.627-203.647 203.646 203.647 203.647 22.628-22.626-181.024-181.021z" />
<glyph unicode="&#xe958;" glyph-name="arrow2-up-right-circle" data-tags="arrow2-up-right-circle" d="M512 64c-212.079 0-384.001 171.926-384.001 384.002s171.922 383.999 384.001 383.999c212.076 0.001 383.999-171.922 383.998-383.998 0-212.079-171.922-384.002-383.998-384.003zM575.999 512.001l-0.001-256 31.999-0.002v288h-288l-0.002-32 256.004 0.002z" />
<glyph unicode="&#xe959;" glyph-name="arrow2-down-right-circle" data-tags="arrow2-down-right-circle" d="M512 832.002c-212.079 0-384.001-171.926-384.001-384.002s171.922-383.999 384.001-383.999c212.076-0.001 383.999 171.922 383.998 383.998 0 212.079-171.922 384.002-383.998 384.003zM575.999 384.001l-0.001 256 31.999 0.002v-288h-288l-0.002 32 256.004-0.002z" />
<glyph unicode="&#xe95a;" glyph-name="arrow2-down-left-circle" data-tags="arrow2-down-left-circle" d="M511.998 832.002c212.079 0 384.001-171.926 384.001-384.002s-171.922-383.999-384.001-383.999c-212.076-0.001-383.999 171.922-383.998 383.998 0 212.079 171.922 384.002 383.998 384.003zM447.999 384.001l0.001 256-31.999 0.002v-288h288l0.002 32-256.004-0.002z" />
<glyph unicode="&#xe95b;" glyph-name="arrow2-up-left-circle" data-tags="arrow2-up-left-circle" d="M511.998 64c212.079 0 384.001 171.926 384.001 384.002s-171.922 383.999-384.001 383.999c-212.076 0.001-383.999-171.922-383.998-383.998 0-212.079 171.922-384.002 383.998-384.003zM447.999 512.001l0.001-256-31.999-0.002v288h288l0.002-32-256.004 0.002z" />
<glyph unicode="&#xe95c;" glyph-name="arrow3-up-circle" data-tags="arrow3-up-circle" d="M511.999 506.51l-90.509-90.51h-45.253l135.761 135.761 135.762-135.761h-45.252l-90.509 90.51zM240.469 176.469c149.961-149.96 393.097-149.959 543.059 0.003 149.961 149.96 149.961 393.096 0 543.056-149.962 149.962-393.097 149.962-543.058 0.001s-149.963-393.098-0.001-543.060z" />
<glyph unicode="&#xe95d;" glyph-name="arrow3-down-circle" data-tags="arrow3-down-circle" d="M511.999 389.49l-90.509 90.51h-45.253l135.761-135.761 135.762 135.761h-45.252l-90.509-90.51zM240.469 719.531c149.961 149.96 393.097 149.959 543.059-0.003 149.961-149.96 149.961-393.096 0-543.056-149.962-149.962-393.097-149.962-543.058-0.001s-149.963 393.098-0.001 543.060z" />
<glyph unicode="&#xe95e;" glyph-name="arrow3-right-circle" data-tags="arrow3-right-circle" d="M570.511 448l-90.51-90.509v-45.253l135.761 135.761-135.761 135.762v-45.252l90.51-90.509zM240.47 176.47c-149.96 149.961-149.959 393.097 0.003 543.059 149.96 149.961 393.096 149.961 543.056 0 149.962-149.962 149.962-393.097 0.001-543.058s-393.098-149.963-543.060-0.001z" />
<glyph unicode="&#xe95f;" glyph-name="arrow3-left-circle" data-tags="arrow3-left-circle" d="M453.489 448l90.51-90.509v-45.253l-135.761 135.761 135.761 135.762v-45.252l-90.51-90.509zM783.53 176.47c149.96 149.961 149.959 393.097-0.003 543.059-149.96 149.961-393.096 149.961-543.056 0-149.962-149.962-149.962-393.097-0.001-543.058s393.098-149.963 543.060-0.001z" />
<glyph unicode="&#xe960;" glyph-name="plus-circle" data-tags="plus-circle" d="M288.579 431.999l207.42 0.001v-207.42c5.286-0.374 10.619-0.575 16-0.575s10.715 0.202 16.001 0.575l-0.001 207.42 207.42 0.001c0.374 5.286 0.575 10.619 0.575 15.999s-0.202 10.714-0.575 16h-207.42l-0.001 207.42c-5.286 0.374-10.619 0.575-15.999 0.575s-10.714-0.202-16-0.575v-207.42h-207.42c-0.374-5.286-0.575-10.619-0.575-16s0.202-10.715 0.575-16.001zM240.47 176.47c-149.96 149.961-149.959 393.097 0.003 543.059 149.96 149.961 393.096 149.961 543.056 0 149.962-149.962 149.962-393.097 0.001-543.058s-393.098-149.963-543.060-0.001z" />
<glyph unicode="&#xe961;" glyph-name="minus-circle" data-tags="minus-circle" d="M288.579 431.999c397.321 0.002 49.511 0 446.841 0.002 0.374 5.286 0.575 10.619 0.575 15.999s-0.202 10.714-0.575 16c-397.325 0-49.516 0-446.841 0-0.374-5.286-0.575-10.619-0.575-16s0.202-10.715 0.575-16.001zM240.47 176.47c-149.96 149.961-149.959 393.097 0.003 543.059 149.96 149.961 393.096 149.961 543.056 0 149.962-149.962 149.962-393.097 0.001-543.058s-393.098-149.963-543.060-0.001z" />
<glyph unicode="&#xe962;" glyph-name="close-circle" data-tags="close-circle" d="M365.331 278.703l146.668 146.67 146.669-146.669c4.002 3.473 7.916 7.101 11.721 10.907 3.804 3.804 7.432 7.718 10.906 11.72l-146.668 146.67 146.668 146.67c-3.473 4.002-7.101 7.916-10.906 11.72s-7.719 7.433-11.721 10.907l-146.669-146.669-146.668 146.67c-4.002-3.473-7.917-7.102-11.722-10.908s-7.433-7.719-10.907-11.721l146.669-146.669-146.669-146.669c3.473-4.002 7.101-7.916 10.907-11.721s7.72-7.434 11.722-10.908zM240.47 176.47c-149.96 149.961-149.959 393.097 0.003 543.059 149.96 149.961 393.096 149.961 543.056 0 149.962-149.962 149.962-393.097 0.001-543.058s-393.098-149.963-543.060-0.001z" />
<glyph unicode="&#xe963;" glyph-name="checked-circle" data-tags="checked-circle" d="M495.999 322.743l262.232 262.23-22.23 23.026-240.002-240-127.998 128.002c-4.003-3.473-7.917-7.101-11.721-10.907-3.805-3.804-7.433-7.718-10.907-11.72 50.209-50.211 100.415-100.424 150.625-150.631zM240.47 176.47c-149.96 149.961-149.959 393.097 0.003 543.059 149.96 149.961 393.096 149.961 543.056 0 149.962-149.962 149.962-393.097 0.001-543.058s-393.098-149.963-543.060-0.001z" />
<glyph unicode="&#xe964;" glyph-name="information-circle" data-tags="information-circle" d="M511.998 671.998c-17.672 0-31.999-14.327-31.999-31.999 0-17.674 14.327-32 31.999-32s32 14.326 32 32c0 17.672-14.327 31.999-32 31.999zM496 576v-351.303c5.284-0.461 10.618-0.697 15.998-0.697 5.381 0 10.717 0.237 16.002 0.697v351.303h-32zM240.47 176.47c-149.96 149.961-149.959 393.097 0.003 543.059 149.96 149.961 393.096 149.961 543.056 0 149.962-149.962 149.962-393.097 0.001-543.058s-393.098-149.963-543.060-0.001z" />
<glyph unicode="&#xe965;" glyph-name="exclamation-circle" data-tags="exclamation-circle" d="M511.998 224.002c-17.672 0-31.999 14.327-31.999 31.999 0 17.674 14.327 32 31.999 32s32-14.326 32-32c0-17.672-14.327-31.999-32-31.999zM496 320v351.303c5.284 0.461 10.618 0.697 15.998 0.697 5.381 0 10.717-0.237 16.002-0.697v-351.303h-32zM240.47 719.53c-149.96-149.961-149.959-393.097 0.003-543.059 149.96-149.961 393.096-149.961 543.056 0 149.962 149.962 149.962 393.097 0.001 543.058s-393.098 149.963-543.060 0.001z" />
<glyph unicode="&#xe966;" glyph-name="question-circle" data-tags="question-circle" d="M512 224.001c17.673 0 32 14.327 32 31.999 0 17.674-14.327 32-32 32s-31.999-14.326-31.999-32c0-17.672 14.327-31.999 31.999-31.999zM364.769 617.416l24.116-24.116c12.283 10.179 25.705 18.855 40.199 25.767 26.058 12.426 55.252 19.009 84.118 19.009 32.999 0 77.867-15.739 87.497-50.971 1.033-3.775 1.563-7.668 1.563-11.582 0-12.863-2.757-25.092-11.945-34.655-17.326-18.026-56.007-23.836-80.114-28.165-33.206-5.966-74.154-12.637-98.576-38.049-15.393-16.017-21.411-36.281-21.411-58.166 0-6.935 0.936-13.843 2.765-20.532 13.93-50.952 71.281-75.949 120.222-75.949 25.865 0 53.649 6.912 76.315 20.684l-24.956 24.956c-15.882-7.669-34.848-11.711-51.359-11.711-32.999 0-77.867 15.739-87.497 50.971-1.032 3.775-1.562 7.668-1.562 11.582 0 12.863 2.756 25.092 11.945 34.655 17.326 18.026 56.007 23.836 80.114 28.165 33.206 5.966 74.153 12.637 98.575 38.049 15.393 16.017 21.411 36.281 21.411 58.166 0 6.934-0.935 13.842-2.764 20.53-13.93 50.953-71.283 75.951-120.223 75.951-33.913 0-68.107-7.716-98.719-22.313-17.972-8.57-34.638-19.411-49.714-32.274zM240.47 176.47c-149.96 149.961-149.959 393.097 0.003 543.059 149.96 149.961 393.096 149.961 543.056 0 149.962-149.962 149.962-393.097 0.001-543.058s-393.098-149.963-543.060-0.001z" />
<glyph unicode="&#xe967;" glyph-name="calender" data-tags="calender" d="M896 735.998v-31.999l-768 0.002v95.999c0 17.596 14.418 32 32 32h704c17.582 0 32-14.42 32-32v-64.002zM159.999 735.998h704.002v64.002h-704.002v-64.002zM128 95.999v576.002h31.999v-576.002h704.002v576.002h31.999v-576.002c0-17.555-14.436-32-32-32h-704c-17.564 0-32 14.399-32 32z" />
<glyph unicode="&#xe968;" glyph-name="calender-day" data-tags="calender-day" d="M502.969 293.718v26.733h-118.127c16.919 13.245 32.452 26.069 46.661 38.472s26.554 24.565 37.088 36.547c10.477 11.918 18.652 23.909 24.444 35.763 5.827 11.927 8.85 24.023 8.85 36.244 0 9.634-1.593 18.233-4.576 25.829-2.976 7.575-7.074 14.239-12.342 19.869-5.266 5.627-11.319 10.296-18.182 14.028s-14.215 6.482-21.976 8.309c-7.831 1.844-15.775 2.77-23.842 2.77-11.38 0-22.269-1.481-32.693-4.395-10.465-2.925-20.055-7.158-28.719-12.764-8.734-5.65-16.196-12.584-22.397-20.772l18.424-19.146c4.696 6.081 10.311 11.359 16.798 15.895 6.516 4.555 13.788 8.068 21.916 10.596s17.038 3.853 26.672 3.853c6.321 0 12.464-0.844 18.423-2.528 5.96-1.686 11.369-4.291 16.197-7.827 4.864-3.566 8.695-8.147 11.56-13.727 2.853-5.557 4.37-12.222 4.395-19.99 0.034-10.293-2.941-20.779-8.731-31.308-5.829-10.601-14.391-21.795-25.769-33.595-11.318-11.739-25.36-24.55-42.024-38.473-16.629-13.892-35.824-29.261-57.499-46.179v-24.203h165.45zM607.369 293.718l98.619 220.36v20.591h-164.366v-26.733h129.687l-97.175-214.218h33.235zM159.999 735.998v64.002h704.002v-64.002h-704.002zM128 800v-96.001l768 0.002v95.999c0 17.58-14.418 32-32 32h-704c-17.582 0-32-14.404-32-32zM128 95.999v576.002h31.999v-576.002h704.002v576.002h31.999v-576.002c0-17.555-14.436-32-32-32h-704c-17.564 0-32 14.399-32 32z" />
<glyph unicode="&#xe969;" glyph-name="calender-week" data-tags="calender-week" d="M159.999 735.998h704.002v64.002h-704.002v-64.002zM128 95.999v576.002h31.999v-576.002h704.002v576.002h31.999v-576.002c0-17.555-14.436-32-32-32h-704c-17.564 0-32 14.399-32 32zM735.999 607.999h32.002v-415.998h-32.002v415.998zM615.998 607.999h32.002v-415.998h-32.002v415.998zM495.999 607.999h32.002v-415.998h-32.002v415.998zM375.998 607.999h32.002v-415.998h-32.002v415.998zM255.999 607.999h32.002v-415.998h-32.002v415.998zM896 735.998v-31.999l-768 0.002v95.999c0 17.596 14.418 32 32 32h704c17.582 0 32-14.42 32-32v-64.002z" />
<glyph unicode="&#xe96a;" glyph-name="calender-month" data-tags="calender-month" d="M255.999 479.999v-31.998h32.002v31.998h-32.002zM375.998 479.999v-31.998h32.002v31.998h-32.002zM495.999 479.999v-31.998h32.002v31.998h-32.002zM615.998 479.999v-31.998h32.002v31.998h-32.002zM735.999 479.999v-31.998h32.002v31.998h-32.002zM255.999 351.999v-31.998h32.002v31.998h-32.002zM375.998 351.999v-31.998h32.002v31.998h-32.002zM495.999 351.999v-31.998h32.002v31.998h-32.002zM735.999 351.999v-31.998h32.002v31.998h-32.002zM255.999 223.999v-31.998h32.002v31.998h-32.002zM375.998 223.999v-31.998h32.002v31.998h-32.002zM495.999 223.999v-31.998h32.002v31.998h-32.002zM615.998 223.999v-31.998h32.002v31.998h-32.002zM735.999 223.999v-31.998h32.002v31.998h-32.002zM255.999 607.999v-31.998h32.002v31.998h-32.002zM375.998 607.999v-31.998h32.002v31.998h-32.002zM495.999 607.999v-31.998h32.002v31.998h-32.002zM615.998 607.999v-31.998h32.002v31.998h-32.002zM735.999 607.999v-31.998h32.002v31.998h-32.002zM864 735.998h-704c0 32.002-0.001 32.001-0.001 64.002h704.002c0-32.002-0.001-32.001-0.001-64.002zM128 800c0-42.666 0-53.333 0-95.999v-0.002l768.001 0.002c0 42.667-0.001 53.332-0.001 95.999 0 17.58-14.418 32-32 32h-704c-17.582 0-32-14.404-32-32zM128 95.999c0-17.601 14.436-32 32-32h704c17.564 0 32 14.445 32 32v576.002h-31.999v-576.002h-704.002v576.002h-31.999v-576.002zM631.999 400c-35.345 0-64-28.655-64-64 0-35.347 28.655-64 64-64 35.347 0 64 28.653 64 64 0 35.345-28.653 64-64 64zM631.999 378.665c23.564 0 42.665-19.102 42.665-42.665s-19.101-42.665-42.665-42.665c-23.563 0-42.665 19.101-42.665 42.665s19.102 42.665 42.665 42.665z" />
<glyph unicode="&#xe96b;" glyph-name="calender-list" data-tags="calender-list" d="M255.999 223.999h256.002v-31.998h-256.002v31.998zM255.999 351.999h448v-31.998h-448v31.998zM255.999 479.999h384v-31.998h-384v31.998zM255.999 607.999h512.002v-31.998h-512.002v31.998zM128 95.999v576.002h31.999v-576.002h704.002v576.002h31.999v-576.002c0-17.553-14.438-32-32-32h-704c-17.564 0-32 14.399-32 32zM896 735.998v-31.999l-768 0.002c0 42.666 0 53.333 0 95.999 0 17.598 14.416 32 32 32h704c17.584 0 32-14.421 32-32v-64.002zM160 735.998l704.001 0.003v63.999h-704.002c0-32.002 0.001-32.001 0.001-64.002z" />
<glyph unicode="&#xe96c;" glyph-name="calender-month-checked" data-tags="calender-month-checked" d="M223.999 511.999v-31.998h32.002v31.998h-32.002zM343.998 511.999v-31.998h32.002v31.998h-32.002zM463.999 511.999v-31.998h32.002v31.998h-32.002zM583.998 511.999v-31.998l32.002-0.002v32h-32.002zM704.001 511.999l-0.002-31.998 32.002-0.002v32h-32zM223.999 383.999v-31.998h32.002v31.998h-32.002zM343.998 383.999v-31.998h32.002v31.998h-32.002zM463.999 383.999v-31.998l32.002-0.002v32h-32.002zM223.999 255.999v-31.998h32.002v31.998h-32.002zM343.998 255.999v-31.998h32.002v31.998h-32.002zM463.999 255.999v-31.998h18.287c-1.495 10.452-2.286 21.132-2.286 31.998h-16.001zM223.999 639.999v-31.998h32.002v31.998h-32.002zM343.998 639.999v-31.998h32.002v31.998h-32.002zM463.999 639.999v-31.998h32.002v31.998h-32.002zM583.998 639.999v-31.998h32.002v31.998h-32.002zM703.999 639.999v-31.998h32.002v31.998h-32.002zM800 735.998h-640c0 32.002-0.001 32.001-0.001 64.002h640.002c0-32.002-0.001-32.001-0.001-64.002zM128 800c0-42.666 0-53.333 0-95.999v-0.002l704.001 0.002c0 42.667-0.001 53.332-0.001 95.999 0 17.58-14.42 32-32 32h-640c-17.58 0-32-14.404-32-32zM128 159.999c0-17.601 14.441-32 32-32h360.169c-7.040 10.093-13.274 20.788-18.6 32h-341.571v512.002h-31.999v-512.002zM800.001 458.433c0.876-0.417 1.747-0.84 2.616-1.267 0.596-0.292 1.19-0.587 1.782-0.885 1.079-0.543 2.154-1.094 3.224-1.654 0.549-0.288 1.099-0.575 1.645-0.867 1.047-0.558 2.088-1.125 3.124-1.7l0.507-0.282 1.010-0.567c1.177-0.666 2.347-1.339 3.511-2.024l0.499-0.294 0.497-0.295c4.639-2.763 9.17-5.685 13.585-8.765v232.167h-31.999v-213.569zM704.001 416.002c-88.366 0-160-71.635-160-160.001s71.634-160.001 160-160.001c88.366 0 160 71.635 160 160.001s-71.634 160.001-160 160.001zM811.788 302.532l-107.785-107.786-78.629 78.628 34.181 11.074 44.448-44.447 85.775 85.775 22.010-23.244zM704.001 448.001c106.038 0 191.999-85.962 191.999-192s-85.961-192-191.999-192c-106.038 0-191.999 85.962-191.999 192s85.961 192 191.999 192z" />
<glyph unicode="&#xe96d;" glyph-name="calender-checked" data-tags="calender-checked" d="M896 735.998v-31.999l-768 0.002v95.999c0 17.596 14.418 32 32 32h704c17.582 0 32-14.42 32-32v-64.002zM159.999 735.998h704.002v64.002h-704.002v-64.002zM128 95.999v576.002h31.999v-576.002h704.002v576.002h31.999v-576.002c0-17.555-14.436-32-32-32h-704c-17.564 0-32 14.399-32 32zM619.784 510.531l-107.785-107.786-78.629 78.628 34.181 11.074 44.448-44.447 85.775 85.775 22.010-23.244z" />
<glyph unicode="&#xe96e;" glyph-name="at-circle" data-tags="at-circle" d="M512 863.999c-229.75 0-415.998-186.25-415.998-416s186.248-415.999 415.998-415.999c229.75 0 415.999 186.249 415.999 415.999s-186.249 416-415.999 416zM512 895.995c247.421 0 447.995-200.575 447.995-447.996s-200.574-447.995-447.995-447.995c-247.421 0-447.994 200.574-447.994 447.995s200.573 447.996 447.994 447.996zM512.449 524.587c19.189-0.144 36.236-6.598 50.644-19.288 3.048-2.686 5.819-5.631 8.63-8.559 1.46-1.522 2.691-3.18 3.933-4.876 2.578-3.525 3.844-7.65 3.537-12.020-0.167-2.359-0.321-4.707-0.671-7.049-1.249-8.358-2.569-16.706-3.865-25.056-1.266-8.155-2.542-16.31-3.797-24.467-1.138-7.388-2.254-14.78-3.381-22.171-0.161-1.054-0.403-2.131-0.516-3.186-0.302-2.83-1.617-5.248-3.744-7.119-3.858-3.394-8.008-6.431-12.457-9.007-8.456-4.897-17.573-8.084-27.239-9.52-5.584-0.83-11.237-1.067-16.866-0.608-20.087 1.637-37.248 9.946-50.904 24.781-10.063 10.932-16.343 23.909-18.908 38.529-1.255 7.159-1.452 14.415-0.604 21.633 2.345 19.966 11.317 36.706 26.554 49.801 10.57 9.085 22.91 14.755 36.631 17.111 4.299 0.737 8.661 1.104 13.023 1.071zM506.68 671.814c-0.822-0.115-1.551-0.272-2.408-0.319-3.195-0.177-6.407-0.229-9.596-0.502-4.178-0.357-8.343-0.853-12.506-1.338-4.411-0.513-8.79-1.303-13.149-2.143-14.207-2.739-28.075-6.885-41.463-12.372-55.882-22.902-100.112-67.289-122.828-123.246-5.582-13.751-9.728-28.002-12.45-42.59-1.405-7.53-2.413-15.132-3.059-22.764-0.276-3.266-0.375-6.548-0.569-9.821-0.099-1.684-0.223-3.115-0.653-4.547 0-2.75 0-5.5 0-8.248 0.398-1.311 0.532-2.648 0.633-4.208 0.162-2.542 0.273-5.088 0.43-7.631 0.394-6.368 1.163-12.706 2.141-19.010 1.832-11.805 4.608-23.437 8.364-34.778 11.926-36.003 31.74-67.127 59.337-93.144 23.457-22.112 50.604-38.427 81.1-48.86 10.848-3.712 21.969-6.554 33.267-8.508 6.4-1.11 12.842-2.003 19.32-2.506 3.166-0.247 6.333-0.475 9.498-0.736 0.779-0.066 1.439-0.217 2.181-0.353 5.118-0.421 10.396-0.017 15.555 0.036 0.508 0.123 1.010 0.217 1.58 0.269 1.816 0.164 3.633 0.314 5.454 0.42 6.61 0.384 13.191 1.147 19.734 2.154 23.772 3.661 46.483 11.101 67.874 22.093 6.155 3.162 12.15 6.634 17.987 10.355-7.914 7.926-15.823 15.857-23.739 23.781-3.451-1.991-6.927-3.933-10.486-5.728-15.735-7.936-32.364-13.661-49.673-16.989-6.474-1.244-13.011-2.14-19.575-2.744-8.338-0.768-16.729-0.945-25.095-0.583-51.685 2.247-99.615 24.965-134.095 63.491-20.062 22.416-34.133 48.328-42.031 77.354-2.248 8.252-3.875 16.656-5.004 25.132-1.534 11.518-1.936 23.141-1.351 34.741 1.056 20.909 5.48 41.266 13.241 60.712 21.208 53.142 65.165 94.045 119.683 111.403 9.012 2.87 18.233 5.004 27.567 6.521 13.137 2.135 26.494 2.858 39.783 2.143 40.618-2.188 77.223-15.853 109.099-41.165 29.727-23.602 50.648-53.705 62.7-89.68 3.299-9.849 5.665-19.97 7.286-30.225 1.987-12.559 2.612-25.262 2.115-37.963-0.208-5.3-0.597-10.592-1.105-15.87-0.925-9.607-3.741-18.727-8.379-27.19-3.775-6.886-8.101-13.441-13.25-19.383-7.369-8.506-16.118-15.371-26.317-20.172-4.801-2.26-9.831-3.908-15.072-4.771-5.098-0.84-10.232-0.818-15.25 0.496-6.601 1.725-11.958 5.558-15.737 11.236-2.534 3.807-4.185 8.019-5.211 12.461-1.459 6.308-1.91 12.825-1.445 19.278 0.182 2.535 0.656 4.98 1.043 7.482 0.942 6.070 1.9 12.136 2.853 18.205 0.933 5.938 1.872 11.876 2.802 17.814 0.929 5.941 1.847 11.882 2.778 17.823 0.93 5.942 1.87 11.88 2.802 17.823 0.923 5.878 1.838 11.756 2.758 17.634 0.939 6.002 1.881 12.002 2.82 18.004 0.796 5.082 1.592 10.163 2.386 15.244 0.825 5.283 1.436 10.582 2.521 15.826 1.65 7.973-4.449 16.008-12.158 17.896-5.778 1.415-10.36-0.042-14.566-4.194-2.725-2.692-4.358-5.982-5.309-9.665-0.174-0.674-0.332-1.351-0.495-2.026l-2.78-15.636c-15.67 16.862-32.617 25.744-55.538 30.050-4.637 0.872-9.331 1.402-14.033 1.758-5.364 0.408-10.759 0.31-16.116-0.159-23.555-2.060-44.455-10.524-62.593-25.728-18.674-15.657-30.923-35.325-36.907-58.937-1.3-5.127-2.187-10.346-2.699-15.61-0.374-3.84-0.628-7.7-0.591-11.56 0.249-26.083 8.255-49.363 24.578-69.758 15.59-19.483 35.516-32.231 59.622-38.581 5.609-1.478 11.337-2.441 17.112-2.958 3.719-0.334 7.461-0.599 11.197-0.537 16.425 0.274 31.327 4.981 44.675 14.614 1.462 1.055 2.844 2.242 4.26 3.356 0.456 0.358 0.923 0.705 1.382 1.056l7.683 5.849 4.603-8.488c0.366-0.672 0.741-1.336 1.091-2.019 2.556-4.98 5.727-9.553 9.633-13.573 6.753-6.952 14.857-11.572 24.178-14.162 7.784-2.163 15.828-2.758 23.871-2.139 16.291 1.252 31.055 6.838 44.664 15.77 13.658 8.964 24.755 20.538 33.69 34.178 8.173 12.477 14.001 26.081 17.871 40.467 1.978 7.361 3.383 14.86 4.338 22.419 0.316 2.508 0.667 5.069 0.703 7.598 0.012 0.877 0.132 1.602 0.316 2.365 0 4.313 0 8.628 0 12.943-0.221 1.018-0.27 2.016-0.326 3.248-0.12 2.64-0.126 5.311-0.376 7.943-0.438 4.613-0.912 9.226-1.579 13.814-1.285 8.855-3.147 17.615-5.541 26.234-9.701 34.933-26.893 65.847-51.537 92.447-25.549 27.574-56.226 47.523-91.762 59.771-10.833 3.734-21.947 6.579-33.235 8.548-6.236 1.087-12.513 1.947-18.821 2.497-3.898 0.34-7.806 0.631-11.72 0.722-1.080 0.026-1.91 0.22-2.94 0.338-3.682 0.24-7.357 0.265-11.039 0.006z" />
<glyph unicode="&#xe96f;" glyph-name="at" data-tags="at" d="M681.823 139.66c-3.434-1.891-6.897-3.735-10.401-5.499-28.983-14.597-59.757-25.171-91.641-31.291-11.916-2.288-23.951-3.936-36.034-5.047-15.397-1.415-30.89-1.744-46.335-1.074-95.282 4.129-183.734 45.975-247.33 116.926-36.938 41.208-62.976 89.092-77.522 142.45-4.141 15.191-7.151 30.671-9.232 46.273-2.828 21.201-3.577 42.634-2.497 63.991 1.945 38.45 10.138 76.082 24.432 111.842 39.116 97.861 120.188 173.185 220.735 205.154 16.61 5.281 33.626 9.218 50.829 12.009 24.249 3.934 48.923 5.268 73.457 3.95 74.799-4.018 142.488-29.269 201.189-75.809 54.734-43.394 93.434-98.973 115.623-165.11 6.087-18.142 10.464-36.814 13.455-55.707 3.659-23.098 4.824-46.512 3.907-69.87-0.379-9.644-1.086-19.272-2.012-28.878-1.811-18.787-7.359-36.733-16.444-53.283-7.149-13.019-15.375-25.423-25.122-36.657-14.28-16.457-31.326-29.771-51.085-39.057-9.618-4.523-19.743-7.812-30.242-9.539-10.865-1.788-21.887-1.66-32.575 1.133-14.854 3.879-27.099 12.62-35.606 25.379-5.38 8.071-8.948 17.012-11.128 26.435-2.886 12.459-3.792 25.348-2.872 38.097 0.35 4.849 1.232 9.545 1.975 14.335 1.669 10.768 3.374 21.532 5.068 32.296 1.656 10.523 3.323 21.042 4.973 31.566 1.65 10.53 3.281 21.063 4.932 31.591 1.652 10.532 3.319 21.063 4.975 31.594 1.636 10.415 3.262 20.833 4.895 31.25 1.666 10.637 3.337 21.275 5.005 31.912 1.412 9.006 2.825 18.010 4.235 27.016 1.498 9.577 2.621 19.186 4.592 28.689 1.48 7.134-5.093 14.568-11.768 16.201-5.752 1.407-9.228 0.118-13.405-4-3.099-3.056-4.83-6.863-5.91-11.031-0.216-0.838-0.51-1.753-0.66-2.599l-9.586-53.83-18.084 19.429c-26.078 28.020-53.795 42.223-91.335 49.27-7.752 1.455-15.606 2.332-23.467 2.927-8.802 0.668-17.661 0.501-26.451-0.268-39.078-3.415-73.669-17.373-103.761-42.564-31.001-25.948-51.253-58.451-61.189-97.582-2.142-8.437-3.602-17.038-4.447-25.699-0.616-6.339-1.048-12.712-0.987-19.083 0.415-43.245 13.62-81.688 40.728-115.509 25.886-32.296 58.858-53.334 98.874-63.861 9.234-2.429 18.679-4.009 28.187-4.861 52.905-4.729 86.584 11.053 130.326 41.739l11.138-20.511c0.698-1.284 1.415-2.555 2.083-3.857 3.921-7.646 8.807-14.701 14.811-20.869 10.343-10.631 22.697-17.618 36.967-21.577 12.279-3.407 25.135-4.321 37.815-3.348 26.658 2.047 50.772 11.234 73.036 25.823 22.695 14.872 41.15 34.142 55.993 56.77 13.718 20.911 23.521 43.808 30.014 67.918 3.354 12.458 5.731 25.166 7.349 37.961 0.5 3.954 1.090 8.013 1.146 11.999 0.027 1.842 0.22 3.621 0.56 5.4 0 6.78 0 13.56 0 20.339-0.341 2.11-0.466 4.206-0.564 6.369-0.203 4.463-0.199 8.978-0.622 13.425-0.757 7.96-1.573 15.92-2.725 23.835-2.202 15.136-5.391 30.124-9.49 44.86-16.633 59.799-46.189 112.878-88.441 158.412-43.812 47.215-96.556 81.456-157.493 102.428-18.558 6.387-37.621 11.259-56.957 14.627-10.698 1.863-21.468 3.336-32.288 4.278-6.64 0.578-13.297 1.077-19.963 1.234-2.183 0.050-4.008 0.461-6.091 0.648-5.658 0.507-11.379 0.621-17.035 0.029-1.669-0.174-3.19-0.521-4.925-0.616-5.54-0.305-11.108-0.391-16.636-0.862-7.281-0.621-14.539-1.489-21.797-2.333-7.504-0.87-14.95-2.22-22.365-3.647-24.337-4.686-48.156-11.796-71.088-21.18-95.899-39.243-171.813-115.305-210.791-211.188-9.567-23.532-16.688-47.98-21.353-72.943-2.413-12.912-4.143-25.95-5.252-39.038-0.481-5.678-0.649-11.385-0.986-17.073-0.182-3.072-0.458-6.017-1.137-8.967 0-3.744 0-7.486 0-11.23 0.632-2.733 0.914-5.477 1.096-8.315 0.289-4.516 0.485-9.038 0.765-13.554 0.674-10.88 1.997-21.713 3.669-32.481 3.138-20.19 7.899-40.117 14.334-59.514 20.45-61.649 54.517-115.080 101.846-159.63 40.197-37.838 86.908-65.863 139.168-83.716 18.589-6.35 37.671-11.214 57.029-14.562 10.952-1.894 21.977-3.426 33.062-4.287 5.644-0.438 11.293-0.84 16.935-1.311 1.596-0.133 2.979-0.493 4.506-0.693 7.663-1.013 16.216-0.053 24.095 0.146 1.179 0.325 0.313 0.174 3.387 0.453 3.367 0.305 6.736 0.582 10.112 0.777 11.314 0.656 22.584 1.964 33.782 3.687 40.719 6.261 79.814 19.057 116.452 37.85 5.654 2.902 11.228 5.955 16.725 9.142-7.712 7.717-15.425 15.433-23.138 23.148zM513.291 597.014c37.241-0.28 70.597-12.897 98.553-37.488 5.689-5.005 10.876-10.481 16.12-15.935 3.003-3.122 5.56-6.504 8.115-9.989 6.429-8.771 9.569-19.18 8.801-30.043-0.318-4.523-0.631-9.029-1.303-13.518-2.221-14.839-4.568-29.658-6.872-44.485-2.246-14.45-4.51-28.898-6.738-43.352-2.018-13.090-3.998-26.186-6-39.28-0.254-1.668-0.66-3.389-0.84-5.055-0.889-8.308-4.795-15.635-11.066-21.142-7.497-6.583-15.58-12.479-24.223-17.477-16.429-9.5-34.262-15.724-53.041-18.511-10.898-1.618-21.976-2.073-32.964-1.178-38.964 3.169-72.537 19.413-99.027 48.145-19.566 21.223-31.878 46.575-36.865 74.96-2.447 13.936-2.833 28.121-1.181 42.17 4.549 38.671 22.098 71.387 51.658 96.755 20.573 17.655 44.706 28.755 71.415 33.331 8.403 1.44 16.932 2.153 25.457 2.090z" />
<glyph unicode="&#xe970;" glyph-name="battery" data-tags="battery" d="M160 576.001v-256h640.001v256c-234.666 0.002-405.333 0-640.001 0zM160 608c234.666 0 405.334 0 640.001 0 17.598 0 32-14.433 32-32v-256c0-17.568-14.432-32-32-32h-640.001c-17.568 0-32 14.399-32 32v256c0 17.601 14.399 32 32 32zM864 511.999h32v-127.998h-32v127.998z" />
<glyph unicode="&#xe971;" glyph-name="battery-low" data-tags="battery-low" d="M160 576.001v-256h640.001v256c-234.666 0.002-405.333 0-640.001 0zM160 608c234.666 0 405.334 0 640.001 0 17.598 0 32-14.433 32-32v-256c0-17.568-14.432-32-32-32h-640.001c-17.568 0-32 14.399-32 32v256c0 17.601 14.399 32 32 32zM864 511.999h32v-127.998h-32v127.998zM191.999 544.001h64v-192.002h-64v192.002z" />
<glyph unicode="&#xe972;" glyph-name="battery-half" data-tags="battery-half" d="M160 576.001v-256h640.001v256c-234.666 0.002-405.333 0-640.001 0zM160 608c234.666 0 405.334 0 640.001 0 17.598 0 32-14.433 32-32v-256c0-17.568-14.432-32-32-32h-640.001c-17.568 0-32 14.399-32 32v256c0 17.601 14.399 32 32 32zM864 511.999h32v-127.998h-32v127.998zM191.999 544.001h256v-192.002h-256v192.002z" />
<glyph unicode="&#xe973;" glyph-name="battery-full" data-tags="battery-full" d="M160 576.001v-256h640.001v256c-234.666 0.002-405.333 0-640.001 0zM160 608c234.666 0 405.334 0 640.001 0 17.598 0 32-14.433 32-32v-256c0-17.568-14.432-32-32-32h-640.001c-17.568 0-32 14.399-32 32v256c0 17.601 14.399 32 32 32zM864 511.999h32v-127.998h-32v127.998zM191.999 544.001h576.002v-192.002h-576.002v192.002z" />
<glyph unicode="&#xe974;" glyph-name="book" data-tags="book" d="M160 768h320.004l31.997-31.999 31.997 31.999h320.003c17.598 0 32-14.422 32-32v-544c0-17.579-14.421-32-32-32l-320.001-0.001-31.999-32.001-32 32.002h-320.001c-17.579 0-32 14.399-32 32v544c0 17.601 14.399 32 32 32zM528 707.65v-515.649h336.001v544l-307.651 0.001-28.35-28.353zM496 192.001v515.651l-28.348 28.35-307.652-0.001v-544h336z" />
<glyph unicode="&#xe975;" glyph-name="book2-bookmark" data-tags="book2-bookmark" d="M896 159.818c0-17.601-14.692-28.853-32-32l-351.999-64.003-352.001 64.003c-17.308 3.147-32 14.399-32 32v639.998c0 17.601 14.687 35.147 32 32l352-64.003 128.001 23.273v-32.002l-128-23.273-352.001 64.003v-639.994l352-64.003 352 64.003v639.994l-31.999-5.818v32.002l31.999 5.818c17.313 3.147 32-14.399 32-32v-639.998zM799.999 832.184v-76.913h0.001v-147.088l-63.999 8.665-64.002-41.031-0.001 129.783h0.005v103.311l127.996 23.272zM528.001 706.72v-575.994l-16.001-2.909-16.001 2.909v575.994l16.002-2.909 16 2.909zM703.998 782.205l0.001-153.872 32.002 20.516 32-4.333-0.001 149.326-64.002-11.637z" />
<glyph unicode="&#xe976;" glyph-name="book2" data-tags="book2" d="M896 159.818c0-17.601-14.692-28.853-32-32l-351.999-64.003-352.001 64.003c-17.308 3.147-32 14.399-32 32v639.998c0 17.601 14.687 35.147 32 32l352-64.003c127.807 23.239 236.546 43.011 352 64.003 17.313 3.147 32-14.399 32-32v-639.998zM528.001 706.72v-575.994l-16.001-2.909-16.001 2.909v575.994l16.002-2.909 16 2.909zM512.001 735.811h-0.002l-351.999 64.003v-639.994l352-64.003 352 64.003v639.994c-197.985-35.999-132.202-24.038-351.999-64.003z" />
<glyph unicode="&#xe977;" glyph-name="book3-bookmark" data-tags="book3-bookmark" d="M128 96c0-17.601 14.404-32 32-32 166.273 0 553.484 0 704 0 17.596 0 32 14.438 32 32v671.998c0 17.562-14.404 32-32 32h-31.998v-32.002h31.998v-671.994h-704v671.994h479.999v32.002h-479.999c-17.596 0-32-14.399-32-32v-671.998zM800 767.996v64.003h-128.001v-15.999h0.002v-112h-0.002v-96.002l63.548 32 64.453-32v159.998zM495.999 735.999h32.002v-608h-32.002v608zM704.001 800h64v-144.002l-32 16.002-32-16.002v144.002z" />
<glyph unicode="&#xe978;" glyph-name="book3" data-tags="book3" d="M128 112.001v671.998c0 17.601 14.404 32 32 32 264.033 0 504.553 0 704 0 17.596 0 32-14.438 32-32v-671.998c0-17.562-14.404-32-32-32-150.516 0-537.727 0-704 0-17.596 0-32 14.399-32 32zM495.999 752h32.002v-608h-32.002v608zM160 783.997v-671.994h704v671.994c-145.156 0-278.306 0-704 0z" />
<glyph unicode="&#xe979;" glyph-name="calculator" data-tags="calculator" d="M623.999 768.002h64.001l15.999-16.002-15.999-15.999h-64.001l-15.998 15.999 15.998 16.002zM735.999 721.78v-99.558l-16-14.221-15.998 14.221v99.558l15.998 14.221 16-14.221zM554.664 320v-31.998h32.002v31.998h-32.002zM671.997 191.998v-31.998h32.002v31.998h-32.002zM554.664 192v-31.998h32.002v31.998h-32.002zM437.331 192.002v-31.998h32.002v31.998h-32.002zM319.999 192v-31.998h32.002v31.998h-32.002zM671.997 319.998v-31.998h32.002v31.998h-32.002zM437.331 320.002v-31.998h32.002v31.998h-32.002zM319.999 320v-31.998h32.002v31.998h-32.002zM671.997 447.998v-31.998h32.002v31.998h-32.002zM554.664 448v-31.998h32.002v31.998h-32.002zM437.331 448.002v-31.998h32.002v31.998h-32.002zM319.999 448v-31.998h32.002v31.998h-32.002zM255.999 512v-416h512.002v416h-512.002zM255.999 800.002v-256.002h512.002v256.002h-512.002zM256 832h512.001c17.601 0 32-14.416 32-32v-704c0-17.584-14.416-32-32-32h-512.001c-17.584 0-32 14.399-32 32v704c0 17.601 14.399 32 32 32zM608.001 721.78l-16 14.221-15.998-14.221v-99.558l15.998-14.221 16 14.221v99.558zM623.999 608.001l-15.998-16.002 15.998-15.999h64.001l15.999 15.999-15.999 16.002h-64.001z" />
<glyph unicode="&#xe97a;" glyph-name="calculator2" data-tags="calculator2" d="M224 832c-17.601 0-32-14.399-32-32v-704c0-17.601 14.428-32 32-32h576.001c17.572 0 32 14.428 32 32v704c0 17.572-14.399 32-32 32h-576.001zM223.999 800h576.002v-704h-576.002v704zM480 224c0-17.673 14.327-32 32.001-32s32.001 14.327 32.001 32c0 17.673-14.327 32-32.001 32s-32.001-14.327-32.001-32zM448 224c0 35.346 28.654 64 64.001 64s64.001-28.654 64.001-64c0-35.346-28.654-64-64.001-64s-64.001 28.654-64.001 64zM480 384c0-17.673 14.327-32 32.001-32s32.001 14.327 32.001 32c0 17.673-14.327 32-32.001 32s-32.001-14.327-32.001-32zM448 384c0 35.346 28.654 64 64.001 64s64.001-28.654 64.001-64c0-35.346-28.654-64-64.001-64s-64.001 28.654-64.001 64zM320 224c0-17.673 14.327-32 32.001-32s32.001 14.327 32.001 32c0 17.673-14.327 32-32.001 32s-32.001-14.327-32.001-32zM288 224c0 35.346 28.654 64 64.001 64s64.001-28.654 64.001-64c0-35.346-28.654-64-64.001-64s-64.001 28.654-64.001 64zM320 384c0-17.673 14.327-32 32.001-32s32.001 14.327 32.001 32c0 17.673-14.327 32-32.001 32s-32.001-14.327-32.001-32zM288 384c0 35.346 28.654 64 64.001 64s64.001-28.654 64.001-64c0-35.346-28.654-64-64.001-64s-64.001 28.654-64.001 64zM640 224c0-17.673 14.327-32 32.001-32s32.001 14.327 32.001 32c0 17.673-14.327 32-32.001 32s-32.001-14.327-32.001-32zM608 224c0 35.346 28.654 64 64.001 64s64.001-28.654 64.001-64c0-35.346-28.654-64-64.001-64s-64.001 28.654-64.001 64zM640 384c0-17.673 14.327-32 32.001-32s32.001 14.327 32.001 32c0 17.673-14.327 32-32.001 32s-32.001-14.327-32.001-32zM608 384c0 35.346 28.654 64 64.001 64s64.001-28.654 64.001-64c0-35.346-28.654-64-64.001-64s-64.001 28.654-64.001 64zM288.001 736h447.998l0.002-223.999-448.002-0.002 0.002 224.001zM704.001 703.999h-384v-159.998h384v159.998z" />
<glyph unicode="&#xe97b;" glyph-name="calculator3" data-tags="calculator3" d="M224 832c-17.601 0-32-14.399-32-32v-704c0-17.601 14.428-32 32-32h576.001c17.572 0 32 14.428 32 32v704c0 17.572-14.399 32-32 32h-576.001zM223.999 800h576.002v-704h-576.002v704zM480 224c0-17.673 14.327-32 32.001-32s32.001 14.327 32.001 32c0 17.673-14.327 32-32.001 32s-32.001-14.327-32.001-32zM448 224c0 35.346 28.654 64 64.001 64s64.001-28.654 64.001-64c0-35.346-28.654-64-64.001-64s-64.001 28.654-64.001 64zM480 384c0-17.673 14.327-32 32.001-32s32.001 14.327 32.001 32c0 17.673-14.327 32-32.001 32s-32.001-14.327-32.001-32zM448 384c0 35.346 28.654 64 64.001 64s64.001-28.654 64.001-64c0-35.346-28.654-64-64.001-64s-64.001 28.654-64.001 64zM480 544c0-17.673 14.327-32 32.001-32s32.001 14.327 32.001 32c0 17.673-14.327 32-32.001 32s-32.001-14.327-32.001-32zM448 544c0 35.346 28.654 64 64.001 64s64.001-28.654 64.001-64c0-35.346-28.654-64-64.001-64s-64.001 28.654-64.001 64zM320 224c0-17.673 14.327-32 32.001-32s32.001 14.327 32.001 32c0 17.673-14.327 32-32.001 32s-32.001-14.327-32.001-32zM288 224c0 35.346 28.654 64 64.001 64s64.001-28.654 64.001-64c0-35.346-28.654-64-64.001-64s-64.001 28.654-64.001 64zM320 384c0-17.673 14.327-32 32.001-32s32.001 14.327 32.001 32c0 17.673-14.327 32-32.001 32s-32.001-14.327-32.001-32zM288 384c0 35.346 28.654 64 64.001 64s64.001-28.654 64.001-64c0-35.346-28.654-64-64.001-64s-64.001 28.654-64.001 64zM320 544c0-17.673 14.327-32 32.001-32s32.001 14.327 32.001 32c0 17.673-14.327 32-32.001 32s-32.001-14.327-32.001-32zM288 544c0 35.346 28.654 64 64.001 64s64.001-28.654 64.001-64c0-35.346-28.654-64-64.001-64s-64.001 28.654-64.001 64zM640 224c0-17.673 14.327-32 32.001-32s32.001 14.327 32.001 32c0 17.673-14.327 32-32.001 32s-32.001-14.327-32.001-32zM608 224c0 35.346 28.654 64 64.001 64s64.001-28.654 64.001-64c0-35.346-28.654-64-64.001-64s-64.001 28.654-64.001 64zM640 384c0-17.673 14.327-32 32.001-32s32.001 14.327 32.001 32c0 17.673-14.327 32-32.001 32s-32.001-14.327-32.001-32zM608 384c0 35.346 28.654 64 64.001 64s64.001-28.654 64.001-64c0-35.346-28.654-64-64.001-64s-64.001 28.654-64.001 64zM640 544c0-17.673 14.327-32 32.001-32s32.001 14.327 32.001 32c0 17.673-14.327 32-32.001 32s-32.001-14.327-32.001-32zM608 544c0 35.346 28.654 64 64.001 64s64.001-28.654 64.001-64c0-35.346-28.654-64-64.001-64s-64.001 28.654-64.001 64zM288.001 704h447.998v-32.001h-447.998v32.001z" />
<glyph unicode="&#xe97c;" glyph-name="phone" data-tags="phone" d="M397.047 536.686l40.163 40.16c36.978 36.974 2.217 93.862-25.010 125.263-5.857 6.755-11.951 12.891-18.681 18.779-31.416 27.482-88.822 62.872-126.021 25.669l-46.926-46.93-23.197-36.050 0.964-10.916c9.171-103.81 72.771-297.431 146.833-371.494 74.059-74.059 267.683-137.658 371.489-146.828l10.917-0.965 36.049 23.198 46.931 46.926c37.641 37.637 1.007 96.085-26.992 127.52-3.828 4.297-7.806 8.402-12.026 12.316-31.402 29.117-92.145 68.427-130.693 29.876l-40.163-40.164c-55.143-22.067-120.199 2.86-160.492 43.151-40.291 40.292-65.212 105.347-43.146 160.489zM367.8 303.794l-0.004 0.004c-70.303 66.927-129.204 256.859-137.581 351.678l15.411 23.948 44.501 44.506c18.824 18.824 59.156-6.864 82.322-27.129 5.83-5.101 10.481-9.786 15.573-15.657 20.171-23.263 45.211-63.022 26.561-81.671l-44.505-44.504c-31.016-67.796-4.692-149.733 47.487-201.401l0.005-0.004c51.668-52.179 133.604-78.503 201.401-47.487h0.003l44.501 44.505c19.956 19.957 64.083-10.117 86.306-30.715 3.525-3.269 6.659-6.51 9.889-10.135 20.418-22.931 47.44-64.431 28.261-83.608l-44.505-44.501-23.949-15.41c-94.819 8.376-284.751 67.278-351.677 137.58z" />
<glyph unicode="&#xe97d;" glyph-name="call-end" data-tags="call-end" d="M655.996 403.422l-0.003-56.797c-0.002-52.292 64.803-67.938 106.259-70.889 8.918-0.635 17.566-0.665 26.488-0.070 41.648 2.782 107.264 18.35 107.261 70.959l-0.003 66.366-9.088 41.894-8.401 7.037c-79.889 66.92-261.772 158.859-366.512 158.859-104.736 0-286.62-91.941-366.506-158.859l-8.401-7.037-9.088-41.894-0.003-66.366c-0.003-53.231 67.231-68.654 109.256-71.084 5.746-0.332 11.461-0.422 17.212-0.205 42.794 1.615 113.541 16.77 113.54 71.288l-0.001 56.8c23.388 54.596 87.015 82.972 143.997 82.972s120.604-28.379 143.993-82.974zM511.997 588.782h0.006c97.035 2.387 272.987-90.266 345.957-151.39l6.038-27.831 0.003-62.937c0-26.622-46.683-36.976-77.394-39.028-7.729-0.516-14.331-0.493-22.083 0.059-30.714 2.186-76.533 12.594-76.532 38.968l0.003 62.936-0.002 0.003c-26.008 69.871-102.56 109.195-175.991 108.834h-0.006c-73.431 0.361-149.983-38.963-175.991-108.834l-0.002-0.003 0.003-62.936c0-28.222-52.468-38.16-82.746-39.309-4.804-0.18-9.311-0.105-14.159 0.174-30.652 1.778-79.104 12.015-79.103 39.135l0.003 62.937 6.038 27.831c72.97 61.125 248.922 153.777 345.957 151.39z" />
<glyph unicode="&#xe97e;" glyph-name="call-answer" data-tags="call-answer" d="M655.996 492.577l-0.003 56.797c-0.002 52.292 64.803 67.938 106.259 70.889 8.918 0.635 17.566 0.665 26.488 0.070 41.648-2.782 107.264-18.35 107.261-70.959l-0.003-66.366-9.088-41.894-8.401-7.037c-79.889-66.92-261.772-158.859-366.512-158.859-104.736 0-286.62 91.941-366.506 158.859l-8.401 7.037-9.088 41.894-0.003 66.366c-0.003 53.231 67.231 68.654 109.256 71.084 5.746 0.332 11.461 0.422 17.212 0.205 42.794-1.615 113.541-16.77 113.54-71.288l-0.001-56.8c23.388-54.596 87.015-82.972 143.997-82.972s120.604 28.379 143.993 82.974zM511.997 307.217h0.006c97.035-2.387 272.987 90.266 345.957 151.39l6.038 27.831 0.003 62.937c0 26.622-46.683 36.976-77.394 39.028-7.729 0.516-14.331 0.493-22.083-0.059-30.714-2.186-76.533-12.594-76.532-38.968l0.003-62.936-0.002-0.003c-26.008-69.871-102.56-109.195-175.991-108.834h-0.006c-73.431-0.361-149.983 38.963-175.991 108.834l-0.002 0.003 0.003 62.936c0 28.222-52.468 38.16-82.746 39.309-4.804 0.18-9.311 0.105-14.159-0.174-30.652-1.778-79.104-12.015-79.103-39.135l0.003-62.937 6.038-27.831c72.97-61.125 248.922-153.777 345.957-151.39z" />
<glyph unicode="&#xe97f;" glyph-name="phone2" data-tags="phone2" d="M195.219 131.218c174.953-174.952 458.608-174.951 633.561 0.002s174.953 458.607 0 633.559c-174.952 174.953-458.607 174.953-633.56 0s-174.953-458.608-0.001-633.561zM217.845 153.844c-162.458 162.458-162.458 425.854 0 588.312s425.854 162.458 588.312 0c162.458-162.458 162.457-425.853-0.001-588.311s-425.853-162.459-588.311-0.001zM406.625 342.624c48.673-51.128 186.806-93.965 255.764-100.056l17.416 11.208 32.369 32.364c13.276 13.274-3.887 41.256-18.379 58.302-3.158 3.715-6.269 7.029-9.815 10.288-16.301 14.964-47.94 36.304-62.32 21.924l-32.368-32.369c-49.305-22.557-108.895-3.412-146.471 34.536l-0.005 0.004c-37.947 37.576-57.092 97.166-34.535 146.471l32.368 32.368c13.939 13.937-5.678 44.085-20.524 60.77-3.171 3.564-6.132 6.499-9.723 9.665-16.779 14.787-46.469 33.877-60.266 20.079l-32.365-32.368-11.207-17.417c6.091-68.958 48.928-207.092 100.056-255.763l0.004-0.005zM435.369 507.133c-13.579-36.444 3.706-79.31 30.077-105.68s69.235-43.661 105.681-30.080l27.906 27.907c32.060 32.062 79.935 3.506 106.595-20.984 4.479-4.114 8.61-8.495 12.548-13.127 22.653-26.646 47.035-71.253 16.625-101.659l-34.794-34.79-29.517-18.993-10.916 0.965c-77.672 6.861-220.174 53.904-275.576 109.305-55.404 55.404-102.448 197.903-109.309 275.58l-0.965 10.916 18.993 29.518 34.789 34.793c31.316 31.32 77.474 4.724 104.053-18.696 4.434-3.908 8.542-7.985 12.472-12.402 23.648-26.577 50.761-73.159 19.244-104.671l-27.907-27.902z" />
<glyph unicode="&#xe980;" glyph-name="call-end-circle" data-tags="call-end-circle" d="M607.997 413.728l-0.003-39.463c-0.003-44.569 52.106-58.335 87.622-60.406 5.901-0.344 11.69-0.323 17.588 0.050 35.355 2.233 86.799 16.066 86.796 60.356l-0.003 49.203-7.441 34.302-8.401 7.037c-59.777 50.074-193.805 117.571-272.158 117.571-78.349 0-212.378-67.499-272.152-117.571l-8.401-7.037-7.441-34.302-0.003-49.203c-0.003-43.004 48.78-57.305 83.639-60.128 6.060-0.49 12.078-0.668 18.154-0.41 36.169 1.535 90.213 15.195 90.212 60.537l-0.001 39.466c16.168 35.374 58.705 53.458 95.998 53.458s79.826-18.088 95.994-53.46zM511.997 550.377c-70.57 1.737-198.535-65.648-251.603-110.102l-4.391-20.24-0.003-45.773c-0.001-18.774 31.921-26.423 54.222-28.231 4.86-0.393 9.403-0.537 14.215-0.334 22.107 0.945 59.569 8.228 59.569 28.564l-0.003 45.772 0.002 0.003c18.914 50.814 74.588 79.413 127.992 79.15h0.006c53.403 0.263 109.078-28.336 127.992-79.15l0.002-0.003-0.003-45.772c-0.001-19.71 35.189-27.158 57.484-28.458 4.762-0.278 8.931-0.261 13.708 0.041 22.322 1.409 56.814 8.904 56.814 28.417l-0.003 45.773-4.391 20.24c-53.068 44.454-181.033 111.838-251.603 110.102h-0.006zM512 863.999c-229.75 0-415.998-186.25-415.998-416s186.248-415.999 415.998-415.999c229.75 0 415.999 186.249 415.999 415.999s-186.249 416-415.999 416zM512 895.995c247.421 0 447.995-200.575 447.995-447.996s-200.574-447.995-447.995-447.995c-247.421 0-447.994 200.574-447.994 447.995s200.573 447.996 447.994 447.996z" />
<glyph unicode="&#xe981;" glyph-name="call-answer-circle" data-tags="call-answer-circle" d="M607.997 482.272l-0.003 39.463c-0.003 44.569 52.106 58.335 87.622 60.406 5.901 0.344 11.69 0.323 17.588-0.050 35.355-2.233 86.799-16.066 86.796-60.356l-0.003-49.203-7.441-34.302-8.401-7.037c-59.777-50.074-193.805-117.571-272.158-117.571-78.349 0-212.378 67.499-272.152 117.571l-8.401 7.037-7.441 34.302-0.003 49.203c-0.003 43.004 48.78 57.305 83.639 60.128 6.060 0.49 12.078 0.668 18.154 0.41 36.169-1.535 90.213-15.195 90.212-60.537l-0.001-39.466c16.168-35.374 58.705-53.458 95.998-53.458s79.826 18.088 95.994 53.46zM511.997 345.623c-70.57-1.737-198.535 65.648-251.603 110.102l-4.391 20.24-0.003 45.773c-0.001 18.774 31.921 26.423 54.222 28.231 4.86 0.393 9.403 0.537 14.215 0.334 22.107-0.945 59.569-8.228 59.569-28.564l-0.003-45.772 0.002-0.003c18.914-50.814 74.588-79.413 127.992-79.15h0.006c53.403-0.263 109.078 28.336 127.992 79.15l0.002 0.003-0.003 45.772c-0.001 19.71 35.189 27.158 57.484 28.458 4.762 0.278 8.931 0.261 13.708-0.041 22.322-1.409 56.814-8.904 56.814-28.417l-0.003-45.773-4.391-20.24c-53.068-44.454-181.033-111.838-251.603-110.102h-0.006zM512 32.001c-229.75 0-415.998 186.25-415.998 416s186.248 415.999 415.998 415.999c229.75 0 415.999-186.249 415.999-415.999s-186.249-416-415.999-416zM512 0.005c247.421 0 447.995 200.575 447.995 447.996s-200.574 447.995-447.995 447.995c-247.421 0-447.994-200.574-447.994-447.995s200.573-447.996 447.994-447.996z" />
<glyph unicode="&#xe982;" glyph-name="catalog2" data-tags="catalog2" d="M160.001 96.001v15.999l-16.001 0.001c-8.836 0-16 7.164-16 16s7.164 16 16 16h16.001v31.999l-16.001 0.001c-8.836 0-16 7.164-16 16s7.164 16 16 16h16.001v31.999l-16.001 0.001c-8.836 0-16 7.164-16 16s7.164 16 16 16h16.001v31.999l-16.001 0.001c-8.836 0-16 7.164-16 16s7.164 16 16 16h16.001v31.999l-16.001 0.001c-8.836 0-16 7.164-16 16s7.164 16 16 16h16.001v31.999l-16.001 0.001c-8.836 0-16 7.164-16 16s7.164 16 16 16h16.001v31.999l-16.001 0.001c-8.836 0-16 7.164-16 16s7.164 16 16 16h16.001v31.999l-16.001 0.001c-8.836 0-16 7.164-16 16s7.164 16 16 16h16.001v31.999l-16.001 0.001c-8.836 0-16 7.164-16 16s7.164 16 16 16h16.001v31.999l-16.001 0.001c-8.836 0-16 7.164-16 16s7.164 16 16 16h16.001v31.999l-16.001 0.001c-8.836 0-16 7.164-16 16s7.164 16 16 16h16.001v15.998c0 17.601 14.404 32 32 32h672c17.596 0 32-14.433 32-32v-703.998c0-17.573-14.404-32-32-32-150.516 0-505.727 0-672 0-17.596 0-32 14.399-32 32zM192.001 799.997v-703.994h672v703.994h-672z" />
<glyph unicode="&#xe983;" glyph-name="catalog" data-tags="catalog" d="M864.001 799.999c17.596 0 32-14.431 32-32 0-213.333 0-426.665 0-639.998 0-17.578-14.404-32-32-32 0 234.666 0 469.332 0 703.998zM144 112.001c-8.836 0-16 7.164-16 16s7.164 16 16 16h16.001v31.999l-16.001 0.001c-8.836 0-16 7.164-16 16s7.164 16 16 16h16.001v31.999l-16.001 0.001c-8.836 0-16 7.164-16 16s7.164 16 16 16h16.001v31.999l-16.001 0.001c-8.836 0-16 7.164-16 16s7.164 16 16 16h16.001v31.999l-16.001 0.001c-8.836 0-16 7.164-16 16s7.164 16 16 16h16.001v31.999l-16.001 0.001c-8.836 0-16 7.164-16 16s7.164 16 16 16h16.001v31.999l-16.001 0.001c-8.836 0-16 7.164-16 16s7.164 16 16 16h16.001v31.999l-16.001 0.001c-8.836 0-16 7.164-16 16s7.164 16 16 16h16.001v31.999l-16.001 0.001c-8.836 0-16 7.164-16 16s7.164 16 16 16h16.001v31.999l-16.001 0.001c-8.836 0-16 7.164-16 16s7.164 16 16 16h16.001v31.999l-16.001 0.001c-8.836 0-16 7.164-16 16s7.164 16 16 16h16.001v15.998c0 17.601 14.404 32 32 32h608c17.596 0 32-14.428 32-32v-703.998c0-17.578-14.404-32-32-32-150.516 0-441.727 0-608 0-17.596 0-32 14.399-32 32v15.999l-16.001 0.001zM192.001 799.997v-703.994h608v703.994h-608z" />
<glyph unicode="&#xe984;" glyph-name="change" data-tags="change" d="M768.001 320l127.998-80-127.998-80v64l-80.002 0.001-416 415.998-143.997 0.001v32h159.997l416.003-416 63.999 0.001v63.999zM128 256l143.999-0.001 167.999 168.001 24.001-24.002-175.997-175.998h-160.002v32zM512.001 496l176 175.999 80.001 0.001v64l127.998-80-127.998-80-0.001 63.999-64.002 0.002-167.998-167.999-23.999 23.998z" />
<glyph unicode="&#xe985;" glyph-name="change2" data-tags="change2" d="M895.998 240l-88.108-88.108-22.627 22.627 49.477 49.48-146.74 0.002-416 415.998-143.997 0.001v32h159.997l416.003-416 130.743 0.001-49.483 49.482 22.627 22.627 88.108-88.11zM793.372 598.625l-0.002 0.002 41.373 41.372-130.743 0.002-167.998-167.999-23.999 23.998 176 175.999h146.745l-49.483 49.482 22.627 22.627 88.109-88.109-88.109-88.109-22.627 22.627 8.108 8.108zM128 256l143.999-0.001 167.999 168.001 24.001-24.002-175.997-175.998h-160.002v32z" />
<glyph unicode="&#xe986;" glyph-name="change3" data-tags="change3" d="M536.002 483.946l151.999 151.998h146.745l-49.483 49.482 22.627 22.627 88.109-88.109-88.109-88.109-22.627 22.627 49.479 49.482-130.743 0.002-143.998-143.999-23.999 23.998zM230.63 562.571l0.002 0.002-41.374 41.373 130.74-0.001 416-415.998h160.001l0.001 32-143.999-0.001-416.003 416h-146.742l49.482 49.481-22.627 22.627-88.109-88.109 88.109-88.109 22.627 22.627-8.108 8.108zM128 219.946l143.999-0.001 191.999 192 24.001-24.002-199.996-199.997h-160.002v32z" />
</font>
</defs>
</svg>
