<?xml version="1.0" standalone="no"?>
<!DOCTYPE svg PUBLIC "-//W3C//DTD SVG 1.1//EN" "http://www.w3.org/Graphics/SVG/1.1/DTD/svg11.dtd" >
<svg xmlns="http://www.w3.org/2000/svg">
<metadata></metadata>
<defs>
<font id="orderlifticonsregular" horiz-adv-x="1000" >
<font-face units-per-em="1000" ascent="800" descent="-200" />
<missing-glyph horiz-adv-x="250" />
<glyph horiz-adv-x="0" />
<glyph unicode="&#xd;" horiz-adv-x="250" />
<glyph horiz-adv-x="0" />
<glyph horiz-adv-x="0" />
<glyph unicode=" "  horiz-adv-x="250" />
<glyph unicode="&#x09;" horiz-adv-x="250" />
<glyph unicode="&#xa0;" horiz-adv-x="250" />
<glyph unicode="&#x2000;" horiz-adv-x="362" />
<glyph unicode="&#x2001;" horiz-adv-x="724" />
<glyph unicode="&#x2002;" horiz-adv-x="362" />
<glyph unicode="&#x2003;" horiz-adv-x="724" />
<glyph unicode="&#x2004;" horiz-adv-x="241" />
<glyph unicode="&#x2005;" horiz-adv-x="181" />
<glyph unicode="&#x2006;" horiz-adv-x="120" />
<glyph unicode="&#x2007;" horiz-adv-x="120" />
<glyph unicode="&#x2008;" horiz-adv-x="90" />
<glyph unicode="&#x2009;" horiz-adv-x="144" />
<glyph unicode="&#x200a;" horiz-adv-x="40" />
<glyph unicode="&#x202f;" horiz-adv-x="144" />
<glyph unicode="&#x205f;" horiz-adv-x="181" />
<glyph unicode="&#xe000;" horiz-adv-x="500" d="M0 0v0v0v0v0z" />
<glyph unicode="&#xf001;" d="M856 182h-102v440h102v-440zM720 413q-26 45 -68 77v132h68v-209zM619 512q-8 4 -17 7.5t-17 7.5v95h34v-110zM551 536q-27 6 -53 6q-12 0 -24.5 -1.5t-24.5 -3.5v85h102v-86zM415 528q-37 -12 -68 -36v130h68v-94zM314 463q-21 -21 -34 -44v203h34v-159zM498 64 q-30 0 -59.5 8t-55.5 24l-140 -118l-52 52l118 140q-32 53 -32 116q0 46 17.5 86t47.5 70t70 47.5t86 17.5t86.5 -17.5t70.5 -47.5t47.5 -70t17.5 -86t-17.5 -86.5t-47.5 -70.5t-70.5 -47.5t-86.5 -17.5zM246 182h-102v440h102v-440zM641 286q0 29 -11 55t-30.5 45.5 t-45.5 31t-56 11.5t-56 -11t-45.5 -30.5t-30.5 -45.5t-11 -56t11 -56.5t30.5 -46t45.5 -30.5t56 -11t56 11.5t45.5 31t30.5 45.5t11 56z" />
<glyph unicode="&#xf002;" d="M822 12h-644v305l135 271h374l135 -271v-305zM754 317l-102 220h-305l-101 -220h101l34 -102h238l34 102h101zM585 80v67h-170v-67h170z" />
<glyph unicode="&#xf003;" d="M822 12h-644v305l135 271h374l135 -271v-305zM652 520v34h-304v-34h304zM678 469v34h-356v-34h356zM703 419v34h-406v-34h406zM728 368v34h-456v-34h456zM754 317v34h-508v-34h101l34 -102h238l34 102h101zM585 80v67h-170v-67h170z" />
<glyph unicode="&#xf004;" d="M788 -22h-576v644h576v-644zM720 46v508h-440v-508h440zM644 411l-168 -168l-120 120l48 48l72 -72l120 120z" />
<glyph unicode="&#xf005;" d="M788 -22h-576v644h576v-644zM720 147v407h-440v-407h440zM720 97v34h-440v-34h440zM720 46v34h-440v-34h440zM644 411l-168 -168l-120 120l48 48l72 -72l120 120z" />
<glyph unicode="&#xf006;" d="M822 260l-96 -41q-2 -5 -4.5 -10.5t-4.5 -11.5l40 -96l-57 -57l-97 39q-5 -2 -11 -4.5t-11 -4.5l-40 -96h-81l-40 95q-6 2 -12 4.5t-12 5.5l-95 -40l-57 57l38 96l-9 24l-95 39v81l95 40l9 24l-39 95l57 57l96 -39q11 5 23 10l40 95h81l40 -96q13 -3 23 -9l96 40l57 -57 l-39 -97q2 -5 4.5 -11t4.5 -11l96 -40v-81zM620 300q0 25 -9.5 47t-26 38.5t-38.5 26t-47 9.5t-46.5 -9.5t-38 -26t-26 -38.5t-9.5 -47t9.5 -47t26 -38.5t38 -26t46.5 -9.5t47 9.5t38.5 26t26 38.5t9.5 47z" />
<glyph unicode="&#xf007;" d="M788 298q0 18 -3 36q-5 0 -11 -3q-2 1 -7 1q-6 0 -11 -3.5t-3 -10.5q-8 -5 -14 -10t-13 -11l4 -8q-1 -5 -1.5 -9.5t-2.5 -9.5q8 -1 10.5 -4.5t6 -7t12.5 -6t29 -1.5q-9 -52 -35 -95.5t-63.5 -75.5t-85.5 -50t-100 -18q-60 0 -112.5 22.5t-91.5 61.5t-61.5 91.5 t-22.5 112.5q0 52 18 101t52 88q4 -3 5.5 -3.5t6.5 -1.5q-3 -3 -3 -5q2 -8 1 -10t0 -8q0 -5 5.5 -8.5t7.5 -11.5q-2 0 -3 0.5t-3 0.5q-5 0 -8.5 -10t-3.5 -14t6 -14t13.5 -21t15.5 -19.5t12 -8.5h1q-8 14 -16 25q15 -9 21 -19t12.5 -19.5t18.5 -17t40 -12.5q3 -6 6 -7.5 t9 -2.5l6 -8q6 -4 9 -6.5t6 -4t7 -3t12 -2.5q4 -4 4 -8t-5.5 -6.5t-7.5 -4.5q1 -4 0 -6t-1 -5q0 -6 9.5 -17t12.5 -17q6 -9 16 -13.5t10 -16.5q0 -5 -1.5 -9t-0.5 -9l-5 -7l2 -16l-3 -1q-1 -8 0 -14t1 -14q0 -4 -6 -6l4 -18q5 -5 7 -7.5t3 -9.5q2 -2 7 -3.5t8 -1.5l2 4 l-9 13l8 8v7q2 5 4.5 8t3.5 8l7 7h3q3 0 9 1t6 6q0 3 -2 5q11 0 19 10q8 0 11 5.5t2 12.5l21 6v-1q8 4 16 14t6 18q3 1 10 8t7 10q0 2 -11 7t-14 6l-29 9q-2 1 -4.5 0.5t-4.5 -0.5q1 3 2.5 4t1.5 3v1l-53 30q-11 2 -18 4t-18 2l-1 3q-2 0 -3 0.5t-3 0.5q-5 0 -8.5 -1.5 t-8.5 -1.5t-13 2t-13 4l-1 5q0 3 1.5 2.5t1.5 2.5q0 5 -8.5 9t-13.5 6v2q0 2 1 3t1 3q0 5 -4.5 6t-8.5 1q-2 0 -3.5 -2.5t-4.5 -2.5q-7 0 -12 4.5t-9 9.5l1 11q4 2 5.5 3t6.5 1t10 -1l10 -2l1 3l19 -5q5 -6 6.5 -10t10.5 -6q-1 5 -3 8.5t-2 8.5q0 3 3 3.5t7 1.5t7 2.5t3 4.5 q0 5 -3 10l8 -2q3 5 6.5 6.5t6.5 2t5 2t2 6.5q2 0 3.5 -0.5t3.5 -0.5q3 0 5.5 1.5t7.5 0.5l2 2v7l6 5q-4 5 -8.5 4t-9.5 -1h-2q3 3 7 3.5t8 0.5q5 0 11 -1t11 -1q4 0 8.5 1t4.5 6t-7 7l2 4q-6 4 -7 8t-2 7.5t-3.5 6t-9.5 3.5l-6 -5q-3 2 -4 6t-3 7.5t-6 6.5t-13 3 q-1 0 -5 -2l-2 -10h-2l-9 -15l-7 -5q0 -2 -1.5 -6.5t-3.5 -4.5l-8 5q2 6 2 8q0 9 -10.5 10.5t-16.5 5.5l3 6q-4 2 -4 6q0 5 9 8.5t13 4.5q10 1 11.5 3t9.5 7l16 -1q2 2 5.5 6t3.5 7q0 2 -2.5 2h-3.5q-4 0 -7.5 -4t-8.5 -3h-3q4 4 4 7q0 1 -3 1h-4q0 2 0.5 4t0.5 4t-1 4t-3 3 l-7 -3q-4 -5 -4.5 -8t-5.5 -8q-3 1 -3 3t-3 2q-5 0 -11 -4l-9 9h-4q-5 1 -7.5 -2t-6.5 -5q-4 5 -3 6.5t-10 2.5q1 1 1 4q0 2 -5.5 4.5t-7.5 3.5h-12q2 5 -4 5q-2 0 -5 -1t-5 -2q-1 2 -4 2h-4q-3 0 -5.5 -1t-4.5 -1l-8 6q37 27 80.5 41t89.5 14q17 0 34 -2t34 -6h-4 q-8 0 -15.5 -0.5t-15.5 -0.5q-2 -2 -2 -5q0 -2 3.5 -4t5.5 -4q3 -1 6.5 -0.5t7.5 0.5q-10 -4 -14 -1l-7 -3q-1 -2 -1 -5h-4q-2 0 -4.5 -2.5t-1.5 -4.5h-3q-6 0 -11 -7q2 0 7.5 -0.5t5.5 -2.5q-1 -1 -1 -2l-5 2l-1 1l-10 -1q-2 4 -1.5 7t-5.5 3q-4 0 -8 -3l2 -11l4 -4l12 -2 t11 -1t11 4l-3 4l12 1v6h7q5 2 10 5t10 4q4 1 11 2t14 2.5t13 3.5t8 5l8 -4l-4 1q-1 0 -9.5 -3t-18.5 -7l-27 -9l12 -5l-11 -2v-3q0 -6 11 -7t16 -2q2 -2 3 -7.5t1 -8.5t-1.5 -5t-1.5 -4t3.5 -2t4.5 -1q1 -2 2.5 -3.5t1.5 -3.5q0 -5 -3 -7t-6 -3t-6 -2.5t-3 -4.5t2.5 -6 t4.5 -5l-5 -10l2 -5l8 -1q3 -2 5 -5.5t6 -3.5q3 0 6.5 3.5l7.5 7.5t9 7.5t11 3.5q1 0 11 3.5t12 4.5v-1l32 3l1 3q0 2 -2 3t-3 2l10 -4q1 2 1 5t-4 5l1 4l4 -4q4 0 7 3.5t5 5.5q36 -41 54.5 -90.5t18.5 -103.5zM773 384l-2 6q-3 3 -6.5 6t-7.5 5v7l-6 2t-6 1l-5 -5 q2 -9 11 -11q0 -3 -0.5 -5.5t-0.5 -4.5l-5 -6l2 -1h4q5 0 10 2t11 2zM783 344q-3 19 -9 37q-5 -4 -10 -4t-10 -2l-2 -1q0 -6 7 -6.5t9 -5.5l-1 -3l-28 1l-3 -1l4.5 -7.5t1.5 -7.5t6.5 -7t9.5 -2h16q9 0 8 3t1 6zM532 565q0 2 -3.5 5.5l-5.5 5.5q-4 1 -11 -3.5t-2 -8.5 q-1 -2 -2.5 -3t-1.5 -3q0 -5 5 -5q4 0 12.5 4t8.5 8zM559 480l-14 12l3 6q-3 3 -8 6t-7 5q-4 5 -3.5 9.5t-7.5 5.5l-5 -7q-2 3 -1.5 6t-6.5 3q-3 0 -6.5 -2.5t-5.5 -3.5q1 2 3 3.5t2 3.5q0 1 -4 1q-5 0 -10.5 -5.5l-7.5 -7.5h1q1 -2 1 -3.5t1 -3.5h11q4 -1 6.5 -2t5.5 -2 l5 2l8 -13q-2 -2 -4 -8h-6v-1l-12 -6l1 -4l12 -1q5 -5 8.5 -10.5t13.5 -5.5q1 0 1 2q0 3 -2 7q4 -2 6 -2t3 1t3 2l-7 9l1 1q4 -1 7.5 -3t5.5 -2t4.5 3t4.5 5zM447 532q-2 3 -7 3q-3 0 -5.5 -2.5l-4.5 -4.5l3 8q-2 0 -3.5 -0.5t-3.5 -0.5t-3.5 1.5l-3.5 3.5q-5 0 -12 -3 t-7 -8q0 -8 4.5 -12.5t13.5 -0.5l14 -3l12 5q1 1 1 2q0 2 -2.5 2.5t-2.5 2.5q0 1 3 3.5t4 3.5z" />
<glyph unicode="&#xf008;" d="M822 -22h-644v10q0 14 1.5 38t10.5 35q10 12 30 23.5t42.5 22t44.5 19t36 14.5q20 8 34 28t22 39q1 0 2 -0.5t2 -0.5q7 0 8.5 5.5t1.5 10.5q0 8 -9 12q-8 10 -13 29.5t-7 32.5q-11 4 -17.5 14t-10 22t-4.5 25t-1 22v11.5t1 11.5l10 3q-3 5 -6 19.5t-5.5 30.5t-4 31 t-1.5 22q0 12 4.5 26t12.5 26t19 20t25 7q0 12 13.5 18.5t30.5 10.5t34 5t24 1q1 0 7.5 -1.5t14 -4l13.5 -4.5t8 -2q40 -13 69 -45.5t29 -76.5q0 -23 -3 -43.5t-8 -42.5h10q1 -6 1 -11.5v-11.5q0 -8 -1.5 -21t-5 -26.5t-10 -23.5t-16.5 -12q-1 -4 -2.5 -13.5t-4.5 -20 t-6.5 -19t-7.5 -9.5l-6 -3q-3 -5 -3 -9q0 -8 3 -13t12 -2q3 -8 5.5 -18t6 -19.5t9 -18t13.5 -11.5q9 -3 34.5 -13.5t54.5 -22.5t54 -24t31 -19q4 -5 6.5 -13t4 -18t2 -19.5t0.5 -15.5v-17z" />
<glyph unicode="&#xf009;" d="M822 -22h-644v460l323 184l321 -184v-460zM756 407l-258 145l-258 -145h516zM761 65v276l-260 -180l-262 180v-276l193 118l-151 -144h438l-152 144z" />
<glyph unicode="&#xf00a;" d="M822 -22h-644v460l323 184l321 -184v-460zM756 407l-258 145l-258 -145h516zM632 314l-283 70l-12 -49l164 -113zM761 65v276l-260 -180l-262 180v-276l193 118l-151 -144h438l-152 144z" />
<glyph unicode="&#xf00b;" d="M924 554l-102 -339h-490l16 -67h450l-20 -68h-464l-128 508h-110v68h153l24 -102h671zM754 -5q0 -21 -14.5 -36t-35.5 -15t-36 15t-15 36t15 36t36 15t35.5 -15.5t14.5 -35.5zM448 -5q0 -21 -14.5 -36t-35.5 -15t-36 15t-15 36t15 36t36 15t35.5 -15.5t14.5 -35.5z M844 486h-564l44 -203h468z" />
<glyph unicode="&#xf00c;" d="M924 554l-102 -339h-490l16 -67h450l-20 -68h-464l-128 508h-110v68h153l24 -102h671zM754 -5q0 -21 -14.5 -36t-35.5 -15t-36 15t-15 36t15 36t36 15t35.5 -15.5t14.5 -35.5zM448 -5q0 -21 -14.5 -36t-35.5 -15t-36 15t-15 36t15 36t36 15t35.5 -15.5t14.5 -35.5z" />
<glyph unicode="&#xf00d;" d="M534 622q0 -14 -10 -24t-24 -10t-24 10t-10 24t10 24t24 10t24 -10t10 -24zM812 99q0 -12 -8.5 -21t-21.5 -9h-564q-13 0 -21.5 9t-8.5 21q0 11 6.5 19.5t17.5 10.5h-7h13q13 0 29 8t31 20t25 26.5t11 27.5q1 47 0.5 93.5t-0.5 93.5q0 39 14.5 73.5t39.5 60.5t59 41 t73 15t73 -15t59 -41t39.5 -60.5t14.5 -73.5q0 -47 -1 -93.5t1 -93.5q1 -13 11 -27.5t25 -26.5t31 -20t29 -8h13h-8q11 -2 18 -10.5t7 -19.5zM551 -5q0 -21 -15 -36t-36 -15t-36 15t-15 36t15 36t36 15t36 -15t15 -36z" />
<glyph unicode="&#xf00e;" d="M890 46q0 -14 -9 -24t-23 -10h-580q-14 0 -23 10t-9 24v135l-136 119l136 119v135q0 14 10 24t24 10h577q14 0 23.5 -10t9.5 -24v-508z" />
<glyph unicode="&#xf011;" d="M754 -22h-508v644h373l135 -136v-508zM686 46v423h-84v85h-288v-508h372zM585 297h-170v3q0 16 7 22t17 9.5t19.5 7.5t14.5 18h2l1 1l1 3l-1 2l-1 1q-3 3 -4 7.5t-1 9.5h-2q-5 3 -6.5 9.5t-0.5 11.5v6l3 1q-5 15 -5 27q0 4 2.5 9.5t4.5 8.5q2 1 4.5 2.5t4.5 0.5 q4 7 12.5 8t14.5 1q14 0 25.5 -10.5t11.5 -24.5q0 -11 -3 -23h3v-6q1 -5 -0.5 -11.5t-6.5 -9.5h-2q0 -5 -1 -9.5t-4 -7.5l-2 -1v-2l1 -3q0 -1 3 -1q5 -17 15 -21.5t19.5 -7t16.5 -7t7 -20.5v-4zM642 195h-284v34h284v-34zM642 127h-284v34h284v-34z" />
<glyph unicode="&#xf012;" d="M822 571h-644v51h644v-51zM805 249h-610v305h610v-305zM647 -22h-57l-62 64v-64h-56v64l-62 -64h-57l119 123v123h56v-123z" />
<glyph unicode="&#xf013;" d="M796 386l-2 4l2 4v-8zM822 467l-52 -77l51 -77h-76v-258h13v239h38v-290h-51v-26h-541q-11 0 -18.5 7.5t-7.5 18.5v592q0 11 7.5 18.5t18.5 7.5h541v-26h51v-109h-38v58h-13v-78h77zM697 30l-4 540h-360v-540h364zM580 380h-161v81h161v-81z" />
<glyph unicode="&#xf014;" d="M820 43l-41 -41l-110 92q-42 -25 -91 -25q-36 0 -67.5 13.5t-55.5 37.5t-37.5 55.5t-13.5 67.5t13.5 67.5t37.5 55.5t55.5 37.5t67.5 13.5t67.5 -13.5t55.5 -37.5t37.5 -55.5t13.5 -67.5q0 -50 -25 -91zM689 -22h-509v644h362l147 -147v-67q-33 20 -68 29v10h-107v107 h-266v-508q83 0 165 -0.5t165 -0.5q11 0 21.5 0.5t21.5 0.5v4q36 7 68 29v-101zM383 210h-81v52h79q0 -4 -0.5 -7.5t-0.5 -7.5v-7q0 -15 3 -30zM434 107h-132v51h97q13 -27 35 -51zM709 243q0 27 -10.5 51t-28 41.5t-41.5 28t-51 10.5t-51 -10.5t-41.5 -28t-28 -41.5 t-10.5 -51t10.5 -51t28 -41.5t41.5 -28t51 -10.5t51 10.5t41.5 28t28 41.5t10.5 51zM687 243q0 -45 -32 -77v154q32 -32 32 -77zM586 210h-111q-5 14 -5 33q0 13 3.5 29t11.5 27h101v-89zM586 135l-8 -1q-36 0 -68 24l-8.5 8.5t-7.5 8.5h92v-40z" />
<glyph unicode="&#xf015;" d="M742 413q0 -53 -25.5 -108t-62.5 -108t-79 -100.5t-75 -84.5q-33 37 -75 85t-79 100.5t-62.5 108t-25.5 107.5q0 50 19 94.5t52 77.5t77 52t94 19t94 -19t77 -52t52 -77.5t19 -94.5zM754 -22q0 -5 -8 -8.5t-12 -4.5q-21 -7 -52 -11t-64 -6.5t-64.5 -3t-53.5 -0.5 q-23 0 -54 0.5t-64 3t-64 6.5t-52 11q-4 1 -12 4.5t-8 8.5q0 7 14.5 12t37 8.5t49.5 6t51.5 4t44 2.5t26.5 1l31 -36l31 36q7 0 26.5 -1t44 -2.5t51.5 -4t49.5 -6t37 -8.5t14.5 -12zM609 452q0 22 -8.5 42t-23.5 35t-35 23.5t-42 8.5q-23 0 -42.5 -8.5t-34.5 -23.5 t-23.5 -35t-8.5 -42q0 -23 8.5 -42.5t23.5 -34.5t34.5 -23.5t42.5 -8.5q22 0 42 8.5t35 23.5t23.5 34.5t8.5 42.5z" />
<glyph unicode="&#xf016;" d="M652 621l-31 -325l-33 5l-88 168l-88 -168l-33 -5l-32 325h305zM720 250l-103 -115l19 -156l-136 67l-136 -67l19 156l-103 115l147 30l73 138l73 -138zM652 228l-103 20l-49 94l-49 -94l-104 -20l73 -81l-13 -108l93 46l93 -46l-13 108z" />
<glyph unicode="&#xf017;" d="M754 -22h-508v644h508v-644zM686 46v508h-372v-508h372zM585 443l-40 -44l7 -61l-52 26l-52 -26l7 61l-40 44l57 11l28 53l28 -53zM651 232h-283v34h283v-34zM651 164h-283v34h283v-34zM651 97h-283v34h283v-34z" />
<glyph unicode="&#xf018;" d="M822 503h-644v85h644v-85zM822 340h-644v84h644v-84zM822 176h-644v84h644v-84zM822 12h-644v85h644v-85z" />
<glyph unicode="&#xf019;" d="M822 317h-305v271h305v-271zM822 12h-305v271h305v-271zM483 317h-305v271h305v-271zM483 12h-305v271h305v-271z" />
<glyph unicode="&#xf01a;" d="M822 543h-305v45h305v-45zM822 447h-305v45h305v-45zM822 351h-305v45h305v-45zM822 204h-305v45h305v-45zM822 108h-305v45h305v-45zM449 351h-271v237h271v-237zM822 12h-305v45h305v-45zM449 12h-271v237h271v-237z" />
<glyph unicode="&#xf01b;" d="M742 414q0 -53 -25.5 -108.5t-62.5 -108.5t-79 -100.5t-75 -84.5q-33 37 -75 85t-79 101t-62.5 108t-25.5 108q0 50 19 94t52 77t77 52t94 19t94 -19t77 -52t52 -77t19 -94zM609 452q0 22 -8.5 42t-23.5 35t-35 23.5t-42 8.5q-23 0 -42.5 -8.5t-34.5 -23.5t-23.5 -35 t-8.5 -42t8.5 -41.5t23.5 -34.5t34.5 -23.5t42.5 -8.5q22 0 42 8.5t35 23t23.5 34t8.5 42.5z" />
<glyph unicode="&#xf01c;" d="M890 304q-27 -46 -60 -89t-72 -80t-84.5 -66t-96.5 -46q-17 -5 -37.5 -10t-39.5 -5q-18 0 -39 5t-38 10q-51 17 -96.5 46t-84.5 66t-72 80t-60 89q27 44 59 85t70 76t81.5 63t92.5 46q18 6 42.5 12t44.5 6t44.5 -6t42.5 -12q49 -18 92.5 -46t81.5 -63t70 -76t59 -85z M695 300q0 40 -15.5 76t-41.5 62t-62 41.5t-76 15.5q-41 0 -76.5 -15.5t-61.5 -42t-41.5 -62t-15.5 -75.5t15.5 -75.5t42 -62t62 -42t75.5 -15.5t75.5 15.5t62 41.5t42 61.5t15.5 76.5zM597 300q0 -41 -28 -69.5t-69 -28.5t-69.5 28.5t-28.5 69.5q0 20 7.5 37.5t21 31 t31.5 21t38 7.5t38 -7.5t31 -21t20.5 -31t7.5 -37.5z" />
<glyph unicode="&#xf01d;" d="M890 304q-27 -45 -59.5 -87.5t-70.5 -79.5t-82.5 -65.5t-95.5 -46.5q-18 -6 -40 -11.5t-42 -5.5q-33 0 -64.5 8.5t-60.5 22.5l73 73q24 -7 52 -7q40 0 75.5 15.5t62 41.5t42 61.5t15.5 76.5q0 28 -7 52l91 92q31 -32 59.5 -67t51.5 -73zM581 245q-11 -16 -27 -26z M822 548l-570 -570l-74 74l75 75q-41 38 -77.5 83.5t-65.5 93.5q27 44 60 86t71.5 77.5t83 63.5t94.5 45q18 6 39.5 11t41.5 5q45 0 86.5 -15t78.5 -38l83 83zM595 470q-45 25 -95 25q-41 0 -76.5 -15.5t-61.5 -42t-41.5 -62t-15.5 -75.5q0 -49 25 -96l75 75q-3 10 -3 21 q0 20 7.5 37.5t21 31t31.5 21t38 7.5q5 0 10.5 -0.5t10.5 -1.5z" />
<glyph unicode="&#xf01e;" d="M822 525q0 -13 -7 -25t-17.5 -22.5t-21.5 -20t-19 -17.5l-117 117q8 8 17.5 19t20 21.5t22.5 17.5t25 7q20 0 33 -12.5t26 -25.5q14 -13 26 -26t12 -33zM716 399l-363 -364l-175 -57l57 175l364 363zM614 438q0 5 -4.5 9t-9.5 4q-4 0 -8 -4l-289 -289q-5 -3 -5 -9 t4.5 -9.5t9.5 -3.5q4 0 9 3l289 290q4 4 4 9z" />
<glyph unicode="&#xf021;" d="M876 20l-96 -96l-198 198q-34 -20 -72.5 -31t-78.5 -11q-60 0 -112 22.5t-91 61.5t-61.5 91.5t-22.5 112.5t22.5 112.5t61.5 91.5t91.5 61.5t112.5 22.5t112.5 -22.5t91.5 -61.5t61.5 -91t22.5 -112q0 -40 -11 -78.5t-31 -72.5zM619 368q0 39 -14.5 72.5t-40 59t-59.5 40 t-73 14.5t-72.5 -14.5t-59 -40t-40 -59t-14.5 -72.5t14.5 -73t40 -59.5t59 -40t72.5 -14.5t73 14.5t59.5 40t40 59.5t14.5 73z" />
<glyph unicode="&#xf022;" d="M876 20l-96 -96l-198 198q-68 -42 -150 -42q-60 0 -112.5 22.5t-91.5 61.5t-61.5 91.5t-22.5 112.5t22.5 112.5t61.5 91.5t91.5 61.5t112.5 22.5t112.5 -22.5t91.5 -61.5t61.5 -91.5t22.5 -112.5q0 -40 -10.5 -78t-31.5 -72zM619 368q0 39 -14.5 72.5t-40 59t-59.5 40 t-73 14.5t-72.5 -14.5t-59 -40t-40 -59t-14.5 -72.5t14.5 -73t40 -59.5t59 -40t72.5 -14.5t73 14.5t59.5 40t40 59.5t14.5 73zM546 339h-91v-91h-57v91h-90v57h90v90h57v-90h91v-57z" />
<glyph unicode="&#xf023;" d="M876 20l-96 -96l-198 198q-68 -42 -150 -42q-60 0 -112.5 22.5t-91.5 61.5t-61.5 91.5t-22.5 112.5t22.5 112.5t61.5 91.5t91.5 61.5t112.5 22.5t112.5 -22.5t91.5 -61.5t61.5 -91.5t22.5 -112.5q0 -40 -10.5 -78t-31.5 -72zM619 368q0 39 -14.5 72.5t-40 59t-59.5 40 t-73 14.5t-72.5 -14.5t-59 -40t-40 -59t-14.5 -72.5t14.5 -73t40 -59.5t59 -40t72.5 -14.5t73 14.5t59.5 40t40 59.5t14.5 73zM546 339h-238v57h238v-57z" />
<glyph unicode="&#xf024;" d="M890 271q0 -31 -10 -58t-27 -50.5t-40 -42t-48 -32.5l47 -110l-180 67q-14 -2 -29 -3.5t-30 -1.5q-52 0 -103 13.5t-96 39.5l11 6q11 -1 21 -1.5t21 -0.5q64 0 131.5 18.5t123 55t91 92t35.5 129.5q0 8 -0.5 16.5t-1.5 16.5q36 -29 60 -67.5t24 -86.5zM743 392 q0 -59 -31 -102t-78 -72t-102.5 -43t-104.5 -14q-15 0 -30 1t-29 3l-180 -66l47 110q-52 28 -88.5 74.5t-36.5 108.5q0 58 31 101.5t78 72t102.5 42.5t105.5 14q49 0 104.5 -14t102.5 -42.5t78 -72t31 -101.5z" />
<glyph unicode="&#xf025;" d="M856 419l-237 -187v102q-48 0 -94.5 -15.5t-86.5 -43t-72 -64.5t-52 -80q4 58 27 123t62.5 120.5t94 91.5t121.5 36v103zM856 -5h-712v610h68h271v-68h-271v-474h576v169l68 51v-288z" />
<glyph unicode="&#xf026;" d="M818 410q0 -46 -24.5 -91.5t-56.5 -77.5l-237 -229l-238 230q-16 15 -30.5 35t-26 41.5t-18 45t-6.5 46.5q0 80 45.5 129t127.5 49q44 0 80 -24t66 -53q14 14 30.5 28t35.5 25t39 17.5t41 6.5q82 0 127 -48.5t45 -129.5z" />
<glyph unicode="&#xf027;" d="M788 -56h-576v373h68v119q0 45 17.5 85t47.5 70t70 47.5t85 17.5t85 -17.5t70 -47.5t47.5 -70t17.5 -85v-119h68v-373zM622 317v119q0 25 -9.5 47t-26 38.5t-39 26t-47.5 9.5t-47.5 -9.5t-39 -26t-26 -38.5t-9.5 -47v-119h244zM556 193q0 23 -16.5 39.5t-39.5 16.5 t-39.5 -16.5t-16.5 -39.5q0 -14 7.5 -27t20.5 -20l-23 -133h102l-23 132q12 8 20 21t8 27z" />
<glyph unicode="&#xf028;" d="M788 -56h-576v373h410v186q0 25 -9.5 47.5t-26 39t-39 26t-47.5 9.5q-30 0 -53 -11t-38.5 -30t-23 -44t-7.5 -53h-98v16q0 46 17 86t47 70t70 47.5t86 17.5q45 0 85 -17.5t70 -47.5t47.5 -70t17.5 -86v-186h68v-373zM556 193q0 23 -16.5 39.5t-39.5 16.5t-39.5 -16.5 t-16.5 -39.5q0 -14 7.5 -27t20.5 -20l-23 -134h102l-23 133q12 8 20 20.5t8 27.5z" />
<glyph unicode="&#xf029;" d="M822 147h-168l-154 136l-154 -136h-168l322 306z" />
<glyph unicode="&#xf02a;" d="M652 300l-305 -322v168l136 154l-136 154v168z" />
<glyph unicode="&#xf02b;" d="M822 453l-322 -306l-322 306h168l154 -136l154 136h168z" />
<glyph unicode="&#xf02c;" d="M653 -22l-305 322l305 322v-168l-136 -154l136 -154v-168z" />
<glyph unicode="&#xf02d;" d="M788 80l-288 271l-288 -271v155l288 285l288 -285v-155z" />
<glyph unicode="&#xf02e;" d="M720 300l-285 -288h-155l271 288l-271 288h155z" />
<glyph unicode="&#xf031;" d="M788 365l-288 -285l-288 285v155l288 -271l288 271v-155z" />
<glyph unicode="&#xf032;" d="M720 12h-155l-285 288l285 288h155l-271 -288z" />
<glyph unicode="&#xf033;" d="M754 239h-193v-193h-122v193h-193v122h193v193h122v-193h193v-122z" />
<glyph unicode="&#xf034;" d="M754 239h-508v122h508v-122z" />
<glyph unicode="&#xf035;" d="M754 419l-322 -322l-186 186l85 85l101 -102l237 237z" />
<glyph unicode="&#xf036;" d="M720 164l-84 -84l-136 135l-136 -135l-84 84l135 136l-135 136l84 84l136 -135l136 135l84 -84l-135 -136z" />
<glyph unicode="&#xf037;" d="M822 300q0 -66 -25.5 -125t-69 -102.5t-102 -69t-125.5 -25.5t-125.5 25.5t-102 69t-69 102t-25.5 125.5t25.5 125.5t69 102t102.5 69t125 25.5q67 0 125.5 -25.5t102 -69t69 -102t25.5 -125.5zM715 249v102h-164v164h-102v-164h-163v-102h163v-164h102v164h164z" />
<glyph unicode="&#xf038;" d="M822 300q0 -66 -25.5 -125t-69 -102.5t-102 -69t-125.5 -25.5t-125.5 25.5t-102 69t-69 102t-25.5 125.5t25.5 125.5t69 102t102.5 69t125 25.5q67 0 125.5 -25.5t102 -69t69 -102t25.5 -125.5zM715 249v102h-429v-102h429z" />
<glyph unicode="&#xf039;" d="M822 300q0 -67 -25.5 -125.5t-69 -102t-102 -69t-125.5 -25.5q-66 0 -125 25.5t-102.5 69t-69 102t-25.5 125.5t25.5 125.5t69 102t102 69t125.5 25.5t125.5 -25.5t102 -69t69 -102t25.5 -125.5zM715 400l-72 72l-200 -201l-86 86l-71 -71l157 -158z" />
<glyph unicode="&#xf03a;" d="M822 300q0 -67 -25.5 -125.5t-69 -102t-102 -69t-125.5 -25.5q-66 0 -125 25.5t-102.5 69t-69 102t-25.5 125.5t25.5 125.5t69 102t102 69t125.5 25.5t125.5 -25.5t102 -69t69 -102t25.5 -125.5zM686 186l-114 114l114 114l-72 72l-114 -114l-114 114l-72 -72l115 -114 l-115 -114l72 -72l114 115l114 -115z" />
<glyph unicode="&#xf03b;" d="M822 473h-644v115h644v-115zM822 242h-644v116h644v-116zM822 12h-644v115h644v-115z" />
<glyph unicode="&#xf03c;" d="M788 231h-356v-151l-220 220l220 220v-151h356v-138z" />
<glyph unicode="&#xf03d;" d="M822 622l-271 -271v-271l-102 -102v373l-271 271h644z" />
<glyph unicode="&#xf03e;" d="M822 535h-644v87h644v-87zM822 396h-644v87h644v-87zM822 256h-644v88h644v-88zM822 117h-644v87h644v-87zM822 -22h-644v87h644v-87z" />
<glyph unicode="&#xf041;" d="M788 300l-220 -220v151h-356v138h356v151z" />
<glyph unicode="&#xf042;" d="M777 398q0 -52 -18.5 -99t-50.5 -84t-76 -61t-96 -31v-62h68v-68h-68v-68h-68v68h-68v68h68v62q-52 6 -97 30t-78 60.5t-51.5 84t-18.5 100.5q0 57 22 107.5t59.5 88t88 59.5t107.5 22t107.5 -22t88 -59.5t59.5 -88t22 -107.5zM679 398q0 37 -14 69.5t-38.5 57t-57 38.5 t-69.5 14t-69.5 -14t-57 -38.5t-38.5 -57t-14 -69.5t14 -69.5t38.5 -57t57 -38.5t69.5 -14t69.5 14t57 38.5t38.5 57t14 69.5z" />
<glyph unicode="&#xf043;" d="M826 405l-87 86l-70 -70q29 -36 44 -80t15 -90q0 -58 -22 -108.5t-59.5 -88t-88 -59t-107.5 -21.5t-107.5 22t-88 59.5t-59.5 88t-22 107.5t22 107.5t59.5 88t88 59.5t107.5 22q46 0 90 -15t80 -44l70 70l-86 87h221v-221zM630 251q0 37 -14 69.5t-38.5 57t-57 38.5 t-69.5 14t-69.5 -14t-57 -38.5t-38.5 -57t-14 -69.5t14 -69.5t38.5 -57t57 -38.5t69.5 -14t69.5 14t57 38.5t38.5 57t14 69.5z" />
<glyph unicode="&#xf044;" d="M875 724v-221l-87 86l-70 -70q26 -32 41 -70.5t17 -80.5h-98q-3 34 -18.5 63.5t-39.5 51t-55 33.5t-65 12t-65 -12t-55 -33.5t-39.5 -51t-18.5 -63.5h-98q4 54 27 101.5t60.5 82t86 54.5t102.5 20q46 0 90 -15t80 -44l70 70l-86 87h221zM773 300q-8 -45 -29 -83.5 t-52.5 -68t-71 -49t-84.5 -25.5v-62h68v-68h-68v-68h-68v68h-68v68h68v62q-45 5 -85.5 24t-72 49t-53.5 69t-30 84h101q8 -29 24.5 -53t39.5 -41t50.5 -26.5t57.5 -9.5t57.5 9.5t50.5 26.5t39.5 41t24.5 53h101z" />
<glyph unicode="&#xf045;" d="M720 410l-220 -220l-220 220h440z" />
<glyph unicode="&#xf046;" d="M720 190h-440l220 220z" />
<glyph unicode="&#xf047;" d="M706 382h-412l206 206zM706 218l-206 -206l-206 206h412z" />
<glyph unicode="&#xf048;" d="M822 537l-322 -118l-322 118l322 85zM822 163l-305 -185v407l305 135v-357zM483 -22l-305 185v357l305 -135v-407z" />
<glyph unicode="&#xf049;" d="M774 458q0 -34 -13 -63t-35 -50.5t-52 -34t-63 -12.5q-32 0 -61.5 11t-52.5 32l-36 -20h-2l-4 -14l-16 5l-11 -40l-49 13l-8 -27l-22 6l-8 -31l-27 7l-12 -45l-97 25l298 168l-10 17l-285 -160l20 75l217 122q-1 5 -1 10v10q0 33 13 62.5t35 51t52 34t63 12.5 q34 0 64 -12.5t53 -35t36.5 -52.5t13.5 -64zM788 378q4 -10 5.5 -20.5t1.5 -21.5q0 -30 -12 -56t-32 -45.5t-46.5 -30.5t-55.5 -11q-18 0 -31 4l-19 -32l-1 -1l3 -12l-14 -3l9 -35l-43 -11l6 -25l-19 -5l7 -27l-24 -6l11 -39l-84 -23q-11 18 -16.5 41.5t-10.5 43.5l111 187 q-14 19 -22 42q46 -26 99 -26q57 0 105 30t72 82zM664 542q-21 0 -36 -14.5t-15 -35.5q0 -22 15.5 -37t36.5 -15t36 15t15 36t-15.5 36t-36.5 15zM675 475q-5 -3 -10 -3t-13 4h12t11 -1z" />
<glyph unicode="&#xf04a;" d="M822 300q0 -67 -25.5 -125.5t-69 -102t-102 -69t-125.5 -25.5t-125.5 25.5t-102 69t-69 102t-25.5 125.5t25.5 125.5t69 102t102 69t125.5 25.5q66 0 125 -25.5t102.5 -69t69 -102t25.5 -125.5zM593 394q0 39 -27 65.5t-66 26.5t-66 -26.5t-27 -65.5h46q0 20 13.5 33.5 t33.5 13.5t33.5 -13.5t13.5 -33.5q0 -21 -17 -38.5t-37.5 -35t-37.5 -35.5t-17 -41q0 -25 16 -42.5t42 -17.5t42 17.5t16 42.5h-46q-1 -5 -4 -8.5t-8 -3.5t-8 3.5t-3 8.5q0 10 17 24t37 32.5t37 41.5t17 52zM519 137q0 10 -7 16.5t-17 6.5q-9 0 -16 -6.5t-7 -16.5t7 -16.5 t16 -6.5q10 0 17 6.5t7 16.5z" />
<glyph unicode="&#xf04b;" d="M754 315q0 -52 -20 -107t-54.5 -102t-81 -81.5t-98.5 -46.5q-52 12 -98.5 46.5t-81 81.5t-54.5 102t-20 107v239q58 40 121.5 54t132.5 14t132.5 -14t121.5 -54v-239zM635 351l-90 16l-45 86l-45 -86l-91 -16l63 -73l-11 -97l84 42l84 -42l-12 97z" />
<glyph unicode="&#xf04c;" d="M822 46h-92v508h92v-508zM638 46h-92v305h92v-305zM454 46h-92v373h92v-373zM261 46h-83v135h83v-135z" />
<glyph unicode="&#xf04d;" d="M822 46h-644v508h644v-508zM722 486h-444l223 -172zM761 143v304l-260 -199l-262 200v-305l193 129l-151 -158h438l-152 158z" />
<glyph unicode="&#xf04e;" d="M754 -22h-508v644h302l206 -206v-438zM677 416l-129 129v-129h129zM686 46v319h-189v189h-183v-508h372zM651 210h-283v52h283v-52zM651 107h-283v51h283v-51z" />
<glyph unicode="&#xf051;" d="M816 588q6 -35 6 -71q0 -74 -28.5 -152.5t-79 -143t-119.5 -106t-150 -41.5q-79 0 -142 49l-125 -111v82l610 384l-529 -288q-11 39 -11 77q0 48 20 78.5t54 49.5t78 29t92.5 17.5t97.5 16t92.5 23.5t78.5 40.5t55 66.5z" />
<glyph unicode="&#xf052;" d="M822 357q-17 8 -36 12t-38 4q-18 0 -36.5 -3.5t-36 -11.5t-31.5 -20t-23 -28q-14 26 -39.5 41t-54.5 20v-199v-81q0 -21 -7.5 -41.5t-20.5 -36.5t-32 -25.5t-41 -9.5q-23 0 -41.5 9.5t-32 25.5t-21 36.5t-7.5 41.5q0 11 8 19.5t19 8.5q18 0 22.5 -13.5t8 -29.5t12 -29.5 t32.5 -13.5q23 0 34.5 19t11.5 39v280q-28 -5 -54 -20t-39 -41q-9 16 -23 28t-31.5 20t-36 11.5t-36.5 3.5q-19 0 -38 -4t-36 -12q13 49 42.5 88t69 67t87 44t95.5 20q0 8 0.5 16t3 15t8 11t16.5 4t16.5 -4t8 -11t2.5 -15v-16q49 -3 96 -19.5t87 -44t69.5 -67t42.5 -88.5z " />
<glyph unicode="&#xf053;" d="M890 70h-93q-6 40 -36.5 66t-70.5 26t-70 -26t-36 -66h-172q-6 40 -36 66t-70 26t-70.5 -26t-35.5 -66h-90v61l34 16v170l68 169h101v136h577v-552zM767 55q0 -32 -22.5 -54.5t-54.5 -22.5t-54 22.5t-22 54.5t22 54t54 22t54.5 -22t22.5 -54zM381 55q0 -32 -22 -54.5 t-54 -22.5t-54.5 22.5t-22.5 54.5t22.5 54t54.5 22t54 -22t22 -54zM314 285v168h-81l-55 -136v-32h136z" />
<glyph unicode="&#xf054;" d="M667 424q-17 0 -29.5 12t-12.5 29q0 15 12 29q13 13 27.5 29t34.5 16q17 0 28.5 -11t11.5 -28q0 -16 -11 -29q-12 -14 -26.5 -30.5t-34.5 -16.5zM542 534q0 -17 -12 -29t-29 -12t-29 12t-12 29v48q0 17 11.5 28.5t28.5 11.5t26 -9.5t12.5 -23t3.5 -28.5v-27zM822 300 q0 -18 -9.5 -26.5t-23 -12t-28.5 -3.5h-27q-17 0 -29 12t-12 29t12 29t29 12h48q17 0 28.5 -11.5t11.5 -28.5zM335 425q-17 0 -29 12q-6 6 -14 13t-15 14.5t-12 16t-5 18.5q0 17 11.5 28.5t28.5 11.5q16 0 29 -11q14 -12 30.5 -26.5t16.5 -34.5q0 -17 -12 -29.5t-29 -12.5z M661 300q0 -33 -12.5 -62.5t-34.5 -51.5t-51.5 -34.5t-62.5 -12.5t-62.5 12.5t-51.5 34.5t-34.5 51.5t-12.5 62.5t12.5 62.5t34.5 51.5t51.5 34.5t62.5 12.5t62.5 -12.5t51.5 -34.5t34.5 -51.5t12.5 -62.5zM700 61q-16 0 -29 11q-14 12 -30.5 26.5t-16.5 34.5q0 17 12 29.5 t29 12.5q15 0 29 -12q13 -13 29 -27.5t16 -34.5q0 -17 -11 -28.5t-28 -11.5zM307 301q0 -17 -12 -29t-29 -12h-48q-17 0 -28.5 11.5t-11.5 28.5t9 26t22.5 12.5t29 3.5h27.5q17 0 29 -12t12 -29zM540 18q0 -17 -11.5 -28.5t-28.5 -11.5q-18 0 -26.5 9t-12 22.5t-3.5 29v27.5 q0 17 12 29t29 12t29 -12t12 -29v-48zM301 60q-17 0 -28.5 11.5t-11.5 28.5q0 16 11 29q12 14 26.5 30.5t34.5 16.5q17 0 29.5 -12t12.5 -29t-12 -29q-13 -13 -28 -29.5t-34 -16.5zM580 300q0 33 -23.5 56.5t-56.5 23.5t-57 -23.5t-24 -56.5t24 -57t57 -24t56.5 24t23.5 57z " />
<glyph unicode="&#xf055;" d="M822 216q-15 -53 -46 -96.5t-72.5 -75t-91.5 -49t-105 -17.5q-68 0 -128 26t-104.5 70.5t-70.5 104.5t-26 128q0 55 17.5 105.5t49 92t75 72t96.5 45.5q-20 -34 -30.5 -71.5t-10.5 -76.5q0 -62 23.5 -116.5t64 -95t95 -64t116.5 -23.5q39 0 76.5 10.5t71.5 30.5zM638 97 q-68 6 -127 35t-104.5 74.5t-74.5 104.5t-35 127q-19 -29 -29 -62.5t-10 -68.5q0 -51 19.5 -96.5t53.5 -79t79.5 -53t96.5 -19.5q35 0 68.5 9.5t62.5 28.5z" />
<glyph unicode="&#xf056;" d="M822 46h-644v508h644v-508zM754 317v169h-237v-169h237zM754 114v169h-237v-169h237zM483 317v169h-237v-169h237zM483 114v169h-237v-169h237zM737 331h-81l14 23h-14l49 78l32 -51v-50zM737 131h-184l63 100h-24l24 38h121v-138zM382 388q-5 -16 -19 -26.5t-31 -10.5 q-22 0 -37 15t-15 37q0 17 10.5 30.5t27.5 18.5q-7 -10 -7 -23q0 -20 13.5 -33.5t33.5 -13.5q12 0 24 6z" />
<glyph unicode="&#xf057;" d="M890 80h-67l-111 158h40l-100 157l38 61l61 -96h-18l96 -151h-30zM788 80h-237v-102h-102v102h-237l130 186h-42l138 218h-25l87 138l87 -138h-25l138 -218h-42zM720 12h-68v39h68v-39zM348 395l-100 -157h40l-111 -158h-67l91 129h-30l96 151h-18l61 96zM347 12h-67v39 h67v-39z" />
<glyph unicode="&#xf058;" d="M750 125l-117 -32l-19 70l-16 61h-136l-58 220l7 2q-18 10 -29 28t-11 38q0 32 22.5 54t53.5 22q32 0 54 -22t22 -54q0 -26 -15.5 -46t-40.5 -27l9 -33h108v-61h-91l16 -60h135l33 -122l63 1zM612 74q-30 -30 -69 -46t-81 -16q-44 0 -82.5 16.5t-67.5 45.5t-45.5 67.5 t-16.5 82.5q0 33 9.5 63t27 56t42 46t54.5 32l12 -44q-45 -20 -72 -61.5t-27 -91.5q0 -35 13 -65t35.5 -53t52.5 -36t65 -13q41 0 76.5 18.5t59.5 51.5z" />
<glyph unicode="&#xf059;" d="M648 283q-2 18 -8.5 25.5t-17 11.5t-24 6.5t-30.5 8.5q-13 5 -24 16t-11 26q0 12 6.5 22.5t14.5 19.5v-7q-1 -16 7 -25t21 -14.5t28.5 -8.5t28.5 -7.5t22 -12t9 -20.5q0 -12 -7 -22.5t-15 -18.5zM686 181h-17v68h17v-68zM652 181h-33v68h33v-68zM602 181h-322v68h322v-68 z" />
<glyph unicode="&#xf05a;" d="M822 300q0 -67 -25.5 -125.5t-69 -102t-102 -69t-125.5 -25.5t-125.5 25.5t-102 69t-69 102t-25.5 125.5t25.5 125.5t69 102t102.5 69t125 25.5q67 0 125.5 -25.5t102 -69t69 -102t25.5 -125.5zM746 300q0 51 -19.5 95.5t-53 77.5t-78 52.5t-95.5 19.5q-41 0 -79 -12.5 t-70 -37.5l162 -163h84v-64h-19l117 -117q25 32 38 70t13 79zM649 105l-162 163h-196v64h131l-117 117q-25 -32 -37.5 -70t-12.5 -79q0 -51 19.5 -95.5t52.5 -77.5t77.5 -52.5t95.5 -19.5q41 0 79 12.5t70 37.5zM641 364q-2 17 -8.5 24.5t-16.5 11.5t-23 6t-28 8 q-12 5 -22.5 15t-10.5 24q0 12 6 22t14 18l-1 -6q-1 -23 16 -32t38 -14t38.5 -12t17.5 -26q0 -11 -6.5 -21t-13.5 -18zM677 268h-16v64h16v-64zM645 268h-32v64h32v-64z" />
<glyph unicode="&#xf05b;" d="M788 -22h-576v644h576v-644zM686 370q0 37 -12.5 65t-34 47t-51.5 28.5t-65 9.5h-209v-440h101v134q46 0 94.5 0.5t87.5 14t64 45.5t25 96zM589 368q0 -33 -18 -47.5t-50 -14.5h-106v122h105q31 0 50 -13.5t19 -46.5z" />
<glyph unicode="&#xf05c;" d="M720 419l-110 -272q-10 -23 -30 -39t-43 -23v-107h-74v107q-23 7 -43 23t-30 39l-110 272q0 45 18.5 82t49 64t70 42t82.5 15t82.5 -15t70 -42t49 -64t18.5 -82zM670 452q-7 29 -23.5 52.5t-39 40t-50.5 25.5t-57 9t-57 -9t-50.5 -25.5t-39 -40t-23.5 -52.5h149l21 68 l21 -68h149zM671 419h-342l14 -34h314zM518 164v85h-36v-85h36z" />
<glyph unicode="&#xf05d;" d="M788 12q0 -14 -10 -24t-24 -10h-508q-14 0 -24 10t-10 24v576q0 14 10 24t24 10h508q14 0 24 -10t10 -24v-576zM720 46v508h-440v-508h440zM652 351h-135l68 68zM449 452q0 -20 -15 -35t-36 -15t-35.5 15t-14.5 35q0 21 14.5 36t35.5 15t36 -15t15 -36zM652 249l-67 -68 l-68 68h135zM460 294q0 -7 1 -19t0.5 -23.5t-5 -20t-15.5 -9.5v-94q-9 3 -17 3q-10 0 -17 -3v94h-17v-94q-9 3 -17 3t-17 -3v94q-7 2 -12 7t-5 13v56v63q0 10 7 17t17 7h73q10 0 17 -7t7 -17v-67zM472 97h-65v21q10 2 17 2q13 0 27 -5.5t21 -17.5zM390 97h-65 q7 12 20.5 17.5t27.5 5.5q5 0 8.5 -0.5t8.5 -1.5v-21z" />
<glyph unicode="&#xf05e;" d="M887 12h-73q0 16 -0.5 26.5t-2 20t-4.5 20.5t-8 28q-34 21 -68.5 42.5t-70.5 38.5h1q8 3 12 9t8 14h2l2 1q2 4 2 6t-0.5 2.5t-0.5 2.5l-3 1q-5 5 -6 14.5t-2 15.5q-11 4 -13.5 17.5t-2.5 23.5l1 10l4 2q-2 3 -3 9.5t-2 14.5t-1.5 15.5t-0.5 10.5q0 11 6.5 25t20.5 14 q0 5 6 8.5t13.5 5t15 2t11.5 0.5q1 0 9 -2.5t10 -3.5q20 -6 32 -22t12 -37q0 -11 -1.5 -21t-3.5 -21h4q1 -4 1 -12t-2.5 -21.5t-12.5 -17.5q-1 -7 -3 -16t-6 -14l-3 -1q0 -2 -0.5 -2.5t-0.5 -2.5q0 -4 1 -6l4 -1h1q4 -14 17.5 -22t29.5 -15t32 -14.5t25 -19.5 q4 -5 4.5 -15.5t1.5 -16.5zM785 12h-571v6q0 2 1.5 12.5t3 22t3.5 21.5t3 12q17 11 34.5 22t34.5 22q26 14 55.5 26.5t50.5 32.5l11 27l10 1l5 21l-5 3q-8 8 -11 26t-5 29q-10 4 -15.5 13t-8.5 20t-4 22t-1 20q0 5 0.5 10t0.5 10l9 3q-3 4 -5 17t-4 27.5t-3 28t-1 19.5 q0 10 3 22.5t9 23.5t15.5 18.5t21.5 6.5q0 10 11 16t25 9.5t28.5 4.5t20.5 1l5.5 -1.5t11.5 -3.5t11 -4t6 -2q37 -12 59.5 -41t22.5 -68q0 -20 -2.5 -38.5t-5.5 -38.5h7q1 -6 1 -11.5v-11.5q0 -8 -1 -19t-4 -21.5t-8 -19.5t-14 -12q-2 -11 -6 -29t-12 -26l-5 -3l6 -20l4 -1 l9 -21q20 -20 45.5 -31t48.5 -24t45 -27l44 -28q10 -29 10 -59v-15zM352 293q0 -8 -2.5 -22t-11.5 -17q-2 -6 -3.5 -15.5t-6.5 -14.5l-3 -1q0 -2 -0.5 -2.5t-0.5 -2.5t2 -6l3 -1h2q3 -14 15 -21q-38 -17 -74 -38t-70 -44q-4 -7 -7 -19.5t-5 -27t-3 -27.5t-1 -22h-73l8 91 q2 27 18 40t35.5 22t38 18.5t27.5 27.5h2l3 1q2 4 2 6t-0.5 2.5t-0.5 2.5l-3 1q-5 5 -6.5 14.5t-2.5 15.5q-11 4 -13.5 18t-2.5 23l1 10l4 2q-1 3 -2.5 9.5t-2.5 14.5t-1.5 15.5t-0.5 10.5q0 11 6.5 25t20.5 14q0 5 6 8.5t13.5 5t15.5 2t11 0.5q2 0 9.5 -2.5t9.5 -3.5 q20 -6 32 -22t12 -37q0 -11 -1 -21t-3 -21h4v-12z" />
<glyph unicode="&#xf061;" d="M890 420l-56 -59q-66 69 -152 107t-182 38t-182 -38t-152 -107l-56 59q77 80 177.5 124t212.5 44t212.5 -44t177.5 -124zM778 303l-55 -58q-44 46 -102 71t-121 25t-121 -25t-102 -71l-55 58q54 57 126.5 88.5t151.5 31.5t151.5 -31.5t126.5 -88.5zM667 187l-56 -59 q-22 23 -50.5 35.5t-60.5 12.5t-60.5 -12.5t-50.5 -35.5l-56 59q32 34 75.5 53t91.5 19t91.5 -19t75.5 -53zM556 70l-56 -58l-56 58q24 24 56 24t56 -24z" />
<glyph unicode="&#xf062;" d="M788 114q0 -14 -10 -24t-24 -10t-23.5 10t-9.5 24h67zM856 197q0 -20 -15 -34.5t-34 -14.5h-613q-20 0 -35 14.5t-15 34.5v274q0 20 15 34.5t35 14.5h613q19 0 34 -14.5t15 -34.5v-274zM279 114q0 -14 -9.5 -24t-23.5 -10t-24 10t-10 24h67zM788 334q0 31 -12 59 t-32.5 48.5t-48.5 32.5t-59 12q-32 0 -59.5 -12t-48.5 -32.5t-33 -48.5t-12 -59q0 -32 12 -59.5t33 -48.5t48.5 -33t59.5 -12q31 0 59 12t48.5 33t32.5 48.5t12 59.5zM415 385v34h-203v-34h203zM415 317v34h-203v-34h203zM415 249v34h-203v-34h203zM741 334q0 -22 -8.5 -41 t-22.5 -33.5t-33 -23t-41 -8.5t-41.5 8.5t-33.5 23t-22.5 33.5t-8.5 41q0 45 30.5 75.5t75.5 30.5q22 0 41 -8.5t33 -23t22.5 -33.5t8.5 -41z" />
<glyph unicode="&#xf063;" d="M585 402q0 -35 -25 -60t-60 -25t-60 25t-25 60v135q0 35 25 60t60 25t60 -25t25 -60v-135zM754 380q0 -47 -16 -88t-44.5 -73.5t-67 -54.5t-84.5 -29v-72h43q17 0 32.5 -6.5t27 -18t18 -27t6.5 -33.5h-338q0 18 6.5 33.5t18 27t27 18t32.5 6.5h43v72q-47 8 -86 30t-67 55 t-43.5 75t-15.5 90h85q0 -36 13 -67.5t35.5 -54t53.5 -35.5t67 -13t67 13t53.5 35.5t35.5 54t13 67.5h85v-5z" />
<glyph unicode="&#xf064;" d="M726 299l-37 -93l-43 18l-58 -145q-8 -19 -24.5 -31t-36.5 -12q-17 0 -35.5 7.5t-32.5 13.5q-5 -11 -9.5 -24.5t-11 -25.5t-16.5 -20.5t-25 -8.5q-10 0 -22 4t-22 11.5t-16.5 17t-6.5 21.5q0 17 9 34.5t15 31.5q-15 6 -29.5 12t-25.5 14.5t-18 21t-7 31.5q0 14 4 25 l59 144l-50 20l36 92l90 -35l71 180q7 19 28 19q13 0 22 -9t9 -23q0 -7 -10 -33.5t-23 -58t-24.5 -59.5t-15.5 -38l110 -45l72 180q4 8 11.5 14t17.5 6q13 0 22 -9.5t9 -22.5q0 -7 -10 -34t-23 -58t-25 -59t-16 -38z" />
<glyph unicode="&#xf065;" d="M890 46q0 -14 -10 -24t-24 -10h-712q-14 0 -24 10t-10 24v508q0 14 10 24t24 10h712q14 0 24 -10t10 -24v-508zM822 503q0 7 -5 12t-12 5t-12 -5t-5 -12t5 -12t12 -5t12 5t5 12zM754 486v34h-576v-34h576zM822 80v372h-644v-372h644zM810 198q0 -7 -5 -11.5t-12 -4.5 t-12 4.5t-5 11.5q0 8 5 12.5t12 4.5t12 -4.5t5 -12.5zM777 356l-36 -174h-30q-7 31 -14 62.5t-12 63.5q-6 -32 -12 -63t-13 -63h-30l-35 174h30q5 -32 10.5 -63t10.5 -62q4 31 11 62.5t14 62.5h29q8 -32 14.5 -62.5t12.5 -62.5q4 31 9 62t10 63h31zM579 356l-36 -174h-30 q-7 31 -14 62.5t-12 63.5q-6 -32 -12 -63t-13 -63h-30l-35 174h30q5 -32 10.5 -63t10.5 -62q5 31 11.5 62.5t13.5 62.5h29q8 -32 14 -62.5t13 -62.5q4 31 9 62t10 63h31zM381 356l-36 -174h-30q-7 31 -14 62.5t-12 63.5q-6 -32 -12 -63t-13 -63h-30l-35 174h30q5 -32 11 -63 t10 -62q5 31 12 62.5t13 62.5h29q8 -32 14.5 -62.5t12.5 -62.5q5 31 9.5 62t9.5 63h31z" />
<glyph unicode="&#xf066;" d="M534 317h-68v271h68v-271zM754 266q0 -53 -20 -99t-54.5 -80.5t-81 -54.5t-98.5 -20q-53 0 -99 20t-80.5 54.5t-54.5 80.5t-20 99q0 40 12 77.5t34.5 69t53.5 55.5t69 38v-69q-48 -24 -77 -70.5t-29 -100.5q0 -39 15 -74t41 -61t61 -41t74 -15t74 15t61 41t41 61t15 74 q0 54 -29 100t-77 71v69q38 -14 69 -38t53.5 -55.5t34.5 -69t12 -77.5z" />
<glyph unicode="&#xf067;" d="M670 416h-62q-4 21 -16 41t-29.5 37t-37 30.5t-38.5 22.5q-17 -27 -46 -39.5t-61 -22.5t-61.5 -24.5t-48.5 -44.5h-69q15 37 38 60t48 37t50.5 22t47 15.5t37 17t19.5 25.5q2 8 3.5 15.5t3.5 15.5l31 -9q31 -9 63.5 -28t60.5 -45.5t46.5 -59t20.5 -66.5zM844 271 q0 -29 -12 -51.5t-32.5 -38t-46 -24t-52.5 -8.5h-34q-15 -44 -34 -76t-45.5 -54t-62 -32.5t-83.5 -10.5h-32q-55 0 -92 19.5t-62 52t-40 74.5t-25 87t-17.5 90.5t-17.5 83.5h536q27 0 54 -5.5t48.5 -18.5t35.5 -34.5t14 -53.5zM701 315q-3 -26 -7 -51t-10 -51q13 0 30 2 t31.5 8t24.5 17.5t10 29.5q0 15 -8.5 24t-20.5 13.5t-25.5 6t-24.5 1.5zM639 315h-403q5 -40 13 -87.5t26.5 -88t50.5 -68t85 -27.5h53q37 0 63.5 14.5t45 38.5t30 54t19.5 61l1 1q6 25 9.5 50.5t6.5 51.5z" />
<glyph unicode="&#xf068;" d="M856 351q0 -45 -29 -78t-73 -40v70q15 5 24.5 18.5t9.5 29.5v152q0 16 -6 26t-15.5 15.5t-21.5 7.5t-25 2v-576h-474v441l-102 203h576q27 0 52 -7.5t43.5 -22t29.5 -37t11 -52.5v-152zM653 46v254q-8 1 -15 1.5t-15 0.5q-26 0 -51 -4.5t-49.5 -10t-50 -10t-50.5 -4.5 q-20 0 -39.5 5.5t-34.5 21.5v68q15 -16 34.5 -21.5t39.5 -5.5q25 0 50.5 4.5t50 10t49.5 10t51 4.5q8 0 15 -0.5t15 -1.5v186h-373l34 -68v-440h339z" />
<glyph unicode="&#xf069;" d="M822 300q0 -67 -25.5 -125.5t-69 -102t-102 -69t-125.5 -25.5t-125.5 25.5t-102 69t-69 102t-25.5 125.5t25.5 126t69 102.5t102 69t125.5 24.5h8v-302l214 213q48 -45 74 -106t26 -127zM754 308q-2 47 -19.5 89.5t-48.5 76.5l-24 -24q26 -29 41 -65.5t17 -76.5h34z M699 308q-2 35 -15.5 68t-36.5 59l-127 -127h179zM754 292h-34q-2 -40 -17 -76.5t-41 -65.5l24 -24q31 34 48.5 76.5t19.5 89.5zM491 520v34q-46 -2 -88.5 -19.5t-76.5 -48.5l24 -24q29 26 65.5 41t75.5 17zM699 292h-179l127 -127q23 26 36.5 59t15.5 68zM491 320v179 q-35 -2 -67.5 -15.5t-58.5 -36.5zM635 153l-127 127v-179q35 2 68 15.5t59 36.5zM480 308l-127 127q-23 -26 -36.5 -59t-15.5 -68h179zM674 114l-24 24q-29 -26 -65.5 -41t-76.5 -17v-34q47 2 89.5 19.5t76.5 48.5zM338 450l-24 24q-31 -34 -48.5 -76.5t-19.5 -89.5h34 q2 40 17 76.5t41 65.5zM480 292h-179q2 -35 15.5 -68t36.5 -59zM491 101v179l-126 -127q26 -23 58.5 -36.5t67.5 -15.5zM338 150q-26 29 -41 65.5t-17 76.5h-34q2 -47 19 -89.5t49 -76.5zM491 46v34q-39 2 -75.5 17t-65.5 41l-24 -24q34 -32 76.5 -49t88.5 -19z" />
<glyph unicode="&#xf06a;" d="M790 224h-4q-2 -35 -22 -60v-18q0 -28 -13.5 -49t-36 -36t-50.5 -24.5t-57 -15t-56.5 -7.5t-48.5 -2t-48.5 2t-56.5 7.5t-57 15t-50.5 24.5t-36 36t-13.5 49v18q-20 25 -25 58.5t-5 64.5q0 28 2 55t2 55l30 6q8 44 33.5 78.5t61.5 58t78.5 36t84.5 12.5t84.5 -12.5 t78.5 -36t61.5 -58t33.5 -78.5l30 -6v-173zM714 371q0 40 -19.5 71.5t-50.5 53.5t-68.5 33t-73.5 11t-73.5 -11t-68 -33t-50 -53.5t-19.5 -71.5h423zM742 286v56q-32 0 -62 6t-62 6t-63 -6t-63 -6q-26 0 -52.5 6t-53.5 6q-31 0 -61.5 -6t-62.5 -6v-56q32 0 62.5 6t61.5 6 q32 0 63 -6t63 -6q27 0 53 6t53 6q32 0 62 -6t62 -6zM737 220v19q0 14 -9.5 23.5t-22.5 9.5h-405q-14 0 -23.5 -9.5t-9.5 -23.5v-19q0 -14 9.5 -23.5t23.5 -9.5h405q13 0 22.5 9.5t9.5 23.5zM714 136v37h-423v-37q0 -16 13 -27.5t33 -20t44.5 -14t48 -8.5t43 -4.5t29.5 -1.5 q15 0 50 3t71 11.5t63.5 23t27.5 38.5z" />
<glyph unicode="&#xf06b;" d="M705 324q0 -15 -10.5 -27t-25.5 -14l-32 -301q-2 -16 -13.5 -27t-27.5 -11h-192q-16 0 -27.5 11t-13.5 26l-32 302q-18 3 -26 14t-10 25.5t-1 30.5t1 28q0 17 12 29t29 12h136v150l126 73l46 -78l-82 -47v-98h102q17 0 29 -12t12 -29v-57zM605 577l-17 30l-88 -51v-134 h34v114zM669 324v57q0 5 -5 5h-328q-5 0 -5 -5v-57q0 -6 5 -6h328q5 0 5 6zM636 302h-272l34 -317q2 -6 6 -6h192q4 0 6 6z" />
<glyph unicode="&#xf06c;" d="M842 327q0 -14 -9.5 -24.5t-23.5 -12.5l-30 -278q-2 -14 -12.5 -24.5t-24.5 -10.5h-177q-21 0 -29 14t-10 32q-14 -13 -34 -21.5t-42.5 -13.5t-44.5 -7t-41 -2q-22 0 -53.5 3.5t-60.5 14t-49.5 28.5t-20.5 48v14q-15 17 -18.5 40.5t-3.5 45.5q0 20 1.5 39t1.5 38l21 5 q6 31 24 55.5t43 41t55 25.5t60 9q54 0 101 -26q0 10 1 20t4.5 18.5t11 13.5t20.5 5h125v138l117 68l42 -72l-76 -44v-90h94q16 0 27 -11t11 -27v-52zM750 560l-16 27l-81 -47v-123h31v105zM809 327v52q0 5 -5 5h-302q-5 0 -5 -5v-41q9 -7 16 -16h291q5 0 5 5zM778 306h-250 l1 -5q13 -21 18 -46l21 -5v-122h-4q0 -22 -12 -38q0 -5 1 -17.5t2.5 -26t3.5 -24.5t6 -12h177q5 2 5 5zM514 232q0 28 -14 50.5t-35.5 37.5t-48.5 23t-52 8q-26 0 -52 -8t-48 -23t-35.5 -37.5t-13.5 -50.5h299zM534 172v40q-23 0 -44 4.5t-44 4.5t-44 -4.5t-44 -4.5 q-20 0 -38 4.5t-37 4.5q-23 0 -44.5 -4.5t-43.5 -4.5v-40q22 0 43.5 4.5t44.5 4.5q22 0 43.5 -4.5t44.5 -4.5q19 0 37.5 4.5t37.5 4.5q23 0 44 -4.5t44 -4.5zM530 125v14q0 10 -6.5 16.5t-16.5 6.5h-286q-9 0 -15.5 -6.5t-6.5 -16.5v-14q0 -9 6.5 -15.5t15.5 -6.5h286 q10 0 16.5 6.5t6.5 15.5zM514 66v27h-299v-27q0 -17 19.5 -27t44.5 -16t49.5 -8t35.5 -2t35.5 2t50 8t45 16t19.5 27z" />
<glyph unicode="&#xf06d;" d="M822 148h-644q3 61 28 115.5t66 95t95 65.5t116 28v34h-68v34h170v-34h-68v-34q61 -3 115.5 -28t95.5 -65.5t66 -95t28 -115.5zM856 80h-712v51h712v-51zM480 407q-47 -3 -89 -21.5t-75 -48.5t-55.5 -70t-30.5 -86h58q6 39 22.5 75t41.5 65.5t57.5 51.5t70.5 34z" />
<glyph unicode="&#xf06e;" d="M686 436q0 -35 -13.5 -67t-36 -57.5t-53 -42t-64.5 -19.5v-189q7 0 31.5 -2t50.5 -7t46.5 -13t20.5 -20q0 -13 -23 -21t-52.5 -12.5t-57 -6t-35.5 -1.5t-35.5 1.5t-57 6t-52.5 12.5t-23 21q0 12 20.5 20t46.5 13t50 7t32 2v189q-34 3 -64.5 19.5t-53 42t-36 57.5 t-13.5 67v186h372v-186zM649 433v155h-298v-102q13 2 26 3t26 1q42 0 65.5 -10t41.5 -21.5t36 -21.5t50 -10q14 0 27 2z" />
<glyph unicode="&#xf071;" d="M822 370q0 -35 -16.5 -62t-43.5 -47t-62 -34.5t-70.5 -23.5t-69.5 -13t-60 -4t-60 4t-69.5 13t-70.5 23.5t-62 34.5t-43.5 47.5t-16.5 61.5q0 51 35.5 86.5t86.5 57t106 31t94 9.5t94 -9.5t106 -31t86.5 -57t35.5 -86.5zM822 271q-7 -29 -27 -52t-47.5 -40t-60 -29 t-66 -19t-65 -10.5t-56.5 -3.5t-56.5 3.5t-65 10.5t-66.5 19t-60.5 29t-47 40t-26.5 52q27 -33 65.5 -55.5t82 -36.5t88.5 -20.5t86 -6.5q40 0 85.5 6.5t89 20.5t82 36.5t65.5 55.5zM822 200q-7 -29 -27 -52t-47.5 -40t-60 -29t-66 -19t-65 -10.5t-56.5 -3.5t-56.5 3.5 t-65 10.5t-66.5 19t-60.5 29t-47 40t-26.5 52q27 -33 65.5 -55.5t82 -36.5t88.5 -20.5t86 -6.5q40 0 85.5 6.5t89 20.5t82 36.5t65.5 55.5zM774 370q0 26 -15 46.5t-39.5 35t-55 24.5t-61 16.5t-58 9t-45.5 2.5q-19 0 -46 -2.5t-57.5 -9t-61 -16.5t-55 -24.5t-39.5 -35 t-15 -46.5t15 -46.5t39.5 -35t55 -24.5t61 -16.5t57.5 -9t46 -2.5q18 0 45.5 2.5t58 9t61 16.5t55 24.5t39.5 35t15 46.5zM742 370q0 -10 -3 -17q-11 25 -41 41.5t-66.5 26t-72.5 13t-59 3.5t-59 -3.5t-72.5 -13t-67 -26t-40.5 -41.5q-3 7 -3 17q0 30 30 49.5t70.5 31 t80.5 15.5t61 4t61 -4t80.5 -15.5t70.5 -31t30 -49.5z" />
<glyph unicode="&#xf072;" d="M822 180h-644v170l203 137v135h68v-169l-203 -137v-68h508v68l-203 137v169h68v-135l203 -137v-170zM637 20q0 -11 4.5 -22t11.5 -20h-51q-7 9 -11.5 20t-4.5 22q0 12 5.5 22t12.5 19t12.5 18t5.5 20q0 13 -6.5 25.5t-13.5 22.5h51q7 -10 13.5 -22.5t6.5 -25.5 q0 -11 -5.5 -20t-12.5 -18t-12.5 -19t-5.5 -22zM501 20q0 -11 5 -22t11 -20h-51q-6 9 -11 20t-5 22q0 12 6 22t12.5 19t12.5 18t6 20q0 13 -6.5 25.5t-14.5 22.5h51q7 -10 14 -22.5t7 -25.5q0 -11 -6 -20t-12.5 -18t-12.5 -19t-6 -22zM365 20q0 -11 5 -22t11 -20h-51 q-6 9 -11 20t-5 22q0 12 6 22t12.5 19t12.5 18t6 20q0 13 -6.5 25.5t-14.5 22.5h51q8 -10 14.5 -22.5t6.5 -25.5q0 -11 -6 -20t-12.5 -18t-12.5 -19t-6 -22z" />
<glyph unicode="&#xf073;" d="M854 410l-8 -6q-16 29 -41 54l9 6q26 -24 40 -54zM764 509l-6 -10q-24 21 -58 34l5 9q16 -6 31 -14t28 -19zM836 402l-34 -31l-40 55l38 23q23 -22 36 -47zM750 493l-18 -41l-59 34l26 36q28 -9 51 -29zM653 563l-3 -11q-30 14 -66 16l3 11q17 -2 33.5 -5.5t32.5 -10.5z M879 266h-11q3 16 3 33t-3 35h11q3 -18 3 -36q0 -16 -3 -32zM859 271l-45 -5v68l45 -5q3 -15 3 -30t-3 -28zM644 545l-7 -45l-66 16l16 43q14 -2 28.5 -5t28.5 -9zM534 575q-8 1 -16.5 1.5t-16.5 0.5q-17 0 -35 -3v11q18 3 36 3q15 0 32 -3v-10zM534 521h-68l5 44q15 3 30 3 q8 0 14.5 -0.5t13.5 -1.5zM854 190q-14 -30 -40 -54l-9 6q25 25 41 54zM836 198q-13 -25 -36 -47l-38 23l40 55zM416 568q-36 -2 -66 -16l-2 11q15 7 31.5 10.5t33.5 5.5zM429 516l-66 -16l-6 45q14 6 28 9t29 5zM750 106q-24 -19 -51 -29l-26 37l59 34zM764 91 q-13 -11 -28 -19t-31 -14l-5 9q34 13 58 34zM788 300q0 -50 -30 -85t-74 -57.5t-94 -33t-90 -10.5t-90 10.5t-94 33t-74 57.5t-30 85t30 85.5t74 58t94 32.5t90 10t90.5 -10.5t94 -33t73.5 -57.5t30 -85zM301 533q-35 -13 -59 -34l-6 10q27 21 59 33zM327 486l-59 -34 l-18 41q22 19 51 29zM644 55q-14 -6 -28.5 -9t-28.5 -5l-16 43l66 16zM653 37q-16 -7 -32.5 -10.5t-33.5 -5.5l-3 11q36 2 66 16zM238 426l-40 -55l-33 31q6 14 15 25t20 22zM195 458q-12 -12 -22 -25.5t-18 -28.5l-9 6q15 31 41 54zM534 79l-5 -45q-7 -1 -13.5 -1.5 t-14.5 -0.5t-15 0.5t-15 1.5l-5 45h68zM534 25v-10q-17 -3 -32 -3q-18 0 -36 3v10q9 -1 18 -1.5t17 -0.5t16.5 0.5t16.5 1.5zM429 84l-16 -43q-14 2 -28.5 5t-28.5 9l7 45zM186 266l-45 5q-3 15 -3 30q0 14 3 28l45 5v-68zM132 266h-11q-3 18 -3 36q0 15 3 32h11 q-3 -17 -3 -33q0 -17 3 -35zM416 32l-3 -11q-17 2 -33.5 5.5t-32.5 10.5l3 11q30 -14 66 -16zM327 114l-26 -37q-27 10 -51 29l18 42zM238 174l-39 -23q-11 11 -19.5 22t-15.5 25l34 31zM300 67l-5 -9q-16 6 -31 14t-28 19l5 10q25 -21 59 -34zM195 142l-9 -6q-26 24 -40 54 l8 6q16 -29 41 -54z" />
<glyph unicode="&#xf074;" d="M836 269h-11q3 15 3 32q0 18 -3 35h11q3 -17 3 -35q0 -17 -3 -32zM568 514h-102v142h102v-142zM816 273l-45 -4v68l45 -5q3 -15 3 -30q0 -14 -3 -29zM449 551l-45 4q-3 15 -3 31q0 14 3 28l45 5v-68zM754 215h-101v170h101v-170zM395 551h-11q-3 18 -3 36q0 15 3 32h11 q-3 -17 -3 -33q0 -19 3 -35zM568 371h-102v143h102v-143zM347 514h-101v142h101v-142zM449 408l-45 5q-3 15 -3 30q0 14 3 29l45 4v-68zM395 408h-11q-3 18 -3 36q0 17 3 32h11q-3 -17 -3 -33q0 -17 3 -35zM568 229h-102v142h102v-142zM229 551l-45 4q-3 16 -3 31q0 14 3 28 l45 5v-68zM175 551h-11q-3 18 -3 36q0 15 3 32h11q-3 -17 -3 -33q0 -19 3 -35zM347 371h-101v143h101v-143zM449 266l-45 5q-3 15 -3 30q0 14 3 28l45 5v-68zM395 266h-11q-3 18 -3 36q0 15 3 32h11q-3 -17 -3 -33q0 -17 3 -35zM568 86h-102v143h102v-143zM229 408l-45 5 q-3 15 -3 31q0 13 3 28l45 4v-68zM175 408h-11q-3 18 -3 36q0 17 3 32h11q-3 -17 -3 -33q0 -17 3 -35zM347 229h-101v142h101v-142zM449 124l-45 4q-3 15 -3 31q0 14 3 28l45 4v-67zM395 124h-11q-3 18 -3 35t3 32l11 1q-3 -17 -3 -33q0 -19 3 -35zM568 -56h-102v142h102 v-142zM229 266l-45 5q-3 15 -3 30q0 14 3 28l45 5v-68zM175 266h-11q-3 18 -3 36q0 15 3 32h11q-3 -17 -3 -33q0 -17 3 -35zM347 86h-101v143h101v-143zM449 -19l-45 5q-3 15 -3 30q0 14 3 29l45 4v-68zM395 -19h-11q-3 18 -3 36q0 17 3 32h11q-3 -17 -3 -33q0 -17 3 -35z M229 124l-45 4q-3 15 -3 31q0 14 3 28l45 4v-67zM175 124h-11q-3 18 -3 35t3 32l11 1q-3 -17 -3 -33q0 -19 3 -35zM347 -56h-101v142h101v-142zM229 -19l-45 5q-3 15 -3 30q0 14 3 29l45 4v-68zM175 -19h-11q-3 18 -3 36q0 17 3 32h11q-3 -17 -3 -33q0 -17 3 -35z" />
<glyph unicode="&#xf075;" d="M837 453h-11q3 15 3 32q0 18 -3 35h11q3 -17 3 -35q0 -17 -3 -32zM721 625q-18 3 -35 3t-33 -3v11q16 3 32 3q18 0 36 -3v-11zM817 457l-45 -4v67l45 -4q1 -8 1.5 -15.5t0.5 -15.5v-14t-2 -14zM721 571h-68l5 45q13 3 28 3t30 -3zM619 625q-17 3 -35 3q-17 0 -32 -3v11 q15 3 32 3q18 0 35 -3v-11zM619 571h-67l4 45q13 3 28 3q16 0 31 -3zM753 419h-235v135h235v-135zM721 402l-5 -45q-15 -3 -30 -3t-28 3l-5 45h68zM721 337q-18 -3 -36 -3q-16 0 -32 3v11q16 -3 33 -3t35 3v-11zM619 402l-4 -45q-15 -3 -31 -3q-15 0 -28 3l-4 45h67z M501 453l-45 4q-3 13 -3 28q0 16 3 31l45 4v-67zM447 520q-3 -17 -3 -35q0 -17 3 -32h-11q-3 15 -3 32q0 18 3 35h11zM619 337q-17 -3 -35 -3q-17 0 -32 3v11q15 -3 32 -3q18 0 35 3v-11zM564 80h-11q3 15 3 32q0 18 -3 35h11q3 -17 3 -35q0 -17 -3 -32zM448 252 q-17 3 -35 3q-17 0 -32 -3v11q15 3 32 3q18 0 35 -3v-11zM544 84l-45 -4v67l45 -4q3 -15 3 -31q0 -15 -3 -28zM448 198h-67l4 45q13 3 28 3q16 0 31 -3zM347 252q-18 3 -35 3t-33 -3v11q15 3 32 3q18 0 36 -3v-11zM347 198h-68l4 45q15 3 29 3q15 0 30 -3zM481 46h-236v135 h236v-135zM448 29l-4 -45q-15 -3 -31 -3q-15 0 -28 3l-4 45h67zM448 -36q-17 -3 -35 -3q-17 0 -32 3v11q15 -3 32 -3q18 0 35 3v-11zM228 80l-45 4q-2 7 -2 14v14q0 8 0.5 15.5t1.5 15.5l45 4v-67zM347 29l-5 -45q-15 -3 -30 -3q-14 0 -29 3l-4 45h68zM347 -36 q-18 -3 -36 -3q-16 0 -32 3v11q16 -3 33 -3t35 3v-11zM174 147q-3 -17 -3 -35q0 -17 3 -32h-11q-3 15 -3 32q0 18 3 35h11z" />
<glyph unicode="&#xf076;" d="M687 572l-45 4q-3 13 -3 28q0 16 3 31l45 4v-67zM633 572h-11q-3 15 -3 32q0 18 3 35h11q-3 -17 -3 -35q0 -17 3 -32zM585 572l-45 4q-3 13 -3 28q0 16 3 31l45 4v-67zM531 572h-11q-3 15 -3 32q0 18 3 35h11q-3 -17 -3 -35q0 -17 3 -32zM890 12q-44 18 -81.5 47 t-64.5 66.5t-42 81.5t-15 93t15 93t42 81.5t64.5 66.5t81.5 47v-576zM483 572l-45 4q-2 7 -2 14v14q0 8 0.5 15.5t1.5 15.5l45 4v-67zM585 470l-45 4q-3 15 -3 29q0 15 3 30l45 5v-68zM429 572h-11q-3 15 -3 32q0 18 3 35h11q-3 -17 -3 -35q0 -17 3 -32zM531 470h-11 q-3 15 -3 32q0 18 3 35h11q-3 -17 -3 -35q0 -17 3 -32zM483 470l-45 4q-2 8 -2 14.5v13.5q0 8 0.5 15.5t1.5 15.5l45 5v-68zM585 368l-45 4q-3 15 -3 29q0 15 3 30l45 5v-68zM381 572l-45 4q-1 7 -1.5 14t-0.5 14q0 8 0.5 15.5t1.5 15.5l45 4v-67zM531 368h-11q-3 16 -3 32 q0 18 3 36h11q-3 -18 -3 -35t3 -33zM327 639q-1 -8 -1.5 -17t-0.5 -18v-16t2 -16h-10q-2 8 -2.5 16t-0.5 16q0 18 3 35h10zM429 470h-11q-3 15 -3 32q0 18 3 35h11q-3 -17 -3 -35q0 -16 3 -32zM483 368l-45 4q-2 8 -2 14.5v14.5t0.5 15t1.5 15l45 5v-68zM279 572l-44 4 q-3 13 -3 28q0 16 3 31l44 4v-67zM381 470l-45 4q-1 8 -1.5 14.5t-0.5 13.5q0 8 0.5 15.5t1.5 15.5l45 5v-68zM585 266l-45 5q-3 13 -3 28t3 30l45 5v-68zM226 639q-3 -17 -3 -35q0 -17 3 -32h-11q-3 15 -3 32q0 18 3 35h11zM429 368h-11q-3 16 -3 32q0 18 3 36h11 q-3 -18 -3 -35t3 -33zM531 266h-11q-3 16 -3 32q0 18 3 36h11q-3 -18 -3 -35t3 -33zM327 537q-1 -8 -1.5 -17t-0.5 -18v-16t2 -16h-10q-2 8 -2.5 16t-0.5 16q0 18 3 35h10zM483 266l-45 5q-2 7 -2 13.5v14.5t0.5 15t1.5 15l45 5v-68zM279 470l-44 4q-3 15 -3 28q0 16 3 31 l44 5v-68zM585 164l-45 5q-3 13 -3 28t3 30l45 5v-68zM381 368l-45 4q-1 8 -1.5 14.5t-0.5 14.5t0.5 15t1.5 15l45 5v-68zM226 537q-3 -17 -3 -35q0 -17 3 -32h-11q-3 15 -3 32q0 18 3 35h11zM429 266h-11q-3 16 -3 32q0 18 3 36h11q-3 -18 -3 -35t3 -33zM327 436 q-1 -9 -1.5 -18t-0.5 -18v-16t2 -16h-10q-2 8 -2.5 16t-0.5 16q0 18 3 36h10zM531 164h-11q-3 16 -3 32q0 18 3 36h11q-3 -18 -3 -35t3 -33zM483 164l-45 5q-2 7 -2 14v14q0 8 0.5 15t1.5 15l45 5v-68zM687 -39l-45 4q-3 15 -3 28q0 16 3 31l45 4v-67zM178 470l-45 4 q-3 15 -3 28q0 16 3 31l45 5v-68zM585 63l-45 4q-3 13 -3 28q0 16 3 31l45 4v-67zM279 368l-44 4q-3 15 -3 29q0 15 3 30l44 5v-68zM381 266l-45 5q-1 7 -1.5 13.5t-0.5 14.5t0.5 15t1.5 15l45 5v-68zM226 436q-3 -18 -3 -36q0 -16 3 -32h-11q-3 16 -3 32q0 18 3 36h11z M124 537q-3 -17 -3 -35q0 -17 3 -32h-11q-3 15 -3 32q0 18 3 35h11zM327 334q-1 -9 -1.5 -18t-0.5 -18v-16t2 -16h-10q-2 8 -2.5 16t-0.5 16q0 18 3 36h10zM531 62l-11 1q-3 15 -3 32t3 35h11q-3 -17 -3 -35q0 -17 3 -33zM429 164h-11q-3 16 -3 32q0 18 3 36h11 q-3 -18 -3 -35t3 -33zM633 -39h-11q-3 15 -3 32q0 18 3 35h11q-3 -17 -3 -35q0 -17 3 -32zM483 63l-45 4q-2 7 -2 14v14q0 8 0.5 15.5t1.5 15.5l45 4v-67zM178 368l-45 4q-3 15 -3 29q0 15 3 30l45 5v-68zM279 266l-44 5q-3 13 -3 28t3 30l44 5v-68zM585 -39l-45 4 q-3 15 -3 28q0 16 3 31l45 4v-67zM381 164l-45 5q-1 7 -1.5 14t-0.5 14q0 8 0.5 15t1.5 15l45 5v-68zM124 436q-3 -18 -3 -36q0 -16 3 -32h-11q-3 16 -3 32q0 18 3 36h11zM226 334q-3 -18 -3 -36q0 -16 3 -32h-11q-3 16 -3 32q0 18 3 36h11zM429 62l-11 1q-3 15 -3 32t3 35 h11q-3 -17 -3 -35q0 -17 3 -33zM327 232q-1 -9 -1.5 -17.5t-0.5 -17.5v-16.5t2 -16.5h-10q-2 8 -2.5 16t-0.5 16q0 18 3 36h10zM531 -39h-11q-3 15 -3 32q0 18 3 35h11q-3 -17 -3 -35q0 -17 3 -32zM483 -39l-45 4q-2 7 -2 14v14q0 8 0.5 15.5t1.5 15.5l45 4v-67zM178 266 l-45 5q-3 13 -3 28t3 30l45 5v-68zM279 164l-44 5q-3 13 -3 28t3 30l44 5v-68zM381 63l-45 4q-1 7 -1.5 14t-0.5 14q0 8 0.5 15.5t1.5 15.5l45 4v-67zM124 334q-3 -18 -3 -36q0 -16 3 -32h-11q-3 16 -3 32q0 18 3 36h11zM226 232q-3 -18 -3 -35t3 -33h-11q-3 16 -3 32 q0 18 3 36h11zM327 130q-1 -8 -1.5 -17t-0.5 -18v-16.5t2 -16.5l-10 1q-2 8 -2.5 16t-0.5 16q0 17 3 35h10zM429 -39h-11q-3 15 -3 32q0 18 3 35h11q-3 -17 -3 -35q0 -17 3 -32zM178 164l-45 5q-3 13 -3 28t3 30l45 5v-68zM279 63l-44 4q-3 13 -3 28q0 16 3 31l44 4v-67z M381 -39l-45 4q-1 7 -1.5 14t-0.5 14q0 8 0.5 15.5t1.5 15.5l45 4v-67zM226 130q-3 -17 -3 -35q0 -17 3 -33l-11 1q-3 15 -3 32t3 35h11zM124 232q-3 -18 -3 -35t3 -33h-11q-3 16 -3 32q0 18 3 36h11zM327 28q-1 -8 -1.5 -17t-0.5 -18v-16t2 -16h-10q-2 8 -2.5 16t-0.5 16 q0 18 3 35h10zM178 63l-45 4q-3 13 -3 28q0 16 3 31l45 4v-67zM279 -39l-44 4q-3 13 -3 28q0 16 3 31l44 4v-67zM124 130q-3 -17 -3 -35q0 -17 3 -33l-11 1q-3 15 -3 32t3 35h11zM226 28q-3 -17 -3 -35q0 -17 3 -32h-11q-3 15 -3 32q0 18 3 35h11z" />
<glyph unicode="&#xf077;" d="M887 452q3 -15 3 -32q0 -19 -3 -35h-11q3 16 3 35q0 17 -3 32h11zM737 591q-17 3 -35 3q-17 0 -33 -3v11q16 3 33 3t35 -3v-11zM737 537h-68l5 45q13 3 28 3q16 0 31 -3zM867 448q3 -15 3 -28q0 -16 -3 -31l-45 -4v67zM887 317q3 -17 3 -32q0 -18 -3 -36h-11q3 18 3 35 q0 16 -3 33h11zM602 591q-18 3 -36 3q-16 0 -32 -3v11q15 3 32 3q18 0 36 -3v-11zM805 351h-101v68h-68v101h135h34v-169zM602 537h-68l4 45q15 3 29 3q15 0 30 -3zM867 312q3 -14 3 -28q0 -15 -3 -30l-45 -5v68zM805 215h-101v136h101v-136zM636 419h-136v101h136v-101z M887 181q3 -15 3 -32q0 -18 -3 -36h-11q3 18 3 36q0 15 -3 32h11zM466 591q-18 3 -35 3t-33 -3v11q16 3 32 3q18 0 36 -3v-11zM466 537h-68l5 45q13 3 28 3t30 -3zM867 177q3 -15 3 -29q0 -15 -3 -30l-45 -5v68zM805 79h-101v136h101v-136zM500 419h-136v101h136v-101z M330 591q-17 3 -35 3q-17 0 -32 -3v11q15 3 32 3q18 0 35 -3v-11zM331 537h-68l4 45q15 3 28 3q16 0 31 -3zM364 419h-67v-68h-102v169h34h135v-101zM585 80h-170v102h170v-102zM178 385l-45 4q-3 13 -3 28q0 16 3 31l45 4v-67zM534 63l-5 -45q-15 -3 -30 -3t-28 3l-5 45h68 zM124 384l-11 1q-3 15 -3 32t3 35h11q-3 -17 -3 -35q0 -17 3 -33zM297 215h-102v136h102v-136zM534 -2q-18 -3 -36 -3q-16 0 -32 3v11q16 -3 33 -3t35 3v-11zM178 249l-45 4q-3 15 -3 29q0 15 3 30l45 5v-68zM124 249h-11q-3 15 -3 32q0 18 3 36h11q-3 -18 -3 -35t3 -33z M297 79h-102v136h102v-136zM178 113l-45 5q-3 13 -3 28t3 30l45 5v-68zM124 113h-11q-3 16 -3 32q0 18 3 36h11q-3 -18 -3 -35t3 -33z" />
<glyph unicode="&#xf078;" d="M703 300h-406v169h406v-169zM568 266l-9 -90q-15 -2 -30.5 -3.5t-30.5 -1.5q-14 0 -28.5 1.5t-28.5 3.5l-9 90h136zM568 137q-36 -6 -72 -6q-16 0 -32 1t-32 4v22q17 -3 33 -4t33 -1t35 1.5t35 3.5v-21z" />
<glyph unicode="&#xf079;" d="M924 -124h-848v68q0 1 1.5 6t3.5 11t4 11t2 6l258 74l34 71h17l1 17l-21 7q-5 1 -9.5 12.5t-8 25.5t-6 26.5l-3.5 17.5q-14 3 -22.5 16.5t-13.5 30t-6.5 34t-1.5 28.5q0 8 0.5 15t1.5 15l13 4q-4 7 -8 25.5t-7 40t-5 41t-2 28.5q0 10 4.5 23.5t7.5 21.5q9 24 23.5 42 t43.5 17q0 9 10.5 16.5t18.5 11.5q24 12 52 14.5t54 2.5q1 0 9 -2t18 -5t18 -5.5t10 -3.5q27 -8 50.5 -23t41 -36t28 -47t10.5 -54q0 -29 -4 -54.5t-10 -53.5l14 -5q0 -6 0.5 -12.5t0.5 -12.5q0 -11 -2 -29t-7 -36t-14 -31.5t-22 -16.5q-1 -6 -3 -18.5t-6 -26t-8.5 -24.5 t-9.5 -13l-20 -8l2 -16h17l32 -72l257 -73q9 -21 10.5 -50.5t-0.5 -51.5z" />
<glyph unicode="&#xf07a;" d="M856 -124h-712v14l8 20q35 17 70 32t72 29v11l87 33q12 5 13.5 19t1.5 24q0 11 -0.5 21.5t-0.5 21.5l-37 -16q-15 2 -34.5 0t-33.5 -9q-5 22 -15 40t-14 36q-5 18 -6.5 36.5t-2.5 37.5l-17 -9q-1 17 -1 34t-2 34q0 3 -3.5 12t-3.5 11q0 41 5.5 81t13.5 79q1 8 7.5 26.5 t14.5 37.5t17 35t16 20q4 2 7 3q9 0 18 -2t18 -3v21q0 16 11.5 26t28 15.5t34 7t29.5 1.5q16 0 44 -3.5t56.5 -10t53.5 -16t35 -22.5q22 -27 43 -54t43 -54q23 -29 32 -65.5t9 -72.5q0 -41 -7 -80.5t-7 -81.5q0 -14 4 -20t12 -17h-27l5 -25l-45 -12l-35 -34l-51 24 q-9 -14 -12.5 -25.5t-3.5 -27.5q0 -8 -0.5 -19t4.5 -18l108 -40v-12l143 -60q3 -6 6 -16t1 -18z" />
<glyph unicode="&#xf07b;" d="M924 -124h-848v34h171v34h33v475l34 34v101h135v34h51v102h17v-102h34v55h17v-55h51v-34h33v-271l34 -34v-305h67v-34h171v-34zM619 452v68h-68v-68h68zM517 452v68h-68v-68h68zM619 351v68h-68v-68h68zM619 249v68h-68v-68h68zM415 452v68h-68v-68h68zM517 351v68h-68 v-68h68zM517 249v68h-68v-68h68zM415 351v68h-68v-68h68zM619 147v68h-68v-68h68zM415 249v68h-68v-68h68zM517 147v68h-68v-68h68zM619 46v68h-68v-68h68zM517 46v68h-68v-68h68zM415 147v68h-68v-68h68zM415 46v68h-68v-68h68zM619 -56v68h-68v-68h-34v68h-68v-68h-34v68 h-68v-68h272z" />
<glyph unicode="&#xf07c;" d="M819 581h-634q2 17 14.5 27.5t28.5 10.5h547q17 0 29 -10.5t15 -27.5zM893 358q0 -32 -23 -53.5t-55 -21.5q-31 0 -54.5 21.5t-23.5 53.5q0 -32 -23.5 -53.5t-55.5 -21.5q-31 0 -54.5 21.5t-23.5 53.5q0 -32 -23.5 -53.5t-54.5 -21.5q-32 0 -55.5 21.5t-23.5 53.5 q0 -32 -23 -53.5t-55 -21.5q-31 0 -54.5 21.5t-23.5 53.5q0 -32 -23.5 -53.5t-55.5 -21.5q-31 0 -54.5 21.5t-23.5 53.5l75 186h634zM819 -90h-634v340h3q42 0 71 25v-253h485v253q34 -26 75 -25v-340zM933 -124h-847v34h847v-34z" />
<glyph unicode="&#xf07d;" d="M788 175q0 -44 -30 -69.5t-72 -25.5q0 -14 0.5 -31.5t-3 -33.5t-13.5 -26.5t-31 -10.5h-312q-20 0 -33.5 13.5t-13.5 33.5v327q-4 -3 -13 -3q-13 0 -25.5 12.5t-12.5 25.5q0 11 1.5 20.5t1.5 20.5q0 17 -7.5 32t-7.5 32q0 29 20 48.5t49 19.5q9 27 33 44t53 17 q23 0 44 -12q14 22 36.5 34.5t48.5 12.5q27 0 50 -13t37 -36q22 10 42 10q38 0 62.5 -25t24.5 -63q0 -42 -31 -70v-74q42 0 72 -25.5t30 -69.5v-115zM720 170v124q0 10 -6.5 16.5t-15.5 6.5h-12v-170h12q9 0 15.5 7t6.5 16zM619 53v370h-192q-20 -12 -43 -12q-21 0 -37 8 v-366q0 -7 8 -7h256q8 0 8 7zM585 80h-34v305h34v-305zM500 80h-34v305h34v-305zM415 80h-34v305h34v-305z" />
<glyph unicode="&#xf07e;" d="M819 407q0 -15 -3 -34t-8.5 -37.5t-14 -35t-20.5 -27.5l-13.5 -13.5t-11.5 -9.5t-12.5 -7.5t-15.5 -7.5v-214h-2q0 -10 -14.5 -16.5t-36.5 -11.5t-48.5 -8t-50.5 -4.5t-42.5 -2t-24.5 -0.5t-24.5 0.5t-43.5 2.5t-51.5 5t-49.5 7.5t-37.5 11.5t-14.5 16v212q-48 20 -78 63 t-30 96q0 26 8.5 49.5t24 41t37.5 27.5t49 10q22 0 42.5 -6.5t40.5 -17.5q4 24 14.5 46.5t26.5 40t37.5 28.5t47.5 11t47.5 -10.5t38 -28.5t27 -40.5t14.5 -46.5q19 11 39.5 17.5t42.5 6.5q51 0 80.5 -31t29.5 -82z" />
<glyph unicode="&#xf081;" d="M760 559q-11 -12 -23.5 -29.5t-23.5 -37.5t-18.5 -40t-7.5 -36q8 -6 19.5 -14.5t22 -18.5t18 -21t7.5 -21q0 -11 -11 -11q-12 0 -23 6t-23 9q0 -25 -3.5 -49t-14.5 -47q16 -8 25.5 -21t9.5 -31l-22 8q2 -11 4.5 -20.5t2.5 -20.5q0 -7 -1 -13.5t-5 -11.5l-7 15 q-4 -6 -5 -15.5t-2.5 -19.5t-4 -18.5t-9.5 -13.5q-7 5 -12 13t-10 16.5t-12 14.5t-17 7q2 -8 9 -15t12 -13q6 -7 9.5 -15t8.5 -16q8 -13 25.5 -23t31.5 -17q-17 -26 -35.5 -54.5t-41 -52.5t-50 -40t-62.5 -16q-20 0 -32.5 8.5t-19.5 21.5t-9.5 29.5t-2.5 33.5q0 12 0.5 23.5 t1.5 23.5q14 7 19 13t6.5 12.5t2.5 15t7 20.5q5 11 10.5 16t10.5 9.5t9 11t7 20.5q-3 5 -9.5 8t-12.5 2q-38 -5 -76.5 -12t-76.5 -7q-11 0 -23.5 3.5t-12.5 17.5q0 5 3 10q-38 9 -60.5 42t-22.5 70q0 4 4.5 6t10.5 2.5t12 0t9 -0.5q0 11 -0.5 20.5t15.5 9.5q13 0 15.5 -4.5 t2.5 -15.5h-9v10.5t-8 5.5q-6 0 -8 -8.5t-2 -19.5t1 -22t1 -15q0 -10 11 -10q5 0 5 8v12q23 -5 42 -5q24 0 48 11q-6 28 -6 58q0 63 36 117q-4 1 -15 2t-22 2.5t-20 3.5t-9 5q0 9 12 16t27.5 11.5t30.5 7t22 2.5q10 7 16.5 24t10.5 37.5t5 39.5t1 31q0 9 -2 17.5t-2 16.5 q0 5 6 7.5t14 3.5t15.5 1h11.5q83 0 155 -34l-56 -139q10 -5 19.5 -9t18.5 -10q3 8 12 28t19.5 42t20 40t14.5 23q10 -5 21 -16t14 -22zM543 -35q0 10 -5.5 22.5t-16.5 12.5q-12 0 -17 -12.5t-5 -22.5q0 -9 5 -22t17 -13q11 0 16.5 13t5.5 22z" />
<glyph unicode="&#xf082;" d="M924 -124h-170v68h-51v143l-51 14v-157h-305v158l12 3l30 64h16l1 16l-20 6q-4 1 -8 11.5t-7 23.5t-5.5 24.5t-3.5 15.5q-13 3 -20.5 15t-12 27.5t-6 31t-1.5 26.5v13.5t1 13.5l12 4q-3 6 -6.5 23t-6.5 36.5t-5 37.5t-2 26q0 9 4 21t7 20q8 23 21.5 39t40.5 15 q0 13 16 21.5t37 12.5t41 5.5t29 1.5q1 0 8 -2t16 -4.5t16.5 -5t9.5 -2.5q24 -8 45.5 -22t38 -33t26 -42t9.5 -49t-4 -50t-9 -50l12 -3q1 -6 1 -12v-12q0 -10 -2 -26.5t-6.5 -33t-12.5 -29t-20 -14.5q-1 -5 -3 -16.5t-5 -24t-7.5 -22.5t-9.5 -12l-18 -7l2 -15h16l29 -66 l247 -66zM297 -56h-51v-68h-170l34 162l187 50v-144z" />
<glyph unicode="&#xf083;" d="M924 -124h-390l-17 153h-34l-17 -153h-390l34 162l249 67l30 64h16l1 16l-20 6q-4 1 -8 11.5t-7 23.5t-5.5 24.5t-3.5 15.5q-13 3 -20.5 15t-12 27.5t-6 31t-1.5 26.5v13.5t1 13.5l12 4q-3 6 -6.5 23t-6.5 36.5t-5 37.5t-2 26q0 9 4 21t7 20q8 23 21.5 39t40.5 15 q0 13 16 21.5t37 12.5t41 5.5t29 1.5q1 0 8 -2t16 -4.5t16.5 -5t9.5 -2.5q24 -8 45.5 -22t38 -33t26 -42t9.5 -49t-4 -50t-9 -50l12 -3q1 -6 1 -12v-12q0 -10 -2 -26.5t-6.5 -33t-12.5 -29t-20 -14.5q-1 -5 -3 -16.5t-5 -24t-7.5 -22.5t-9.5 -12l-18 -7l2 -15h16l29 -66 l247 -66zM771 -107v17h-102v-17h102zM525 97h-50l8 -51h34z" />
<glyph unicode="&#xf084;" d="M680 496q0 -26 -4 -50t-9 -50l12 -4q1 -5 1 -11v-12q0 -10 -2 -26.5t-6.5 -32.5t-12.5 -29t-20 -15l-25 -75l-18 -20l1 -57l40 -11q-20 -35 -54 -55t-74 -20q-42 0 -76.5 21t-54.5 57l31 8v58l-23 19l-24 75q-13 3 -20.5 15.5t-12 27.5t-6 30.5t-1.5 26.5v13.5t1 13.5 l12 4q-3 6 -6.5 23t-6.5 36.5t-5 37.5t-2 26q0 9 4 21t7 20q8 22 21.5 38.5t40.5 15.5q0 13 16 21.5t37 12.5t41 5.5t29 1.5q1 0 8 -2t16 -4.5t16.5 -5t9.5 -2.5q24 -8 46 -22t38 -33t25.5 -42t9.5 -49zM890 -115l-780 -1l34 162l205 52q23 -45 66 -72t94 -27 q50 0 92.5 25.5t65.5 70.5l-16 4l205 -53z" />
<glyph unicode="&#xf085;" d="M924 -124h-390l-17 153h-34l-17 -153h-390l34 162l249 67l30 64h16l1 16l-20 6q-4 1 -8 11.5t-7 23.5t-5.5 24.5t-3.5 15.5q-13 3 -20.5 15.5t-12 27.5t-6 30.5t-1.5 26.5v13.5t1 13.5l12 4q-3 6 -6.5 23t-6.5 36.5t-5 37.5t-2 26q0 9 4 21t7 20q8 22 21.5 39t40.5 15 q0 13 16 21.5t37 12.5t41 5.5t29 1.5q1 0 8 -2t16 -4.5t16.5 -5t9.5 -2.5q19 -6 36.5 -14.5t30.5 -23.5q16 38 50 62t76 24q28 0 53 -10.5t43.5 -29t29 -43.5t10.5 -53t-10.5 -52.5t-29 -43t-43.5 -29t-53 -10.5q-42 0 -78 25q-3 -24 -9 -48l12 -4q1 -5 1 -11v-12 q0 -10 -2 -26.5t-6.5 -32.5t-12.5 -29t-20 -15q-1 -5 -3 -16.5t-5 -24t-7.5 -22.5t-9.5 -12l-18 -7l2 -15h16l29 -66l247 -66zM871 554q0 24 -9 45.5t-25 37.5t-37.5 25t-45.5 9t-45 -9t-37 -25t-25 -37.5t-9 -45.5t9 -45t25 -37t37 -25t45 -9t45.5 9t37.5 25t25 37t9 45z M771 -107v17h-102v-17h102zM525 97h-50l8 -51h34zM789 531q0 -29 -30 -32v-18h-10v18q-14 0 -30 7v22q15 -9 30 -10v30q-12 5 -21 12.5t-9 22.5q0 14 8 21t22 9v14h10v-14q13 0 27 -7l-7 -19l-10 4t-10 3v-28q13 -6 21.5 -12.5t8.5 -22.5zM749 571v23q-9 -2 -9 -11 q0 -2 2 -8q2 -1 3.5 -2t3.5 -2zM769 531q0 1 -1 3t-1 3q-3 4 -8 6v-24q10 1 10 12z" />
<glyph unicode="&#xf086;" d="M890 554q0 -28 -10.5 -52.5t-29 -43t-43.5 -29t-53 -10.5q-42 0 -78 25q-3 -24 -9 -48l12 -3q1 -6 1 -12v-12q0 -10 -2 -26.5t-6.5 -33t-12.5 -29t-20 -14.5l-25 -75l-18 -20l1 -57l40 -11q-20 -35 -54 -55t-74 -20q-42 0 -76.5 21t-54.5 57l31 8v58l-23 19l-24 75 q-13 3 -20.5 15.5t-12 27.5t-6 30.5t-1.5 26.5v13.5t1 13.5l12 4q-3 6 -6.5 23t-6.5 36.5t-5 37.5t-2 26q0 9 4 21t7 20q8 22 21.5 39t40.5 15q0 13 16 21.5t37 12.5t41 5.5t29 1.5q1 0 8 -2t16 -4.5t16.5 -5t9.5 -2.5q18 -6 36.5 -14.5t31.5 -23.5q15 38 49 62t76 24 q28 0 53 -10.5t43.5 -29t29 -43.5t10.5 -53zM890 -115l-780 -1l34 162l205 52q23 -45 66 -72t94 -27q50 0 92.5 25.5t65.5 70.5l-16 4l205 -53zM871 554q0 24 -9 45.5t-25 37t-37.5 25t-45.5 9.5t-45 -9.5t-37 -25t-25 -37t-9 -45.5t9 -45t25 -37t37 -25t45 -9t45.5 9 t37.5 25t25 37t9 45zM847 576h-42l-29 34h21zM797 576h-76l25 34h25zM847 568l-84 -101l42 101h42zM742 610l-29 -34h-42l50 34h21zM797 568l-38 -101l-38 101h76zM755 467l-84 101h42z" />
<glyph unicode="&#xf087;" d="M890 554q0 -28 -10.5 -52.5t-29 -43t-43.5 -29t-53 -10.5q-42 0 -78 25q-3 -24 -9 -48l12 -4q1 -5 1 -11v-12q0 -9 -2 -26t-6.5 -33.5t-12.5 -29.5t-20 -14l-25 -75l-18 -20l1 -57l44 -12q-24 -42 -59.5 -73t-73.5 -59q-38 28 -74 60t-61 74l-23 -6q33 -46 71.5 -86.5 t86.5 -72.5q47 32 85 71t71 86l192 -50l34 -161l-780 -1l34 162l265 68v58l-23 19l-24 75q-13 3 -20.5 15t-12 27.5t-6 31.5t-1.5 26v13.5t1 13.5l12 4q-3 6 -6.5 23t-6.5 36.5t-5 37.5t-2 26q0 9 4 21t7 20q8 22 21.5 39t40.5 15q0 13 16 21.5t36.5 12.5t41 5.5t29.5 1.5 q1 0 8 -2t16 -4.5t16.5 -5t9.5 -2.5q19 -6 37 -14.5t31 -23.5q15 38 49 62t76 24q28 0 53 -10.5t43.5 -29t29 -43.5t10.5 -53zM871 554q0 24 -9 45.5t-25 37t-37.5 25t-45.5 9.5t-45 -9.5t-37 -25t-25 -37t-9 -45.5t9 -45t25 -37t37 -25t45 -9t45.5 9t37.5 25t25 37t9 45z M820 607l-15 -116l-51 -16l-50 16l-15 116h131zM795 591h-81l4 -50h55l-1 -19l-18 -6l-17 6v10h-18q1 -13 1 -17.5t2.5 -6.5t9.5 -3t22 -6l34 11l4 47h-56l-1 17h59z" />
<glyph unicode="&#xf088;" d="M926 490h-89v-89h-60v89h-90v60h90v89h60v-89h89v-60zM741 -39h-665v53l1.5 4t3 8.5l3 9t1.5 5.5l202 58l27 55h13l1 14l-17 5q-9 10 -13.5 30.5t-7.5 33.5q-11 4 -18 14t-10.5 23t-4.5 26t-1 23v11t1 12l10 3q-3 5 -6 20t-5.5 32t-4 32.5t-1.5 22.5q0 12 4.5 26.5 t12.5 26.5t19.5 20t25.5 7q0 12 13.5 19t31.5 11t35.5 5t25.5 1q1 0 7.5 -1.5t14 -4t14 -4.5t7.5 -2q42 -13 72 -47t30 -79q0 -22 -3 -42.5t-8 -42.5l11 -3q0 -5 0.5 -10t0.5 -10q0 -9 -1.5 -23t-5.5 -28t-11 -25t-18 -13q0 -4 -2 -14t-4.5 -20.5t-6.5 -19.5t-8 -10l-15 -6 l1 -13h13l25 -57l202 -57q8 -16 9 -39t-1 -40z" />
<glyph unicode="&#xf089;" d="M924 489h-89v-89h-60v89h-89v59h89v89h60v-89h89v-59zM739 -37h-663v490h663v-490zM682 20v375h-548v-375h548zM653 49h-490v92l51 52l52 -52l155 155l180 -180l52 51v-118zM307 309q0 -24 -17 -41t-41 -17q-23 0 -40 17t-17 41q0 23 17 40t40 17q24 0 41 -17t17 -40z " />
<glyph unicode="&#xf08a;" d="M926 490h-89v-89h-60v89h-90v60h90v89h60v-89h89v-60zM777 -39h-701v28h141v28h27v392l28 28v84h113v28h42v84h14v-84h28v46h14v-46h42v-28h28v-224l28 -28v-252h55v-28h141v-28zM525 437v56h-56v-56h56zM525 353v56h-56v-56h56zM441 437v56h-56v-56h56zM525 269v56h-56 v-56h56zM441 353v56h-56v-56h56zM357 437v56h-57v-56h57zM441 269v56h-56v-56h56zM525 185v56h-56v-56h56zM357 353v56h-57v-56h57zM525 101v56h-56v-56h56zM441 185v56h-56v-56h56zM357 269v56h-57v-56h57zM441 101v56h-56v-56h56zM357 185v56h-57v-56h57zM525 17v56h-56 v-56h-28v56h-56v-56h-28v56h-57v-56h225zM357 101v56h-57v-56h57z" />
<glyph unicode="&#xf08b;" d="M926 490h-89v-89h-60v89h-90v60h90v89h60v-89h89v-60zM837 -39h-472v38q0 1 3 9t3 9l41 12h-336v23h84v24h22v327l24 23v70h93v23h35v70h12v-70h23v38h12v-38h35v-23h23v-187l24 -23v-210h45v-19l7 2l19 39h9l1 9l-12 4q-7 8 -10 22t-5 24q-8 3 -12.5 10t-7 16t-3.5 18 t-1 16v17l8 2q-2 4 -4.5 14t-4 22t-2.5 23.5t-1 16.5q0 9 3 19t9 18.5t14 14t18 5.5q0 8 9.5 13t22.5 7.5t25.5 3.5t17.5 1q2 0 15 -4t15 -5q30 -8 51.5 -32t21.5 -56q0 -17 -2.5 -31t-5.5 -30l7 -2q1 -5 1 -15q0 -6 -1 -16t-4 -19.5t-8 -17.5t-12 -9q-2 -11 -4.5 -24.5 t-10.5 -21.5l-11 -4l1 -9h9l18 -40l143 -41q5 -11 6 -27.5t0 -28.5zM416 426v47h-47v-47h47zM346 426v47h-47v-47h47zM416 356v47h-47v-47h47zM346 356v47h-47v-47h47zM416 286v47h-47v-47h47zM276 426v47h-47v-47h47zM346 286v47h-47v-47h47zM276 356v47h-47v-47h47z M416 216v47h-47v-47h47zM346 216v47h-47v-47h47zM276 286v47h-47v-47h47zM416 146v47h-47v-47h47zM346 146v47h-47v-47h47zM276 216v47h-47v-47h47zM276 146v47h-47v-47h47zM416 76v47h-47v-47h-23v47h-47v-47h-23v47h-47v-47h187z" />
<glyph unicode="&#xf08c;" d="M856 452h-170l-118 136h84zM652 452h-305l102 136h102zM856 419l-339 -407l169 407h170zM432 588l-118 -136h-170l203 136h85zM652 419l-152 -407l-153 407h305zM483 12l-339 407h170z" />
<glyph unicode="&#xf08d;" d="M822 622l-78 -564l-244 -80l-244 80l-78 564h644zM700 543h-399l21 -244h267l-5 -93l-84 -28l-85 30l-2 50h-87l9 -102q0 -4 2 -5l163 -56l163 53l22 231h-277l-4 83h289z" />
<glyph unicode="&#xf08e;" d="M429 358l-13 -126h-99v-356h-148v356h-71v126h71v81q0 69 39.5 109t109.5 40h109v-122h-79q-16 0 -23.5 -10t-7.5 -25v-73h112z" />
<glyph unicode="&#xf091;" d="M924 -124h-607v356h99l13 126h-112v73q0 16 7.5 25.5t23.5 9.5h79v122h-109q-70 0 -109.5 -40t-39.5 -109v-81h-71v-126h71v-356h-93v848h848v-848z" />
<glyph unicode="&#xf092;" d="M856 487h-115v-115h-58v115h-115v57h115v116h58v-116h115v-57zM602 660l-58 -34h-58q33 -20 49 -55t16 -73q0 -42 -15 -67.5t-33.5 -43.5t-33.5 -33t-15 -36q0 -14 9.5 -25.5t24 -24t31.5 -26t31.5 -31t24 -40t9.5 -52.5q0 -47 -23 -81t-58.5 -55.5t-78.5 -32t-83 -10.5 q-30 0 -65 7t-64 23t-48.5 42t-19.5 63q0 46 26 76t64 48t82 26t80 9q-11 14 -19.5 29.5t-8.5 34.5q0 10 3.5 19t6.5 18q-8 -2 -15.5 -2h-15.5q-32 0 -60 11t-49.5 30.5t-34 47t-12.5 59.5q0 30 11.5 58t31 50.5t45 39t54.5 22.5q37 9 77 9h192zM470 455q0 24 -6.5 54.5 t-20.5 56.5t-36 44t-52 18q-21 0 -37 -8.5t-26.5 -22.5t-15.5 -32.5t-5 -37.5q0 -25 8 -54t23 -54.5t37.5 -42.5t51.5 -17q44 0 61.5 28t17.5 68zM523 81q0 23 -10 41.5t-25 33.5t-33 27.5t-34 23.5q-7 1 -13.5 1h-13.5q-26 0 -56 -5.5t-55.5 -18.5t-42 -34.5t-16.5 -53.5 q0 -31 15.5 -53t39.5 -36t52.5 -20.5t54.5 -6.5q24 0 48.5 5t44 17t32 31.5t12.5 47.5z" />
<glyph unicode="&#xf093;" d="M924 -124h-848v848h848v-848zM856 487v57h-115v116h-58v-116h-115v-57h115v-115h58v115h115zM602 660h-192q-40 0 -77 -9q-29 -6 -54.5 -22.5t-45 -39t-31 -50.5t-11.5 -58q0 -32 12.5 -59.5t34 -47t49.5 -30.5t60 -11h15.5t15.5 2q-3 -9 -6.5 -18t-3.5 -19 q0 -19 8.5 -34.5t19.5 -29.5q-36 -1 -80 -9t-82 -26t-64 -48t-26 -76q0 -37 19.5 -63t48.5 -42t64 -23t65 -7q40 0 83 10.5t78.5 32t58.5 55.5t23 81q0 30 -9.5 52.5t-24 40t-31.5 31t-31.5 26t-24 24t-9.5 25.5q0 21 15 36t33.5 33t33.5 43.5t15 67.5q0 38 -16 73t-49 55 h58zM470 455q0 -40 -17.5 -68t-61.5 -28q-29 0 -51.5 17t-37.5 42.5t-23 54.5t-8 54q0 19 5 37.5t15.5 32.5t26.5 22.5t37 8.5q30 0 52 -18t36 -44t20.5 -56.5t6.5 -54.5zM523 81q0 -28 -12.5 -47.5t-32 -31.5t-44 -17t-48.5 -5q-26 0 -54.5 6.5t-52.5 20.5t-39.5 36 t-15.5 53q0 32 16.5 53.5t42 34.5t55.5 18.5t56 5.5h13.5t13.5 -1q16 -11 34 -23.5t33 -27.5t25 -33.5t10 -41.5z" />
<glyph unicode="&#xf094;" d="M924 434h-159v-159h-67v159h-158v66h158v158h67v-158h159v-66zM553 657l-70 -56h-76q37 -32 56.5 -70.5t19.5 -88.5q0 -38 -10 -65t-25 -47.5t-33 -36t-33 -29.5t-25 -28t-10 -32q0 -20 15 -37t37.5 -34t49 -36t49 -41.5t37.5 -50.5t15 -64q0 -17 -3 -31.5t-8 -29.5h-74 v12q0 27 -17 51t-41 45t-51 38t-46 31q-8 1 -14.5 1h-14.5q-22 0 -51.5 -3t-59 -10.5t-55 -20t-39.5 -31.5v65q47 20 94.5 26t97.5 9q-16 20 -27 39.5t-11 45.5q0 14 4 25t9 24q-20 -3 -40 -3q-36 0 -67 8.5t-60 31.5v323q48 39 101 54.5t113 15.5h263zM382 385 q0 33 -9.5 73t-29 75t-49 58.5t-68.5 23.5q-30 0 -51 -11t-34.5 -29.5t-19.5 -42.5t-6 -51q0 -33 9 -69.5t27.5 -67t47 -50.5t67.5 -20q24 0 45 8t37 22.5t25 35t9 45.5z" />
<glyph unicode="&#xf095;" d="M924 -124h-459v13q0 27 -17 51t-41 44.5t-51 38t-46 31.5q-8 1 -14.5 1h-14.5q-22 0 -51.5 -3t-59 -10.5t-55 -20.5t-39.5 -32v-113h463q5 16 8 30.5t3 31.5q0 35 -15 63t-37.5 51t-49 41.5t-49 36t-37.5 35t-15 36.5q0 18 10 32t25 28t33 29.5t33 36t25 47.5t10 65 q0 50 -19.5 88t-56.5 70h76l70 57h-263q-60 0 -113 -16t-101 -54v140h848v-227h-159v157h-67v-157h-158v-66h158v-160h67v160h159v-555zM382 382q0 -51 -34 -81t-82 -30q-39 0 -67.5 20t-47 50.5t-27.5 67t-9 69.5q0 26 6 50t19.5 42.5t34.5 29.5t51 11q39 0 68.5 -23.5 t49 -58.5t29 -75t9.5 -72zM268 90q-50 -4 -97.5 -9.5t-94.5 -25.5v206q29 -23 60 -31.5t67 -8.5q10 0 20 0.5t20 1.5q-5 -12 -9 -23t-4 -25q0 -27 11 -46t27 -39z" />
<glyph unicode="&#xf096;" d="M924 563q-18 -26 -39.5 -49t-47.5 -41v-23q2 -104 -36 -194t-105.5 -156.5t-158.5 -105t-194 -38.5q-71 0 -139 20t-128 58q21 -3 42 -3q59 0 114 19.5t102 55.5q-28 0 -53.5 9t-47 25t-37.5 38t-25 48q16 -3 33 -3q23 0 46 6q-31 6 -57 22t-44.5 39t-28.5 51.5t-10 60.5 q38 -20 79 -22q-36 25 -56.5 63t-20.5 82q0 47 23 87q67 -81 160 -128.5t199 -52.5q-5 22 -5 39q0 36 13.5 67.5t37.5 55.5t55.5 37.5t67.5 13.5t69 -14.5t58 -40.5q60 12 110 43q-9 -30 -29 -55t-47 -42q26 4 51 10.5t49 17.5z" />
<glyph unicode="&#xf097;" d="M924 -124h-848v848h848v-848zM839 510q-36 -16 -80 -22q46 28 61 77q-40 -24 -88 -33q-20 20 -46.5 31.5t-55.5 11.5t-54 -11t-44 -29.5t-30 -44t-11 -54.5q0 -8 1 -15.5t3 -15.5q-85 4 -159 41.5t-128 103.5q-19 -33 -19 -70q0 -35 16.5 -65.5t45.5 -50.5q-33 1 -63 18 v-2q0 -50 31.5 -88t80.5 -48q-9 -3 -18 -4t-19 -1q-7 0 -13 0.5t-13 1.5q14 -42 49.5 -68.5t80.5 -27.5q-45 -35 -97.5 -49.5t-108.5 -8.5q48 -31 102 -46.5t111 -15.5q85 0 159 32.5t128 89t83.5 131.5t25.5 160q40 30 69 72z" />
<glyph unicode="&#xf098;" d="M872 -56h-159v257q0 20 -3.5 39.5t-13 35t-25 25t-39.5 9.5q-42 0 -64.5 -29.5t-22.5 -68.5v-268h-160q1 80 1 159v159q0 41 0.5 81.5t-1.5 80.5h160v-69h-1q26 41 60.5 61t84.5 20q48 0 83 -17t57 -46.5t32.5 -69t10.5 -84.5v-275zM307 573q0 -40 -26.5 -61.5 t-64.5 -21.5q-37 0 -62.5 22.5t-25.5 60.5q0 39 26.5 61t63.5 22t63 -22.5t26 -60.5zM297 -56h-160v480h160v-480z" />
<glyph unicode="&#xf099;" d="M924 -124h-848v848h848v-848zM822 -8v238q0 39 -9 73t-28.5 59.5t-49.5 40t-72 14.5t-72 -17t-52 -52v60h-138q5 -101 2.5 -207.5t-2.5 -208.5h138v232q0 34 19.5 59t55.5 25q21 0 34.5 -8t21.5 -21.5t11 -30t3 -34.5v-222h138zM333 536q0 33 -22.5 52.5t-54.5 19.5 t-55 -19t-23 -53q0 -33 22.5 -52.5t54.5 -19.5t55 19t23 53zM324 -8v416h-138v-416h138zM539 347h-1q0 1 1 1v-1z" />
<glyph unicode="&#xf09a;" d="M805 656l-254 -424l186 -288h-135l-187 288l254 424h136zM452 368l-138 -221h-136l138 221l-87 152h135z" />
<glyph unicode="&#xf09b;" d="M924 -124h-848v848h848v-848zM805 656h-136l-254 -424l187 -288h135l-186 288zM452 368l-88 152h-135l87 -152l-138 -221h136z" />
<glyph unicode="&#xf09c;" d="M822 339h-51v0h-182v0h-52v283h285v-283zM819 107h-179v77h-51v-77h-52v154h180v-77h51v77h51v-154zM463 339h-285v283h282v0h3v-283zM819 -22h-77v77h77v-77zM717 -22h-77v77h77v-77zM589 -22h-52v103h52v-103zM463 -22h-285v283h282v0h3v-283zM771 390v180h-182v-180 h182zM411 390v180h-182v-180h182zM411 30v180h-182v-180h182zM713 446h-73v73h73v-73zM353 446h-72v73h72v-73zM353 85h-72v73h72v-73z" />
<glyph unicode="&#xf09d;" d="M822 -22h-52v644h52v-644zM758 -22h-13v644h13v-644zM732 -22h-13v644h13v-644zM693 -22h-26v644h26v-644zM642 -22h-26v644h26v-644zM590 -22h-51v644h51v-644zM526 -22h-13v644h13v-644zM500 -22h-13v644h13v-644zM461 -22h-25v644h25v-644zM407 -22h-13v644h13v-644z M381 -22h-13v644h13v-644zM333 -22h-26v644h26v-644zM281 -22h-26v644h26v-644zM229 -22h-51v644h51v-644z" />
<glyph unicode="&#xf09e;" d="M686 622q0 -39 -17 -74.5t-48 -61.5h-243q-30 26 -47 61.5t-17 74.5q34 0 67.5 -2.5t66.5 -10.5q25 -6 49.5 -13.5t50.5 -7.5q34 0 70.5 11.5t67.5 22.5zM822 63q0 -35 -25 -60t-60 -25h-474q-35 0 -60 25t-25 60v120q3 42 16 82t35.5 74.5t53 62.5t68.5 48q2 1 9 4 t14.5 6.5t14 6t8.5 2.5h206q2 0 8.5 -2.5t14 -6t14.5 -6.5t9 -4q37 -20 68 -48t53.5 -62.5t35.5 -74.5t15 -82h1v-120zM622 152q0 22 -10 37.5t-25.5 27t-34.5 19.5t-36 14v72q38 -3 78 -19l22 57q-23 11 -48.5 16t-51.5 6v37h-33v-38q-19 -2 -37.5 -7.5t-33.5 -15.5 t-24.5 -25t-9.5 -37q0 -23 9.5 -39.5t24.5 -28t33.5 -20t37.5 -15.5v-75q-25 2 -53.5 9.5t-51.5 18.5v-64q25 -11 51.5 -16t53.5 -5v-49h33v50q20 1 39 7t34 16.5t24 27t9 39.5zM483 264q-11 5 -21.5 11.5t-10.5 20.5q0 13 10.5 18t21.5 7v-57zM549 148q0 -14 -10.5 -20 t-22.5 -8v60q10 -5 21.5 -12t11.5 -20z" />
<glyph unicode="&#xf101;" d="M856 266l-34 -17v-271h-644v271l-34 17v119l208 22q-19 0 -39 8t-36.5 21.5t-27 31.5t-10.5 39q0 24 9 45t24 36.5t35.5 24.5t44.5 9t46.5 -9.5t37.5 -28.5l64 -86l64 86q15 19 37.5 28.5t46.5 9.5t44.5 -9t36 -25t24 -36.5t8.5 -44.5q0 -20 -10.5 -38.5t-27 -32 t-36.5 -21.5t-39 -8l208 -22v-119zM695 507q0 21 -12.5 36t-34.5 15q-21 0 -35 -16l-62 -70h97q14 0 30.5 10t16.5 25zM449 472l-62 70q-13 16 -35 16q-21 0 -34 -15t-13 -36q0 -16 16.5 -25.5t30.5 -9.5h97zM551 12v373h-102v-373h102z" />
</font>
</defs>
</svg>
